{
.appVersion = "1131";
copyright = "2019, NoFoundry, Velvetyne Type Foundry";
customParameters = (
{
name = panose;
value = (
0,
0,
5,
0,
0,
0,
0,
0,
0,
0
);
},
{
name = unicodeRanges;
value = (
0,
1
);
},
{
name = codePageRanges;
value = (
1252
);
},
{
name = glyphOrder;
value = (
.notdef,
A,
Aacute,
Acircumflex,
Adieresis,
Agrave,
Aring,
Atilde,
AE,
B,
C,
Ccedilla,
D,
Eth,
E,
Eacute,
Ecircumflex,
Edieresis,
Egrave,
F,
G,
H,
I,
Iacute,
Icircumflex,
Idieresis,
Igrave,
J,
K,
L,
M,
N,
Ntilde,
O,
Oacute,
Ocircumflex,
Odieresis,
Ograve,
Oslash,
Otilde,
OE,
P,
Thorn,
Q,
R,
S,
T,
U,
Uacute,
Ucircumflex,
Udieresis,
Ugrave,
V,
W,
Wacute,
Wcircumflex,
Wdieresis,
Wgrave,
X,
Y,
Yacute,
Ycircumflex,
Ydieresis,
Ygrave,
Z,
a,
aacute,
acircumflex,
adieresis,
agrave,
aring,
atilde,
ae,
b,
c,
ccedilla,
d,
eth,
e,
eacute,
ecircumflex,
edieresis,
egrave,
f,
g,
h,
i,
iacute,
icircumflex,
idieresis,
igrave,
j,
k,
l,
m,
n,
ntilde,
o,
oacute,
ocircumflex,
odieresis,
ograve,
oslash,
otilde,
oe,
p,
thorn,
q,
r,
s,
germandbls,
t,
u,
uacute,
ucircumflex,
udieresis,
ugrave,
v,
w,
wacute,
wcircumflex,
wdieresis,
wgrave,
x,
y,
yacute,
ycircumflex,
ydieresis,
ygrave,
z,
zero,
one,
two,
three,
four,
five,
six,
seven,
eight,
nine,
period,
comma,
colon,
semicolon,
ellipsis,
exclam,
exclamdown,
question,
questiondown,
periodcentered,
bullet,
asterisk,
numbersign,
slash,
backslash,
parenleft,
parenright,
braceleft,
braceright,
bracketleft,
bracketright,
hyphen,
endash,
emdash,
underscore,
quotesinglbase,
quotedblbase,
quotedblleft,
quotedblright,
quoteleft,
quoteright,
guillemotleft,
guillemotright,
guilsinglleft,
guilsinglright,
quotedbl,
quotesingle,
space,
dollar,
Euro,
plus,
equal,
greater,
less,
asciitilde,
asciicircum,
percent,
at,
ampersand,
bar,
uni0308,
uni0307,
gravecomb,
acutecomb,
uni0302,
uni030A,
tildecomb,
uni0327,
VTF,
kaeru1,
kaeru2,
kaeru3,
NOF
);
}
);
date = "2019-07-16 18:40:16 +0000";
designer = "Isabel Motz";
designerURL = "http://nofoundry.xyz , https://www.velvetyne.fr";

glyphs = (
{
glyphname = .notdef;
lastChange = "2019-07-17 18:30:08 +0000";
layers = (
{
hints = (
{
horizontal = 1;
place = "{-110, 10}";
type = Stem;
},
{
horizontal = 1;
place = "{-60, 10}";
type = Stem;
},
{
horizontal = 1;
place = "{0, 10}";
type = Stem;
},
{
horizontal = 1;
place = "{45, 10}";
type = Stem;
},
{
horizontal = 1;
place = "{90, 10}";
type = Stem;
},
{
horizontal = 1;
place = "{150, 10}";
type = Stem;
},
{
horizontal = 1;
place = "{240, 10}";
type = Stem;
},
{
horizontal = 1;
place = "{340, 10}";
type = Stem;
},
{
horizontal = 1;
place = "{390, 10}";
type = Stem;
},
{
horizontal = 1;
place = "{450, 10}";
type = Stem;
},
{
horizontal = 1;
place = "{495, 10}";
type = Stem;
},
{
horizontal = 1;
place = "{540, 10}";
type = Stem;
},
{
horizontal = 1;
place = "{600, 10}";
type = Stem;
},
{
horizontal = 1;
place = "{645, 10}";
type = Stem;
},
{
horizontal = 1;
place = "{690, 10}";
type = Stem;
},
{
place = "{40, 10}";
type = Stem;
},
{
place = "{130, 10}";
type = Stem;
},
{
place = "{195, 10}";
type = Stem;
},
{
place = "{255, 10}";
type = Stem;
},
{
place = "{345, 10}";
type = Stem;
},
{
place = "{395, 10}";
type = Stem;
},
{
place = "{440, 10}";
type = Stem;
},
{
place = "{495, 10}";
type = Stem;
},
{
place = "{585, 10}";
type = Stem;
},
{
place = "{630, 10}";
type = Stem;
},
{
place = "{690, 10}";
type = Stem;
},
{
place = "{735, 10}";
type = Stem;
},
{
place = "{780, 10}";
type = Stem;
},
{
place = "{825, 10}";
type = Stem;
},
{
place = "{940, 10}";
type = Stem;
},
{
place = "{80, 10}";
type = Stem;
},
{
place = "{215, 10}";
type = Stem;
},
{
place = "{180, 10}";
type = Stem;
},
{
place = "{250, 10}";
type = Stem;
},
{
place = "{290, 10}";
type = Stem;
},
{
place = "{355, 10}";
type = Stem;
},
{
place = "{465, 10}";
type = Stem;
},
{
place = "{595, 10}";
type = Stem;
},
{
place = "{120, 10}";
type = Stem;
},
{
horizontal = 1;
place = "{480, 10}";
type = Stem;
},
{
horizontal = 1;
place = "{510, 10}";
type = Stem;
},
{
place = "{210, 10}";
type = Stem;
},
{
place = "{185, 10}";
type = Stem;
},
{
place = "{170, 10}";
type = Stem;
},
{
place = "{155, 10}";
type = Stem;
},
{
place = "{240, 10}";
type = Stem;
},
{
place = "{225, 10}";
type = Stem;
},
{
place = "{295, 10}";
type = Stem;
},
{
place = "{310, 10}";
type = Stem;
},
{
place = "{325, 10}";
type = Stem;
},
{
place = "{275, 10}";
type = Stem;
},
{
place = "{410, 10}";
type = Stem;
},
{
place = "{515, 10}";
type = Stem;
},
{
place = "{530, 10}";
type = Stem;
},
{
place = "{545, 10}";
type = Stem;
},
{
place = "{560, 10}";
type = Stem;
},
{
place = "{575, 10}";
type = Stem;
},
{
place = "{635, 10}";
type = Stem;
},
{
place = "{700, 10}";
type = Stem;
},
{
horizontal = 1;
place = "{490, 10}";
type = Stem;
},
{
place = "{810, 10}";
type = Stem;
},
{
place = "{840, 10}";
type = Stem;
},
{
horizontal = 1;
place = "{300, 10}";
type = Stem;
},
{
horizontal = 1;
place = "{345, 10}";
type = Stem;
},
{
place = "{280, 10}";
type = Stem;
},
{
place = "{935, 10}";
type = Stem;
},
{
place = "{235, 10}";
type = Stem;
},
{
place = "{370, 10}";
type = Stem;
},
{
horizontal = 1;
place = "{330, 10}";
type = Stem;
},
{
place = "{365, 10}";
type = Stem;
},
{
horizontal = 1;
place = "{360, 10}";
type = Stem;
},
{
place = "{505, 10}";
type = Stem;
},
{
place = "{520, 10}";
type = Stem;
},
{
place = "{535, 10}";
type = Stem;
},
{
place = "{550, 10}";
type = Stem;
},
{
place = "{565, 10}";
type = Stem;
},
{
place = "{485, 10}";
type = Stem;
},
{
place = "{645, 10}";
type = Stem;
},
{
place = "{760, 10}";
type = Stem;
},
{
place = "{910, 10}";
type = Stem;
},
{
place = "{865, 10}";
type = Stem;
},
{
horizontal = 1;
place = "{210, 10}";
type = Stem;
},
{
place = "{270, 10}";
type = Stem;
},
{
horizontal = 1;
place = "{180, 10}";
type = Stem;
},
{
place = "{285, 10}";
type = Stem;
},
{
place = "{305, 10}";
type = Stem;
},
{
place = "{425, 10}";
type = Stem;
},
{
place = "{480, 10}";
type = Stem;
},
{
place = "{525, 10}";
type = Stem;
},
{
horizontal = 1;
place = "{30, 10}";
type = Stem;
},
{
place = "{95, 10}";
type = Stem;
},
{
horizontal = 1;
place = "{60, 10}";
type = Stem;
},
{
place = "{110, 10}";
type = Stem;
},
{
place = "{65, 10}";
type = Stem;
},
{
place = "{50, 10}";
type = Stem;
},
{
place = "{285, 40}";
type = Stem;
}
);
layerId = "B4EEB2EB-BE69-455B-9E3C-B597DC09858D";
paths = (
{
closed = 1;
nodes = (
"40 700 LINE",
"40 600 LINE",
"50 600 LINE",
"50 700 LINE"
);
},
{
closed = 1;
nodes = (
"90 645 LINE",
"130 645 LINE",
"130 655 LINE",
"90 655 LINE",
"90 690 LINE",
"150 690 LINE",
"150 700 LINE",
"80 700 LINE",
"80 600 LINE",
"90 600 LINE"
);
},
{
closed = 1;
nodes = (
"225 645 LINE",
"260 645 LINE",
"260 700 LINE",
"250 700 LINE",
"250 655 LINE",
"190 655 LINE",
"190 700 LINE",
"180 700 LINE",
"180 645 LINE",
"215 645 LINE",
"215 600 LINE",
"225 600 LINE"
);
},
{
closed = 1;
nodes = (
"290 700 LINE",
"290 600 LINE",
"365 600 LINE",
"365 700 LINE"
);
},
{
closed = 1;
nodes = (
"395 700 LINE",
"395 600 LINE",
"475 600 LINE",
"475 700 LINE",
"465 700 LINE",
"465 610 LINE",
"405 610 LINE",
"405 700 LINE"
);
},
{
closed = 1;
nodes = (
"505 700 LINE",
"505 600 LINE",
"950 600 LINE",
"950 700 LINE"
);
},
{
closed = 1;
nodes = (
"300 690 LINE",
"355 690 LINE",
"355 610 LINE",
"300 610 LINE"
);
},
{
closed = 1;
nodes = (
"40 550 LINE",
"40 450 LINE",
"130 450 LINE",
"130 550 LINE",
"120 550 LINE",
"120 460 LINE",
"90 460 LINE",
"90 515 LINE",
"80 515 LINE",
"80 460 LINE",
"50 460 LINE",
"50 550 LINE"
);
},
{
closed = 1;
nodes = (
"220 520 LINE",
"220 550 LINE",
"185 550 LINE",
"185 520 LINE",
"170 520 LINE",
"170 490 LINE",
"155 490 LINE",
"155 450 LINE",
"165 450 LINE",
"165 480 LINE",
"240 480 LINE",
"240 450 LINE",
"250 450 LINE",
"250 490 LINE",
"235 490 LINE",
"235 520 LINE"
);
},
{
closed = 1;
nodes = (
"295 540 LINE",
"295 510 LINE",
"310 510 LINE",
"310 480 LINE",
"325 480 LINE",
"325 450 LINE",
"355 450 LINE",
"355 550 LINE",
"345 550 LINE",
"345 460 LINE",
"335 460 LINE",
"335 490 LINE",
"320 490 LINE",
"320 520 LINE",
"305 520 LINE",
"305 550 LINE",
"275 550 LINE",
"275 450 LINE",
"285 450 LINE",
"285 540 LINE"
);
},
{
closed = 1;
nodes = (
"420 540 LINE",
"455 540 LINE",
"455 550 LINE",
"375 550 LINE",
"375 540 LINE",
"410 540 LINE",
"410 450 LINE",
"420 450 LINE"
);
},
{
closed = 1;
nodes = (
"515 540 LINE",
"515 510 LINE",
"530 510 LINE",
"530 480 LINE",
"545 480 LINE",
"545 450 LINE",
"555 450 LINE",
"555 480 LINE",
"570 480 LINE",
"570 510 LINE",
"585 510 LINE",
"585 540 LINE",
"595 540 LINE",
"595 450 LINE",
"605 450 LINE",
"605 550 LINE",
"575 550 LINE",
"575 520 LINE",
"560 520 LINE",
"560 490 LINE",
"540 490 LINE",
"540 520 LINE",
"525 520 LINE",
"525 550 LINE",
"495 550 LINE",
"495 450 LINE",
"505 450 LINE",
"505 540 LINE"
);
},
{
closed = 1;
nodes = (
"635 550 LINE",
"635 450 LINE",
"710 450 LINE",
"710 550 LINE"
);
},
{
closed = 1;
nodes = (
"790 550 LINE",
"735 550 LINE",
"735 450 LINE",
"745 450 LINE",
"745 490 LINE",
"810 490 LINE",
"810 450 LINE",
"820 450 LINE",
"820 500 LINE",
"790 500 LINE"
);
},
{
closed = 1;
nodes = (
"840 550 LINE",
"840 450 LINE",
"910 450 LINE",
"910 460 LINE",
"850 460 LINE",
"850 495 LINE",
"890 495 LINE",
"890 505 LINE",
"850 505 LINE",
"850 540 LINE",
"910 540 LINE",
"910 550 LINE"
);
},
{
closed = 1;
nodes = (
"195 510 LINE",
"195 540 LINE",
"210 540 LINE",
"210 510 LINE",
"225 510 LINE",
"225 490 LINE",
"180 490 LINE",
"180 510 LINE"
);
},
{
closed = 1;
nodes = (
"700 540 LINE",
"700 460 LINE",
"645 460 LINE",
"645 540 LINE"
);
},
{
closed = 1;
nodes = (
"780 500 LINE",
"745 500 LINE",
"745 540 LINE",
"780 540 LINE"
);
},
{
closed = 1;
nodes = (
"935 435 LINE",
"945 435 LINE",
"945 465 LINE",
"930 465 LINE",
"930 450 LINE",
"935 450 LINE"
);
},
{
closed = 1;
nodes = (
"50 345 LINE",
"90 345 LINE",
"90 355 LINE",
"50 355 LINE",
"50 390 LINE",
"110 390 LINE",
"110 400 LINE",
"40 400 LINE",
"40 300 LINE",
"50 300 LINE"
);
},
{
closed = 1;
nodes = (
"130 400 LINE",
"130 300 LINE",
"205 300 LINE",
"205 400 LINE"
);
},
{
closed = 1;
nodes = (
"290 400 LINE",
"235 400 LINE",
"235 300 LINE",
"245 300 LINE",
"245 340 LINE",
"310 340 LINE",
"310 300 LINE",
"320 300 LINE",
"320 350 LINE",
"290 350 LINE"
);
},
{
closed = 1;
nodes = (
"370 345 LINE",
"370 330 LINE",
"395 330 LINE",
"395 300 LINE",
"420 300 LINE",
"420 310 LINE",
"405 310 LINE",
"405 340 LINE",
"380 340 LINE",
"380 360 LINE",
"405 360 LINE",
"405 390 LINE",
"420 390 LINE",
"420 400 LINE",
"395 400 LINE",
"395 370 LINE",
"370 370 LINE",
"370 355 LINE",
"355 355 LINE",
"355 400 LINE",
"345 400 LINE",
"345 300 LINE",
"355 300 LINE",
"355 345 LINE"
);
},
{
closed = 1;
nodes = (
"505 390 LINE",
"505 360 LINE",
"520 360 LINE",
"520 330 LINE",
"535 330 LINE",
"535 300 LINE",
"545 300 LINE",
"545 330 LINE",
"560 330 LINE",
"560 360 LINE",
"575 360 LINE",
"575 390 LINE",
"585 390 LINE",
"585 300 LINE",
"595 300 LINE",
"595 400 LINE",
"565 400 LINE",
"565 370 LINE",
"550 370 LINE",
"550 340 LINE",
"530 340 LINE",
"530 370 LINE",
"515 370 LINE",
"515 400 LINE",
"485 400 LINE",
"485 300 LINE",
"495 300 LINE",
"495 390 LINE"
);
},
{
closed = 1;
nodes = (
"630 400 LINE",
"630 300 LINE",
"700 300 LINE",
"700 310 LINE",
"640 310 LINE",
"640 345 LINE",
"680 345 LINE",
"680 355 LINE",
"640 355 LINE",
"640 390 LINE",
"700 390 LINE",
"700 400 LINE"
);
},
{
closed = 1;
nodes = (
"760 400 LINE",
"760 300 LINE",
"835 300 LINE",
"835 400 LINE"
);
},
{
closed = 1;
nodes = (
"920 400 LINE",
"865 400 LINE",
"865 300 LINE",
"875 300 LINE",
"875 340 LINE",
"940 340 LINE",
"940 300 LINE",
"950 300 LINE",
"950 350 LINE",
"920 350 LINE"
);
},
{
closed = 1;
nodes = (
"195 390 LINE",
"195 310 LINE",
"140 310 LINE",
"140 390 LINE"
);
},
{
closed = 1;
nodes = (
"280 350 LINE",
"245 350 LINE",
"245 390 LINE",
"280 390 LINE"
);
},
{
closed = 1;
nodes = (
"825 390 LINE",
"825 310 LINE",
"770 310 LINE",
"770 390 LINE"
);
},
{
closed = 1;
nodes = (
"910 350 LINE",
"875 350 LINE",
"875 390 LINE",
"910 390 LINE"
);
},
{
closed = 1;
nodes = (
"40 250 LINE",
"40 150 LINE",
"105 150 LINE",
"105 160 LINE",
"50 160 LINE",
"50 240 LINE",
"105 240 LINE",
"105 250 LINE"
);
},
{
closed = 1;
nodes = (
"130 250 LINE",
"130 150 LINE",
"205 150 LINE",
"205 250 LINE"
);
},
{
closed = 1;
nodes = (
"255 240 LINE",
"255 210 LINE",
"270 210 LINE",
"270 180 LINE",
"285 180 LINE",
"285 150 LINE",
"315 150 LINE",
"315 250 LINE",
"305 250 LINE",
"305 160 LINE",
"295 160 LINE",
"295 190 LINE",
"280 190 LINE",
"280 220 LINE",
"265 220 LINE",
"265 250 LINE",
"235 250 LINE",
"235 150 LINE",
"245 150 LINE",
"245 240 LINE"
);
},
{
closed = 1;
nodes = (
"375 240 LINE",
"410 240 LINE",
"410 250 LINE",
"330 250 LINE",
"330 240 LINE",
"365 240 LINE",
"365 150 LINE",
"375 150 LINE"
);
},
{
closed = 1;
nodes = (
"475 220 LINE",
"475 250 LINE",
"440 250 LINE",
"440 220 LINE",
"425 220 LINE",
"425 190 LINE",
"410 190 LINE",
"410 150 LINE",
"420 150 LINE",
"420 180 LINE",
"495 180 LINE",
"495 150 LINE",
"505 150 LINE",
"505 190 LINE",
"490 190 LINE",
"490 220 LINE"
);
},
{
closed = 1;
nodes = (
"525 250 LINE",
"525 150 LINE",
"590 150 LINE",
"590 160 LINE",
"535 160 LINE",
"535 240 LINE",
"590 240 LINE",
"590 250 LINE"
);
},
{
closed = 1;
nodes = (
"655 240 LINE",
"690 240 LINE",
"690 250 LINE",
"610 250 LINE",
"610 240 LINE",
"645 240 LINE",
"645 150 LINE",
"655 150 LINE"
);
},
{
closed = 1;
nodes = (
"710 250 LINE",
"710 150 LINE",
"950 150 LINE",
"950 250 LINE"
);
},
{
closed = 1;
nodes = (
"195 240 LINE",
"195 160 LINE",
"140 160 LINE",
"140 240 LINE"
);
},
{
closed = 1;
nodes = (
"450 210 LINE",
"450 240 LINE",
"465 240 LINE",
"465 210 LINE",
"480 210 LINE",
"480 190 LINE",
"435 190 LINE",
"435 210 LINE"
);
},
{
closed = 1;
nodes = (
"90 30 LINE",
"105 30 LINE",
"105 60 LINE",
"120 60 LINE",
"120 90 LINE",
"135 90 LINE",
"135 100 LINE",
"110 100 LINE",
"110 70 LINE",
"95 70 LINE",
"95 40 LINE",
"75 40 LINE",
"75 70 LINE",
"60 70 LINE",
"60 100 LINE",
"35 100 LINE",
"35 90 LINE",
"50 90 LINE",
"50 60 LINE",
"65 60 LINE",
"65 30 LINE",
"80 30 LINE",
"80 0 LINE",
"90 0 LINE"
);
},
{
closed = 1;
nodes = (
"155 100 LINE",
"155 0 LINE",
"225 0 LINE",
"225 10 LINE",
"165 10 LINE",
"165 45 LINE",
"205 45 LINE",
"205 55 LINE",
"165 55 LINE",
"165 90 LINE",
"225 90 LINE",
"225 100 LINE"
);
},
{
closed = 1;
nodes = (
"255 100 LINE",
"255 0 LINE",
"325 0 LINE",
"325 10 LINE",
"265 10 LINE",
"265 100 LINE"
);
},
{
closed = 1;
nodes = (
"365 30 LINE",
"380 30 LINE",
"380 60 LINE",
"395 60 LINE",
"395 90 LINE",
"410 90 LINE",
"410 100 LINE",
"385 100 LINE",
"385 70 LINE",
"370 70 LINE",
"370 40 LINE",
"350 40 LINE",
"350 70 LINE",
"335 70 LINE",
"335 100 LINE",
"310 100 LINE",
"310 90 LINE",
"325 90 LINE",
"325 60 LINE",
"340 60 LINE",
"340 30 LINE",
"355 30 LINE",
"355 0 LINE",
"365 0 LINE"
);
},
{
closed = 1;
nodes = (
"430 100 LINE",
"430 0 LINE",
"500 0 LINE",
"500 10 LINE",
"440 10 LINE",
"440 45 LINE",
"480 45 LINE",
"480 55 LINE",
"440 55 LINE",
"440 90 LINE",
"500 90 LINE",
"500 100 LINE"
);
},
{
closed = 1;
nodes = (
"565 90 LINE",
"600 90 LINE",
"600 100 LINE",
"520 100 LINE",
"520 90 LINE",
"555 90 LINE",
"555 0 LINE",
"565 0 LINE"
);
},
{
closed = 1;
nodes = (
"665 45 LINE",
"700 45 LINE",
"700 100 LINE",
"690 100 LINE",
"690 55 LINE",
"630 55 LINE",
"630 100 LINE",
"620 100 LINE",
"620 45 LINE",
"655 45 LINE",
"655 0 LINE",
"665 0 LINE"
);
},
{
closed = 1;
nodes = (
"740 90 LINE",
"740 60 LINE",
"755 60 LINE",
"755 30 LINE",
"770 30 LINE",
"770 0 LINE",
"800 0 LINE",
"800 100 LINE",
"790 100 LINE",
"790 10 LINE",
"780 10 LINE",
"780 40 LINE",
"765 40 LINE",
"765 70 LINE",
"750 70 LINE",
"750 100 LINE",
"720 100 LINE",
"720 0 LINE",
"730 0 LINE",
"730 90 LINE"
);
},
{
closed = 1;
nodes = (
"825 100 LINE",
"825 0 LINE",
"895 0 LINE",
"895 10 LINE",
"835 10 LINE",
"835 45 LINE",
"875 45 LINE",
"875 55 LINE",
"835 55 LINE",
"835 90 LINE",
"895 90 LINE",
"895 100 LINE"
);
},
{
closed = 1;
nodes = (
"80 -105 LINE",
"120 -105 LINE",
"120 -95 LINE",
"80 -95 LINE",
"80 -60 LINE",
"140 -60 LINE",
"140 -50 LINE",
"70 -50 LINE",
"70 -150 LINE",
"80 -150 LINE"
);
},
{
closed = 1;
nodes = (
"220 -50 LINE",
"165 -50 LINE",
"165 -150 LINE",
"175 -150 LINE",
"175 -110 LINE",
"240 -110 LINE",
"240 -150 LINE",
"250 -150 LINE",
"250 -100 LINE",
"220 -100 LINE"
);
},
{
closed = 1;
nodes = (
"285 -50 LINE",
"285 -150 LINE",
"950 -150 LINE",
"950 -50 LINE"
);
},
{
closed = 1;
nodes = (
"210 -100 LINE",
"175 -100 LINE",
"175 -60 LINE",
"210 -60 LINE"
);
},
{
closed = 1;
nodes = (
"30 -135 LINE",
"30 -150 LINE",
"45 -150 LINE",
"45 -135 LINE"
);
}
);
width = 1000;
}
);
note = .notdef;
},
{
glyphname = A;
lastChange = "2019-07-17 18:30:08 +0000";
layers = (
{
hints = (
{
horizontal = 1;
place = "{6.98, 61.55}";
type = Stem;
},
{
horizontal = 1;
place = "{198, 69}";
type = Stem;
},
{
horizontal = 1;
place = "{293.45, 79.82}";
type = Stem;
},
{
horizontal = 1;
place = "{394.88, 42.37}";
type = Stem;
},
{
horizontal = 1;
place = "{605.88, 84.98}";
type = Stem;
},
{
place = "{29.96, 74.04}";
type = Stem;
},
{
place = "{196.02, 48.98}";
type = Stem;
},
{
place = "{398.12, 66.67}";
type = Stem;
},
{
place = "{84.38, 89.12}";
type = Stem;
},
{
place = "{468.24, 47.44}";
type = Stem;
},
{
place = "{126.05, 54.19}";
type = Stem;
},
{
place = "{399.27, 41.96}";
type = Stem;
}
);
layerId = "B4EEB2EB-BE69-455B-9E3C-B597DC09858D";
paths = (
{
closed = 1;
nodes = (
"483 335 OFFCURVE",
"485 405 OFFCURVE",
"394 532 CURVE SMOOTH",
"303 659 OFFCURVE",
"273 721 OFFCURVE",
"219 677 CURVE SMOOTH",
"165 633 OFFCURVE",
"227 583 OFFCURVE",
"178 523 CURVE SMOOTH",
"129 463 OFFCURVE",
"60 399 OFFCURVE",
"93 348 CURVE",
"111 314 OFFCURVE",
"148 288 OFFCURVE",
"110 242 CURVE SMOOTH",
"72 195 OFFCURVE",
"60 187 OFFCURVE",
"48 147 CURVE SMOOTH",
"41 124 OFFCURVE",
"38 64 OFFCURVE",
"32 41 CURVE SMOOTH",
"21 0 OFFCURVE",
"58 20 OFFCURVE",
"65 20 CURVE SMOOTH",
"72 20 OFFCURVE",
"103 -4 OFFCURVE",
"104 24 CURVE SMOOTH",
"105 53 OFFCURVE",
"96 138 OFFCURVE",
"123 172 CURVE SMOOTH",
"150 205 OFFCURVE",
"212 224 OFFCURVE",
"205 266 CURVE SMOOTH",
"194 329 OFFCURVE",
"164 330 OFFCURVE",
"191 351 CURVE",
"218 369 LINE SMOOTH",
"260 396 OFFCURVE",
"284 416 OFFCURVE",
"303 354 CURVE SMOOTH",
"311 328 OFFCURVE",
"361 272 OFFCURVE",
"419 302 CURVE SMOOTH"
);
},
{
closed = 1;
nodes = (
"311 450 OFFCURVE",
"286 442 OFFCURVE",
"225 424 CURVE SMOOTH",
"158 404 OFFCURVE",
"153 430 OFFCURVE",
"230 511 CURVE SMOOTH",
"253 535 OFFCURVE",
"243 545 OFFCURVE",
"242 574 CURVE SMOOTH",
"241 604 OFFCURVE",
"275 630 OFFCURVE",
"308 571 CURVE SMOOTH",
"340 513 OFFCURVE",
"359 476 OFFCURVE",
"387 440 CURVE SMOOTH",
"419 399 OFFCURVE",
"375 341 OFFCURVE",
"343 395 CURVE SMOOTH"
);
},
{
closed = 1;
nodes = (
"476 234 OFFCURVE",
"467 264 OFFCURVE",
"439 267 CURVE SMOOTH",
"380 273 OFFCURVE",
"368 247 OFFCURVE",
"392 164 CURVE SMOOTH",
"416 80 OFFCURVE",
"374 90 OFFCURVE",
"372 52 CURVE SMOOTH",
"370 14 OFFCURVE",
"439 -11 OFFCURVE",
"478 22 CURVE SMOOTH",
"518 55 OFFCURVE",
"527 108 OFFCURVE",
"501 172 CURVE SMOOTH"
);
},
{
closed = 1;
nodes = (
"449 56 OFFCURVE",
"427 69 OFFCURVE",
"439 94 CURVE SMOOTH",
"448 113 OFFCURVE",
"429 154 OFFCURVE",
"429 176 CURVE SMOOTH",
"429 210 OFFCURVE",
"458 198 OFFCURVE",
"457 184 CURVE SMOOTH",
"453 132 OFFCURVE",
"478 113 OFFCURVE",
"464 85 CURVE SMOOTH"
);
}
);
width = 546;
}
);
note = A;
unicode = 0041;
},
{
glyphname = Aacute;
lastChange = "2019-07-17 18:30:08 +0000";
layers = (
{
hints = (
{
horizontal = 1;
place = "{6.98, 61.55}";
type = Stem;
},
{
horizontal = 1;
place = "{198, 69}";
type = Stem;
},
{
horizontal = 1;
place = "{394.88, 42.37}";
type = Stem;
},
{
horizontal = 1;
place = "{605.88, 84.98}";
type = Stem;
},
{
horizontal = 1;
place = "{732, 58}";
type = Stem;
},
{
place = "{29.96, 74.04}";
type = Stem;
},
{
place = "{196.02, 48.98}";
type = Stem;
},
{
place = "{468.24, 47.44}";
type = Stem;
},
{
horizontal = 1;
place = "{293.45, 79.82}";
type = Stem;
},
{
place = "{398.12, 66.67}";
type = Stem;
},
{
place = "{84.38, 89.12}";
type = Stem;
},
{
place = "{126.05, 54.19}";
type = Stem;
},
{
place = "{399.27, 41.96}";
type = Stem;
}
);
layerId = "B4EEB2EB-BE69-455B-9E3C-B597DC09858D";
paths = (
{
closed = 1;
nodes = (
"172 732 OFFCURVE",
"224 748 OFFCURVE",
"261 771 CURVE SMOOTH",
"288 788 OFFCURVE",
"332 834 OFFCURVE",
"342 846 CURVE SMOOTH",
"356 862 OFFCURVE",
"333 860 OFFCURVE",
"323 867 CURVE SMOOTH",
"310 876 OFFCURVE",
"310 895 OFFCURVE",
"285 869 CURVE SMOOTH",
"255 837 OFFCURVE",
"199 778 OFFCURVE",
"145 790 CURVE SMOOTH",
"131 793 OFFCURVE",
"144 769 OFFCURVE",
"144 758 CURVE SMOOTH",
"144 747 OFFCURVE",
"115 732 OFFCURVE",
"142 732 CURVE SMOOTH"
);
},
{
closed = 1;
nodes = (
"483 335 OFFCURVE",
"485 405 OFFCURVE",
"394 532 CURVE SMOOTH",
"303 659 OFFCURVE",
"273 721 OFFCURVE",
"219 677 CURVE SMOOTH",
"165 633 OFFCURVE",
"227 583 OFFCURVE",
"178 523 CURVE SMOOTH",
"129 463 OFFCURVE",
"60 399 OFFCURVE",
"93 348 CURVE",
"111 314 OFFCURVE",
"148 288 OFFCURVE",
"110 242 CURVE SMOOTH",
"72 195 OFFCURVE",
"60 187 OFFCURVE",
"48 147 CURVE SMOOTH",
"41 124 OFFCURVE",
"38 64 OFFCURVE",
"32 41 CURVE SMOOTH",
"21 0 OFFCURVE",
"58 20 OFFCURVE",
"65 20 CURVE SMOOTH",
"72 20 OFFCURVE",
"103 -4 OFFCURVE",
"104 24 CURVE SMOOTH",
"105 53 OFFCURVE",
"96 138 OFFCURVE",
"123 172 CURVE SMOOTH",
"150 205 OFFCURVE",
"212 224 OFFCURVE",
"205 266 CURVE SMOOTH",
"194 329 OFFCURVE",
"164 330 OFFCURVE",
"191 351 CURVE",
"218 369 LINE SMOOTH",
"260 396 OFFCURVE",
"284 416 OFFCURVE",
"303 354 CURVE SMOOTH",
"311 328 OFFCURVE",
"361 272 OFFCURVE",
"419 302 CURVE SMOOTH"
);
},
{
closed = 1;
nodes = (
"311 450 OFFCURVE",
"286 442 OFFCURVE",
"225 424 CURVE SMOOTH",
"158 404 OFFCURVE",
"153 430 OFFCURVE",
"230 511 CURVE SMOOTH",
"253 535 OFFCURVE",
"243 545 OFFCURVE",
"242 574 CURVE SMOOTH",
"241 604 OFFCURVE",
"275 630 OFFCURVE",
"308 571 CURVE SMOOTH",
"340 513 OFFCURVE",
"359 476 OFFCURVE",
"387 440 CURVE SMOOTH",
"419 399 OFFCURVE",
"375 341 OFFCURVE",
"343 395 CURVE SMOOTH"
);
},
{
closed = 1;
nodes = (
"476 234 OFFCURVE",
"467 264 OFFCURVE",
"439 267 CURVE SMOOTH",
"380 273 OFFCURVE",
"368 247 OFFCURVE",
"392 164 CURVE SMOOTH",
"416 80 OFFCURVE",
"374 90 OFFCURVE",
"372 52 CURVE SMOOTH",
"370 14 OFFCURVE",
"439 -11 OFFCURVE",
"478 22 CURVE SMOOTH",
"518 55 OFFCURVE",
"527 108 OFFCURVE",
"501 172 CURVE SMOOTH"
);
},
{
closed = 1;
nodes = (
"449 56 OFFCURVE",
"427 69 OFFCURVE",
"439 94 CURVE SMOOTH",
"448 113 OFFCURVE",
"429 154 OFFCURVE",
"429 176 CURVE SMOOTH",
"429 210 OFFCURVE",
"458 198 OFFCURVE",
"457 184 CURVE SMOOTH",
"453 132 OFFCURVE",
"478 113 OFFCURVE",
"464 85 CURVE SMOOTH"
);
}
);
width = 546;
}
);
note = Aacute;
unicode = 00C1;
},
{
glyphname = Acircumflex;
lastChange = "2019-07-17 18:30:08 +0000";
layers = (
{
hints = (
{
horizontal = 1;
place = "{6.98, 61.55}";
type = Stem;
},
{
horizontal = 1;
place = "{198, 69}";
type = Stem;
},
{
horizontal = 1;
place = "{394.88, 42.37}";
type = Stem;
},
{
horizontal = 1;
place = "{605.88, 84.98}";
type = Stem;
},
{
horizontal = 1;
place = "{856, 53.63}";
type = Stem;
},
{
place = "{29.96, 74.04}";
type = Stem;
},
{
place = "{196.02, 48.98}";
type = Stem;
},
{
place = "{468.24, 47.44}";
type = Stem;
},
{
horizontal = 1;
place = "{293.45, 79.82}";
type = Stem;
},
{
place = "{398.12, 66.67}";
type = Stem;
},
{
place = "{84.38, 89.12}";
type = Stem;
},
{
place = "{126.05, 54.19}";
type = Stem;
},
{
place = "{399.27, 41.96}";
type = Stem;
}
);
layerId = "B4EEB2EB-BE69-455B-9E3C-B597DC09858D";
paths = (
{
closed = 1;
nodes = (
"175 721 OFFCURVE",
"220 752 OFFCURVE",
"249 785 CURVE SMOOTH",
"270 809 OFFCURVE",
"293 841 OFFCURVE",
"298 856 CURVE",
"302 841 OFFCURVE",
"312 803 OFFCURVE",
"330 777 CURVE SMOOTH",
"354 742 OFFCURVE",
"395 706 OFFCURVE",
"422 693 CURVE SMOOTH",
"447 681 OFFCURVE",
"433 707 OFFCURVE",
"438 717 CURVE SMOOTH",
"443 727 OFFCURVE",
"457 743 OFFCURVE",
"443 746 CURVE SMOOTH",
"389 758 OFFCURVE",
"362 835 OFFCURVE",
"348 877 CURVE SMOOTH",
"332 922 OFFCURVE",
"317 903 OFFCURVE",
"307 904 CURVE SMOOTH",
"297 905 OFFCURVE",
"287 925 OFFCURVE",
"254 883 CURVE SMOOTH",
"235 859 OFFCURVE",
"188 769 OFFCURVE",
"133 769 CURVE SMOOTH",
"119 769 OFFCURVE",
"138 749 OFFCURVE",
"141 738 CURVE SMOOTH",
"144 727 OFFCURVE",
"121 706 OFFCURVE",
"147 713 CURVE SMOOTH"
);
},
{
closed = 1;
nodes = (
"483 335 OFFCURVE",
"485 405 OFFCURVE",
"394 532 CURVE SMOOTH",
"303 659 OFFCURVE",
"273 721 OFFCURVE",
"219 677 CURVE SMOOTH",
"165 633 OFFCURVE",
"227 583 OFFCURVE",
"178 523 CURVE SMOOTH",
"129 463 OFFCURVE",
"60 399 OFFCURVE",
"93 348 CURVE",
"111 314 OFFCURVE",
"148 288 OFFCURVE",
"110 242 CURVE SMOOTH",
"72 195 OFFCURVE",
"60 187 OFFCURVE",
"48 147 CURVE SMOOTH",
"41 124 OFFCURVE",
"38 64 OFFCURVE",
"32 41 CURVE SMOOTH",
"21 0 OFFCURVE",
"58 20 OFFCURVE",
"65 20 CURVE SMOOTH",
"72 20 OFFCURVE",
"103 -4 OFFCURVE",
"104 24 CURVE SMOOTH",
"105 53 OFFCURVE",
"96 138 OFFCURVE",
"123 172 CURVE SMOOTH",
"150 205 OFFCURVE",
"212 224 OFFCURVE",
"205 266 CURVE SMOOTH",
"194 329 OFFCURVE",
"164 330 OFFCURVE",
"191 351 CURVE",
"218 369 LINE SMOOTH",
"260 396 OFFCURVE",
"284 416 OFFCURVE",
"303 354 CURVE SMOOTH",
"311 328 OFFCURVE",
"361 272 OFFCURVE",
"419 302 CURVE SMOOTH"
);
},
{
closed = 1;
nodes = (
"311 450 OFFCURVE",
"286 442 OFFCURVE",
"225 424 CURVE SMOOTH",
"158 404 OFFCURVE",
"153 430 OFFCURVE",
"230 511 CURVE SMOOTH",
"253 535 OFFCURVE",
"243 545 OFFCURVE",
"242 574 CURVE SMOOTH",
"241 604 OFFCURVE",
"275 630 OFFCURVE",
"308 571 CURVE SMOOTH",
"340 513 OFFCURVE",
"359 476 OFFCURVE",
"387 440 CURVE SMOOTH",
"419 399 OFFCURVE",
"375 341 OFFCURVE",
"343 395 CURVE SMOOTH"
);
},
{
closed = 1;
nodes = (
"476 234 OFFCURVE",
"467 264 OFFCURVE",
"439 267 CURVE SMOOTH",
"380 273 OFFCURVE",
"368 247 OFFCURVE",
"392 164 CURVE SMOOTH",
"416 80 OFFCURVE",
"374 90 OFFCURVE",
"372 52 CURVE SMOOTH",
"370 14 OFFCURVE",
"439 -11 OFFCURVE",
"478 22 CURVE SMOOTH",
"518 55 OFFCURVE",
"527 108 OFFCURVE",
"501 172 CURVE SMOOTH"
);
},
{
closed = 1;
nodes = (
"449 56 OFFCURVE",
"427 69 OFFCURVE",
"439 94 CURVE SMOOTH",
"448 113 OFFCURVE",
"429 154 OFFCURVE",
"429 176 CURVE SMOOTH",
"429 210 OFFCURVE",
"458 198 OFFCURVE",
"457 184 CURVE SMOOTH",
"453 132 OFFCURVE",
"478 113 OFFCURVE",
"464 85 CURVE SMOOTH"
);
}
);
width = 546;
}
);
note = Acircumflex;
unicode = 00C2;
},
{
glyphname = Adieresis;
lastChange = "2019-07-17 18:30:08 +0000";
layers = (
{
hints = (
{
horizontal = 1;
place = "{772, 83}";
type = Stem;
},
{
place = "{332, 87}";
type = Stem;
},
{
horizontal = 1;
place = "{293.45, 79.82}";
type = Stem;
},
{
horizontal = 1;
place = "{773.03, 79.1}";
type = Stem;
},
{
place = "{172.5, 85.25}";
type = Stem;
},
{
place = "{398.12, 66.67}";
type = Stem;
},
{
horizontal = 1;
place = "{605.88, 84.98}";
type = Stem;
},
{
place = "{196.02, 48.98}";
type = Stem;
},
{
horizontal = 1;
place = "{198, 69}";
type = Stem;
},
{
place = "{84.38, 89.12}";
type = Stem;
},
{
place = "{126.05, 54.19}";
type = Stem;
},
{
place = "{29.96, 74.04}";
type = Stem;
},
{
horizontal = 1;
place = "{394.88, 42.37}";
type = Stem;
},
{
place = "{468.24, 47.44}";
type = Stem;
},
{
horizontal = 1;
place = "{6.98, 61.55}";
type = Stem;
},
{
place = "{399.27, 41.96}";
type = Stem;
}
);
layerId = "B4EEB2EB-BE69-455B-9E3C-B597DC09858D";
paths = (
{
closed = 1;
nodes = (
"401 772 OFFCURVE",
"419 792 OFFCURVE",
"419 808 CURVE SMOOTH",
"419 825 OFFCURVE",
"401 854 OFFCURVE",
"377 855 CURVE SMOOTH",
"355 856 OFFCURVE",
"332 833 OFFCURVE",
"332 816 CURVE SMOOTH",
"332 800 OFFCURVE",
"355 772 OFFCURVE",
"377 772 CURVE SMOOTH"
);
},
{
closed = 1;
nodes = (
"193 774 OFFCURVE",
"226 766 OFFCURVE",
"244 782 CURVE",
"259 798 OFFCURVE",
"263 832 OFFCURVE",
"252 843 CURVE SMOOTH",
"241 854 OFFCURVE",
"201 857 OFFCURVE",
"184 841 CURVE",
"168 824 OFFCURVE",
"170 796 OFFCURVE",
"182 785 CURVE"
);
},
{
closed = 1;
nodes = (
"483 335 OFFCURVE",
"485 405 OFFCURVE",
"394 532 CURVE SMOOTH",
"303 659 OFFCURVE",
"273 721 OFFCURVE",
"219 677 CURVE SMOOTH",
"165 633 OFFCURVE",
"227 583 OFFCURVE",
"178 523 CURVE SMOOTH",
"129 463 OFFCURVE",
"60 399 OFFCURVE",
"93 348 CURVE",
"111 314 OFFCURVE",
"148 288 OFFCURVE",
"110 242 CURVE SMOOTH",
"72 195 OFFCURVE",
"60 187 OFFCURVE",
"48 147 CURVE SMOOTH",
"41 124 OFFCURVE",
"38 64 OFFCURVE",
"32 41 CURVE SMOOTH",
"21 0 OFFCURVE",
"58 20 OFFCURVE",
"65 20 CURVE SMOOTH",
"72 20 OFFCURVE",
"103 -4 OFFCURVE",
"104 24 CURVE SMOOTH",
"105 53 OFFCURVE",
"96 138 OFFCURVE",
"123 172 CURVE SMOOTH",
"150 205 OFFCURVE",
"212 224 OFFCURVE",
"205 266 CURVE SMOOTH",
"194 329 OFFCURVE",
"164 330 OFFCURVE",
"191 351 CURVE",
"218 369 LINE SMOOTH",
"260 396 OFFCURVE",
"284 416 OFFCURVE",
"303 354 CURVE SMOOTH",
"311 328 OFFCURVE",
"361 272 OFFCURVE",
"419 302 CURVE SMOOTH"
);
},
{
closed = 1;
nodes = (
"311 450 OFFCURVE",
"286 442 OFFCURVE",
"225 424 CURVE SMOOTH",
"158 404 OFFCURVE",
"153 430 OFFCURVE",
"230 511 CURVE SMOOTH",
"253 535 OFFCURVE",
"243 545 OFFCURVE",
"242 574 CURVE SMOOTH",
"241 604 OFFCURVE",
"275 630 OFFCURVE",
"308 571 CURVE SMOOTH",
"340 513 OFFCURVE",
"359 476 OFFCURVE",
"387 440 CURVE SMOOTH",
"419 399 OFFCURVE",
"375 341 OFFCURVE",
"343 395 CURVE SMOOTH"
);
},
{
closed = 1;
nodes = (
"476 234 OFFCURVE",
"467 264 OFFCURVE",
"439 267 CURVE SMOOTH",
"380 273 OFFCURVE",
"368 247 OFFCURVE",
"392 164 CURVE SMOOTH",
"416 80 OFFCURVE",
"374 90 OFFCURVE",
"372 52 CURVE SMOOTH",
"370 14 OFFCURVE",
"439 -11 OFFCURVE",
"478 22 CURVE SMOOTH",
"518 55 OFFCURVE",
"527 108 OFFCURVE",
"501 172 CURVE SMOOTH"
);
},
{
closed = 1;
nodes = (
"449 56 OFFCURVE",
"427 69 OFFCURVE",
"439 94 CURVE SMOOTH",
"448 113 OFFCURVE",
"429 154 OFFCURVE",
"429 176 CURVE SMOOTH",
"429 210 OFFCURVE",
"458 198 OFFCURVE",
"457 184 CURVE SMOOTH",
"453 132 OFFCURVE",
"478 113 OFFCURVE",
"464 85 CURVE SMOOTH"
);
}
);
width = 546;
}
);
note = Adieresis;
unicode = 00C4;
},
{
glyphname = Agrave;
lastChange = "2019-07-17 18:30:08 +0000";
layers = (
{
hints = (
{
horizontal = 1;
place = "{6.98, 61.55}";
type = Stem;
},
{
horizontal = 1;
place = "{198, 69}";
type = Stem;
},
{
horizontal = 1;
place = "{394.88, 42.37}";
type = Stem;
},
{
horizontal = 1;
place = "{605.88, 84.98}";
type = Stem;
},
{
horizontal = 1;
place = "{724, 58}";
type = Stem;
},
{
place = "{29.96, 74.04}";
type = Stem;
},
{
place = "{196.02, 48.98}";
type = Stem;
},
{
place = "{468.24, 47.44}";
type = Stem;
},
{
horizontal = 1;
place = "{293.45, 79.82}";
type = Stem;
},
{
place = "{398.12, 66.67}";
type = Stem;
},
{
place = "{84.38, 89.12}";
type = Stem;
},
{
place = "{126.05, 54.19}";
type = Stem;
},
{
place = "{399.27, 41.96}";
type = Stem;
}
);
layerId = "B4EEB2EB-BE69-455B-9E3C-B597DC09858D";
paths = (
{
closed = 1;
nodes = (
"281 740 OFFCURVE",
"333 724 OFFCURVE",
"363 724 CURVE SMOOTH",
"390 724 OFFCURVE",
"361 739 OFFCURVE",
"361 750 CURVE SMOOTH",
"361 761 OFFCURVE",
"374 785 OFFCURVE",
"360 782 CURVE SMOOTH",
"306 770 OFFCURVE",
"250 829 OFFCURVE",
"220 861 CURVE SMOOTH",
"195 887 OFFCURVE",
"195 868 OFFCURVE",
"182 859 CURVE SMOOTH",
"172 852 OFFCURVE",
"149 854 OFFCURVE",
"163 838 CURVE SMOOTH",
"173 826 OFFCURVE",
"217 780 OFFCURVE",
"244 763 CURVE SMOOTH"
);
},
{
closed = 1;
nodes = (
"483 335 OFFCURVE",
"485 405 OFFCURVE",
"394 532 CURVE SMOOTH",
"303 659 OFFCURVE",
"273 721 OFFCURVE",
"219 677 CURVE SMOOTH",
"165 633 OFFCURVE",
"227 583 OFFCURVE",
"178 523 CURVE SMOOTH",
"129 463 OFFCURVE",
"60 399 OFFCURVE",
"93 348 CURVE",
"111 314 OFFCURVE",
"148 288 OFFCURVE",
"110 242 CURVE SMOOTH",
"72 195 OFFCURVE",
"60 187 OFFCURVE",
"48 147 CURVE SMOOTH",
"41 124 OFFCURVE",
"38 64 OFFCURVE",
"32 41 CURVE SMOOTH",
"21 0 OFFCURVE",
"58 20 OFFCURVE",
"65 20 CURVE SMOOTH",
"72 20 OFFCURVE",
"103 -4 OFFCURVE",
"104 24 CURVE SMOOTH",
"105 53 OFFCURVE",
"96 138 OFFCURVE",
"123 172 CURVE SMOOTH",
"150 205 OFFCURVE",
"212 224 OFFCURVE",
"205 266 CURVE SMOOTH",
"194 329 OFFCURVE",
"164 330 OFFCURVE",
"191 351 CURVE",
"218 369 LINE SMOOTH",
"260 396 OFFCURVE",
"284 416 OFFCURVE",
"303 354 CURVE SMOOTH",
"311 328 OFFCURVE",
"361 272 OFFCURVE",
"419 302 CURVE SMOOTH"
);
},
{
closed = 1;
nodes = (
"311 450 OFFCURVE",
"286 442 OFFCURVE",
"225 424 CURVE SMOOTH",
"158 404 OFFCURVE",
"153 430 OFFCURVE",
"230 511 CURVE SMOOTH",
"253 535 OFFCURVE",
"243 545 OFFCURVE",
"242 574 CURVE SMOOTH",
"241 604 OFFCURVE",
"275 630 OFFCURVE",
"308 571 CURVE SMOOTH",
"340 513 OFFCURVE",
"359 476 OFFCURVE",
"387 440 CURVE SMOOTH",
"419 399 OFFCURVE",
"375 341 OFFCURVE",
"343 395 CURVE SMOOTH"
);
},
{
closed = 1;
nodes = (
"476 234 OFFCURVE",
"467 264 OFFCURVE",
"439 267 CURVE SMOOTH",
"380 273 OFFCURVE",
"368 247 OFFCURVE",
"392 164 CURVE SMOOTH",
"416 80 OFFCURVE",
"374 90 OFFCURVE",
"372 52 CURVE SMOOTH",
"370 14 OFFCURVE",
"439 -11 OFFCURVE",
"478 22 CURVE SMOOTH",
"518 55 OFFCURVE",
"527 108 OFFCURVE",
"501 172 CURVE SMOOTH"
);
},
{
closed = 1;
nodes = (
"449 56 OFFCURVE",
"427 69 OFFCURVE",
"439 94 CURVE SMOOTH",
"448 113 OFFCURVE",
"429 154 OFFCURVE",
"429 176 CURVE SMOOTH",
"429 210 OFFCURVE",
"458 198 OFFCURVE",
"457 184 CURVE SMOOTH",
"453 132 OFFCURVE",
"478 113 OFFCURVE",
"464 85 CURVE SMOOTH"
);
}
);
width = 546;
}
);
note = Agrave;
unicode = 00C0;
},
{
glyphname = Aring;
lastChange = "2019-07-17 18:30:08 +0000";
layers = (
{
hints = (
{
horizontal = 1;
place = "{6.98, 61.55}";
type = Stem;
},
{
horizontal = 1;
place = "{198, 69}";
type = Stem;
},
{
horizontal = 1;
place = "{394.88, 42.37}";
type = Stem;
},
{
horizontal = 1;
place = "{605.88, 84.98}";
type = Stem;
},
{
horizontal = 1;
place = "{741, 48.25}";
type = Stem;
},
{
horizontal = 1;
place = "{849.38, 36.1}";
type = Stem;
},
{
place = "{29.96, 74.04}";
type = Stem;
},
{
place = "{196.02, 48.98}";
type = Stem;
},
{
place = "{468.24, 47.44}";
type = Stem;
},
{
horizontal = 1;
place = "{293.45, 79.82}";
type = Stem;
},
{
place = "{398.12, 66.67}";
type = Stem;
},
{
place = "{84.38, 89.12}";
type = Stem;
},
{
place = "{126.05, 54.19}";
type = Stem;
},
{
place = "{399.27, 41.96}";
type = Stem;
}
);
layerId = "B4EEB2EB-BE69-455B-9E3C-B597DC09858D";
paths = (
{
closed = 1;
nodes = (
"280 742 OFFCURVE",
"316 771 OFFCURVE",
"307 823 CURVE SMOOTH",
"298 876 OFFCURVE",
"235 893 OFFCURVE",
"205 883 CURVE SMOOTH",
"175 873 OFFCURVE",
"158 841 OFFCURVE",
"165 816 CURVE SMOOTH",
"172 791 OFFCURVE",
"212 740 OFFCURVE",
"246 741 CURVE SMOOTH"
);
},
{
closed = 1;
nodes = (
"220 851 OFFCURVE",
"243 855 OFFCURVE",
"261 839 CURVE SMOOTH",
"271 830 OFFCURVE",
"277 813 OFFCURVE",
"275 799 CURVE SMOOTH",
"273 785 OFFCURVE",
"246 789 OFFCURVE",
"225 793 CURVE SMOOTH",
"204 797 OFFCURVE",
"199 824 OFFCURVE",
"210 838 CURVE SMOOTH"
);
},
{
closed = 1;
nodes = (
"483 335 OFFCURVE",
"485 405 OFFCURVE",
"394 532 CURVE SMOOTH",
"303 659 OFFCURVE",
"273 721 OFFCURVE",
"219 677 CURVE SMOOTH",
"165 633 OFFCURVE",
"227 583 OFFCURVE",
"178 523 CURVE SMOOTH",
"129 463 OFFCURVE",
"60 399 OFFCURVE",
"93 348 CURVE",
"111 314 OFFCURVE",
"148 288 OFFCURVE",
"110 242 CURVE SMOOTH",
"72 195 OFFCURVE",
"60 187 OFFCURVE",
"48 147 CURVE SMOOTH",
"41 124 OFFCURVE",
"38 64 OFFCURVE",
"32 41 CURVE SMOOTH",
"21 0 OFFCURVE",
"58 20 OFFCURVE",
"65 20 CURVE SMOOTH",
"72 20 OFFCURVE",
"103 -4 OFFCURVE",
"104 24 CURVE SMOOTH",
"105 53 OFFCURVE",
"96 138 OFFCURVE",
"123 172 CURVE SMOOTH",
"150 205 OFFCURVE",
"212 224 OFFCURVE",
"205 266 CURVE SMOOTH",
"194 329 OFFCURVE",
"164 330 OFFCURVE",
"191 351 CURVE",
"218 369 LINE SMOOTH",
"260 396 OFFCURVE",
"284 416 OFFCURVE",
"303 354 CURVE SMOOTH",
"311 328 OFFCURVE",
"361 272 OFFCURVE",
"419 302 CURVE SMOOTH"
);
},
{
closed = 1;
nodes = (
"311 450 OFFCURVE",
"286 442 OFFCURVE",
"225 424 CURVE SMOOTH",
"158 404 OFFCURVE",
"153 430 OFFCURVE",
"230 511 CURVE SMOOTH",
"253 535 OFFCURVE",
"243 545 OFFCURVE",
"242 574 CURVE SMOOTH",
"241 604 OFFCURVE",
"275 630 OFFCURVE",
"308 571 CURVE SMOOTH",
"340 513 OFFCURVE",
"359 476 OFFCURVE",
"387 440 CURVE SMOOTH",
"419 399 OFFCURVE",
"375 341 OFFCURVE",
"343 395 CURVE SMOOTH"
);
},
{
closed = 1;
nodes = (
"476 234 OFFCURVE",
"467 264 OFFCURVE",
"439 267 CURVE SMOOTH",
"380 273 OFFCURVE",
"368 247 OFFCURVE",
"392 164 CURVE SMOOTH",
"416 80 OFFCURVE",
"374 90 OFFCURVE",
"372 52 CURVE SMOOTH",
"370 14 OFFCURVE",
"439 -11 OFFCURVE",
"478 22 CURVE SMOOTH",
"518 55 OFFCURVE",
"527 108 OFFCURVE",
"501 172 CURVE SMOOTH"
);
},
{
closed = 1;
nodes = (
"449 56 OFFCURVE",
"427 69 OFFCURVE",
"439 94 CURVE SMOOTH",
"448 113 OFFCURVE",
"429 154 OFFCURVE",
"429 176 CURVE SMOOTH",
"429 210 OFFCURVE",
"458 198 OFFCURVE",
"457 184 CURVE SMOOTH",
"453 132 OFFCURVE",
"478 113 OFFCURVE",
"464 85 CURVE SMOOTH"
);
}
);
width = 546;
}
);
note = Aring;
unicode = 00C5;
},
{
glyphname = Atilde;
lastChange = "2019-07-17 18:30:08 +0000";
layers = (
{
hints = (
{
horizontal = 1;
place = "{6.98, 61.55}";
type = Stem;
},
{
horizontal = 1;
place = "{198, 69}";
type = Stem;
},
{
horizontal = 1;
place = "{394.88, 42.37}";
type = Stem;
},
{
horizontal = 1;
place = "{605.88, 84.98}";
type = Stem;
},
{
horizontal = 1;
place = "{730.2, 56.87}";
type = Stem;
},
{
horizontal = 1;
place = "{859.66, 52.34}";
type = Stem;
},
{
place = "{29.96, 74.04}";
type = Stem;
},
{
place = "{146, 51}";
type = Stem;
},
{
place = "{346.1, 51.9}";
type = Stem;
},
{
place = "{468.24, 47.44}";
type = Stem;
},
{
horizontal = 1;
place = "{293.45, 79.82}";
type = Stem;
},
{
place = "{196.02, 48.98}";
type = Stem;
},
{
place = "{398.12, 66.67}";
type = Stem;
},
{
place = "{84.38, 89.12}";
type = Stem;
},
{
place = "{126.05, 54.19}";
type = Stem;
},
{
place = "{399.27, 41.96}";
type = Stem;
}
);
layerId = "B4EEB2EB-BE69-455B-9E3C-B597DC09858D";
paths = (
{
closed = 1;
nodes = (
"135 757 OFFCURVE",
"143 741 OFFCURVE",
"152 756 CURVE SMOOTH",
"159 768 OFFCURVE",
"193 817 OFFCURVE",
"197 852 CURVE SMOOTH",
"198 861 OFFCURVE",
"215 870 OFFCURVE",
"225 832 CURVE SMOOTH",
"230 812 OFFCURVE",
"228 776 OFFCURVE",
"245 759 CURVE SMOOTH",
"275 729 OFFCURVE",
"315 717 OFFCURVE",
"345 749 CURVE SMOOTH",
"369 774 OFFCURVE",
"398 807 OFFCURVE",
"398 842 CURVE SMOOTH",
"398 879 OFFCURVE",
"397 887 OFFCURVE",
"386 905 CURVE SMOOTH",
"376 922 OFFCURVE",
"369 905 OFFCURVE",
"361 905 CURVE SMOOTH",
"350 905 OFFCURVE",
"330 921 OFFCURVE",
"332 902 CURVE SMOOTH",
"333 893 OFFCURVE",
"353 865 OFFCURVE",
"344 839 CURVE SMOOTH",
"328 792 OFFCURVE",
"286 764 OFFCURVE",
"276 812 CURVE SMOOTH",
"271 836 OFFCURVE",
"266 861 OFFCURVE",
"258 877 CURVE SMOOTH",
"241 911 OFFCURVE",
"214 917 OFFCURVE",
"186 912 CURVE SMOOTH",
"165 908 OFFCURVE",
"146 885 OFFCURVE",
"146 856 CURVE SMOOTH",
"146 823 OFFCURVE",
"122 793 OFFCURVE",
"115 786 CURVE SMOOTH",
"92 763 OFFCURVE",
"124 768 OFFCURVE",
"130 762 CURVE SMOOTH"
);
},
{
closed = 1;
nodes = (
"483 335 OFFCURVE",
"485 405 OFFCURVE",
"394 532 CURVE SMOOTH",
"303 659 OFFCURVE",
"273 721 OFFCURVE",
"219 677 CURVE SMOOTH",
"165 633 OFFCURVE",
"227 583 OFFCURVE",
"178 523 CURVE SMOOTH",
"129 463 OFFCURVE",
"60 399 OFFCURVE",
"93 348 CURVE",
"111 314 OFFCURVE",
"148 288 OFFCURVE",
"110 242 CURVE SMOOTH",
"72 195 OFFCURVE",
"60 187 OFFCURVE",
"48 147 CURVE SMOOTH",
"41 124 OFFCURVE",
"38 64 OFFCURVE",
"32 41 CURVE SMOOTH",
"21 0 OFFCURVE",
"58 20 OFFCURVE",
"65 20 CURVE SMOOTH",
"72 20 OFFCURVE",
"103 -4 OFFCURVE",
"104 24 CURVE SMOOTH",
"105 53 OFFCURVE",
"96 138 OFFCURVE",
"123 172 CURVE SMOOTH",
"150 205 OFFCURVE",
"212 224 OFFCURVE",
"205 266 CURVE SMOOTH",
"194 329 OFFCURVE",
"164 330 OFFCURVE",
"191 351 CURVE",
"218 369 LINE SMOOTH",
"260 396 OFFCURVE",
"284 416 OFFCURVE",
"303 354 CURVE SMOOTH",
"311 328 OFFCURVE",
"361 272 OFFCURVE",
"419 302 CURVE SMOOTH"
);
},
{
closed = 1;
nodes = (
"311 450 OFFCURVE",
"286 442 OFFCURVE",
"225 424 CURVE SMOOTH",
"158 404 OFFCURVE",
"153 430 OFFCURVE",
"230 511 CURVE SMOOTH",
"253 535 OFFCURVE",
"243 545 OFFCURVE",
"242 574 CURVE SMOOTH",
"241 604 OFFCURVE",
"275 630 OFFCURVE",
"308 571 CURVE SMOOTH",
"340 513 OFFCURVE",
"359 476 OFFCURVE",
"387 440 CURVE SMOOTH",
"419 399 OFFCURVE",
"375 341 OFFCURVE",
"343 395 CURVE SMOOTH"
);
},
{
closed = 1;
nodes = (
"476 234 OFFCURVE",
"467 264 OFFCURVE",
"439 267 CURVE SMOOTH",
"380 273 OFFCURVE",
"368 247 OFFCURVE",
"392 164 CURVE SMOOTH",
"416 80 OFFCURVE",
"374 90 OFFCURVE",
"372 52 CURVE SMOOTH",
"370 14 OFFCURVE",
"439 -11 OFFCURVE",
"478 22 CURVE SMOOTH",
"518 55 OFFCURVE",
"527 108 OFFCURVE",
"501 172 CURVE SMOOTH"
);
},
{
closed = 1;
nodes = (
"449 56 OFFCURVE",
"427 69 OFFCURVE",
"439 94 CURVE SMOOTH",
"448 113 OFFCURVE",
"429 154 OFFCURVE",
"429 176 CURVE SMOOTH",
"429 210 OFFCURVE",
"458 198 OFFCURVE",
"457 184 CURVE SMOOTH",
"453 132 OFFCURVE",
"478 113 OFFCURVE",
"464 85 CURVE SMOOTH"
);
}
);
width = 546;
}
);
note = Atilde;
unicode = 00C3;
},
{
glyphname = AE;
lastChange = "2019-07-17 18:30:08 +0000";
layers = (
{
hints = (
{
horizontal = 1;
place = "{6.98, 61.55}";
type = Stem;
},
{
horizontal = 1;
place = "{198, 69}";
type = Stem;
},
{
horizontal = 1;
place = "{293.45, 79.82}";
type = Stem;
},
{
horizontal = 1;
place = "{394.88, 42.37}";
type = Stem;
},
{
horizontal = 1;
place = "{494.91, 68.09}";
type = Stem;
},
{
horizontal = 1;
place = "{659.38, 48.17}";
type = Stem;
},
{
place = "{29.96, 74.04}";
type = Stem;
},
{
place = "{202.59, 42.41}";
type = Stem;
},
{
place = "{398.12, 61.88}";
type = Stem;
},
{
place = "{640.23, 69.23}";
type = Stem;
},
{
horizontal = 1;
place = "{636.84, 47.65}";
type = Stem;
},
{
place = "{399.27, 41.96}";
type = Stem;
},
{
horizontal = 1;
place = "{605.88, 90.12}";
type = Stem;
},
{
place = "{84.38, 89.12}";
type = Stem;
},
{
place = "{126.05, 54.19}";
type = Stem;
},
{
place = "{468.24, 47.76}";
type = Stem;
}
);
layerId = "B4EEB2EB-BE69-455B-9E3C-B597DC09858D";
paths = (
{
closed = 1;
nodes = (
"476 332 OFFCURVE",
"574 327 OFFCURVE",
"646 338 CURVE SMOOTH",
"692 345 OFFCURVE",
"706 350 OFFCURVE",
"711 367 CURVE SMOOTH",
"716 383 OFFCURVE",
"692 393 OFFCURVE",
"690 400 CURVE SMOOTH",
"688 408 OFFCURVE",
"697 437 OFFCURVE",
"675 435 CURVE SMOOTH",
"648 433 OFFCURVE",
"650 412 OFFCURVE",
"634 397 CURVE SMOOTH",
"619 383 OFFCURVE",
"476 358 OFFCURVE",
"461 403 CURVE",
"460 404 OFFCURVE",
"460 405 OFFCURVE",
"460 406 CURVE",
"452 440 OFFCURVE",
"430 481 OFFCURVE",
"394 532 CURVE SMOOTH",
"367 570 OFFCURVE",
"346 602 OFFCURVE",
"329 629 CURVE",
"295 691 OFFCURVE",
"397 643 OFFCURVE",
"461 618 CURVE",
"442 596 OFFCURVE",
"422 563 OFFCURVE",
"436 549 CURVE SMOOTH",
"458 527 OFFCURVE",
"530 546 OFFCURVE",
"554 538 CURVE SMOOTH",
"579 530 OFFCURVE",
"643 480 OFFCURVE",
"672 499 CURVE SMOOTH",
"703 519 OFFCURVE",
"727 567 OFFCURVE",
"693 606 CURVE SMOOTH",
"659 646 OFFCURVE",
"656 637 OFFCURVE",
"627 665 CURVE SMOOTH",
"592 699 OFFCURVE",
"547 683 OFFCURVE",
"512 661 CURVE",
"423 701 OFFCURVE",
"309 723 OFFCURVE",
"249 696 CURVE",
"243 694 OFFCURVE",
"237 690 OFFCURVE",
"230 685 CURVE",
"176 641 OFFCURVE",
"227 583 OFFCURVE",
"178 523 CURVE SMOOTH",
"129 463 OFFCURVE",
"60 399 OFFCURVE",
"93 348 CURVE",
"111 314 OFFCURVE",
"148 288 OFFCURVE",
"110 242 CURVE SMOOTH",
"72 195 OFFCURVE",
"60 187 OFFCURVE",
"48 147 CURVE SMOOTH",
"41 124 OFFCURVE",
"38 64 OFFCURVE",
"32 41 CURVE SMOOTH",
"21 0 OFFCURVE",
"58 20 OFFCURVE",
"65 20 CURVE SMOOTH",
"72 20 OFFCURVE",
"103 -4 OFFCURVE",
"104 24 CURVE SMOOTH",
"105 53 OFFCURVE",
"96 138 OFFCURVE",
"123 172 CURVE SMOOTH",
"150 205 OFFCURVE",
"212 224 OFFCURVE",
"205 266 CURVE SMOOTH",
"194 329 OFFCURVE",
"164 330 OFFCURVE",
"191 351 CURVE",
"218 369 LINE SMOOTH",
"260 396 OFFCURVE",
"284 416 OFFCURVE",
"303 354 CURVE SMOOTH",
"311 328 OFFCURVE",
"361 272 OFFCURVE",
"419 302 CURVE SMOOTH"
);
},
{
closed = 1;
nodes = (
"618 614 OFFCURVE",
"649 601 OFFCURVE",
"638 580 CURVE SMOOTH",
"627 559 OFFCURVE",
"601 557 OFFCURVE",
"567 576 CURVE SMOOTH",
"532 596 OFFCURVE",
"512 576 OFFCURVE",
"502 590 CURVE SMOOTH",
"492 605 OFFCURVE",
"540 655 OFFCURVE",
"586 631 CURVE SMOOTH"
);
},
{
closed = 1;
nodes = (
"311 450 OFFCURVE",
"286 442 OFFCURVE",
"225 424 CURVE SMOOTH",
"158 404 OFFCURVE",
"153 430 OFFCURVE",
"230 511 CURVE SMOOTH",
"253 535 OFFCURVE",
"243 545 OFFCURVE",
"242 574 CURVE SMOOTH",
"241 604 OFFCURVE",
"275 630 OFFCURVE",
"308 571 CURVE SMOOTH",
"340 513 OFFCURVE",
"359 476 OFFCURVE",
"387 440 CURVE SMOOTH",
"419 399 OFFCURVE",
"375 341 OFFCURVE",
"343 395 CURVE SMOOTH"
);
},
{
closed = 1;
nodes = (
"714 114 OFFCURVE",
"723 143 OFFCURVE",
"701 141 CURVE SMOOTH",
"674 139 OFFCURVE",
"676 118 OFFCURVE",
"660 103 CURVE SMOOTH",
"645 89 OFFCURVE",
"514 68 OFFCURVE",
"516 99 CURVE",
"516 148 OFFCURVE",
"478 263 OFFCURVE",
"439 267 CURVE SMOOTH",
"380 273 OFFCURVE",
"368 247 OFFCURVE",
"392 164 CURVE SMOOTH",
"416 80 OFFCURVE",
"374 90 OFFCURVE",
"372 52 CURVE SMOOTH",
"370 14 OFFCURVE",
"439 -11 OFFCURVE",
"478 22 CURVE",
"506 41 OFFCURVE",
"652 37 OFFCURVE",
"672 44 CURVE SMOOTH",
"711 58 OFFCURVE",
"732 56 OFFCURVE",
"737 73 CURVE SMOOTH",
"742 89 OFFCURVE",
"718 99 OFFCURVE",
"716 106 CURVE SMOOTH"
);
},
{
closed = 1;
nodes = (
"449 56 OFFCURVE",
"427 69 OFFCURVE",
"439 94 CURVE SMOOTH",
"448 113 OFFCURVE",
"429 154 OFFCURVE",
"429 176 CURVE SMOOTH",
"429 210 OFFCURVE",
"458 198 OFFCURVE",
"457 184 CURVE SMOOTH",
"453 132 OFFCURVE",
"478 113 OFFCURVE",
"464 85 CURVE SMOOTH"
);
}
);
width = 758;
}
);
note = AE;
unicode = 00C6;
},
{
glyphname = B;
lastChange = "2019-07-17 18:30:08 +0000";
layers = (
{
hints = (
{
horizontal = 1;
place = "{374.38, 44.25}";
type = Stem;
},
{
place = "{181, 112.25}";
type = Stem;
},
{
place = "{377.49, 56.47}";
type = Stem;
},
{
horizontal = 1;
place = "{551.99, 78.01}";
type = Stem;
},
{
place = "{140, 161}";
type = Stem;
},
{
horizontal = 1;
place = "{45, 87.54}";
type = Stem;
}
);
layerId = "B4EEB2EB-BE69-455B-9E3C-B597DC09858D";
paths = (
{
closed = 1;
nodes = (
"95 92 OFFCURVE",
"138 93 OFFCURVE",
"138 144 CURVE SMOOTH",
"138 195 OFFCURVE",
"95 182 OFFCURVE",
"92 271 CURVE SMOOTH",
"89 360 OFFCURVE",
"111 464 OFFCURVE",
"102 496 CURVE SMOOTH",
"93 528 OFFCURVE",
"56 519 OFFCURVE",
"71 565 CURVE SMOOTH",
"86 611 OFFCURVE",
"77 619 OFFCURVE",
"66 647 CURVE SMOOTH",
"55 675 OFFCURVE",
"101 715 OFFCURVE",
"117 726 CURVE SMOOTH",
"133 737 OFFCURVE",
"165 725 OFFCURVE",
"166 708 CURVE SMOOTH",
"167 691 OFFCURVE",
"177 686 OFFCURVE",
"220 693 CURVE SMOOTH",
"263 700 OFFCURVE",
"447 665 OFFCURVE",
"472 624 CURVE SMOOTH",
"489 596 OFFCURVE",
"490 570 OFFCURVE",
"490 537 CURVE SMOOTH",
"490 513 OFFCURVE",
"509 467 OFFCURVE",
"507 437 CURVE SMOOTH",
"505 409 OFFCURVE",
"476 339 OFFCURVE",
"436 339 CURVE SMOOTH",
"401 339 OFFCURVE",
"351 323 OFFCURVE",
"394 316 CURVE SMOOTH",
"473 302 OFFCURVE",
"533 237 OFFCURVE",
"520 124 CURVE SMOOTH",
"507 11 OFFCURVE",
"414 8 OFFCURVE",
"341 4 CURVE SMOOTH",
"268 0 OFFCURVE",
"198 2 OFFCURVE",
"165 14 CURVE SMOOTH",
"132 26 OFFCURVE",
"122 0 OFFCURVE",
"109 -13 CURVE SMOOTH",
"88 -33 OFFCURVE",
"88 0 OFFCURVE",
"72 16 CURVE SMOOTH",
"62 26 OFFCURVE",
"13 31 OFFCURVE",
"60 66 CURVE SMOOTH"
);
},
{
closed = 1;
nodes = (
"140 406 OFFCURVE",
"134 382 OFFCURVE",
"184 378 CURVE SMOOTH",
"234 374 OFFCURVE",
"353 371 OFFCURVE",
"387 382 CURVE SMOOTH",
"421 393 OFFCURVE",
"453 425 OFFCURVE",
"421 454 CURVE SMOOTH",
"389 483 OFFCURVE",
"368 441 OFFCURVE",
"354 430 CURVE SMOOTH",
"340 419 OFFCURVE",
"307 403 OFFCURVE",
"301 453 CURVE SMOOTH",
"295 503 OFFCURVE",
"316 537 OFFCURVE",
"336 547 CURVE SMOOTH",
"356 557 OFFCURVE",
"376 553 OFFCURVE",
"386 528 CURVE SMOOTH",
"396 503 OFFCURVE",
"414 524 OFFCURVE",
"418 540 CURVE SMOOTH",
"422 556 OFFCURVE",
"443 587 OFFCURVE",
"382 611 CURVE SMOOTH",
"321 635 OFFCURVE",
"230 632 OFFCURVE",
"194 630 CURVE SMOOTH",
"158 628 OFFCURVE",
"166 615 OFFCURVE",
"159 578 CURVE SMOOTH",
"152 541 OFFCURVE",
"141 469 OFFCURVE",
"140 453 CURVE"
);
},
{
closed = 1;
nodes = (
"239 132 OFFCURVE",
"306 88 OFFCURVE",
"376 73 CURVE SMOOTH",
"413 65 OFFCURVE",
"488 99 OFFCURVE",
"456 165 CURVE SMOOTH",
"424 231 OFFCURVE",
"373 266 OFFCURVE",
"327 277 CURVE SMOOTH",
"281 288 OFFCURVE",
"197 314 OFFCURVE",
"179 296 CURVE SMOOTH",
"161 278 OFFCURVE",
"173 239 OFFCURVE",
"200 195 CURVE SMOOTH"
);
},
{
closed = 1;
nodes = (
"181 70 OFFCURVE",
"186 55 OFFCURVE",
"209 50 CURVE SMOOTH",
"232 45 OFFCURVE",
"257 45 OFFCURVE",
"276 45 CURVE SMOOTH",
"295 45 OFFCURVE",
"306 70 OFFCURVE",
"267 81 CURVE SMOOTH",
"245 87 OFFCURVE",
"233 95 OFFCURVE",
"213 117 CURVE SMOOTH",
"181 151 OFFCURVE",
"183 125 OFFCURVE",
"181 88 CURVE"
);
}
);
width = 562;
}
);
note = B;
unicode = 0042;
},
{
glyphname = C;
lastChange = "2019-07-17 18:30:08 +0000";
layers = (
{
hints = (
{
horizontal = 1;
place = "{0, 96.19}";
type = Stem;
},
{
horizontal = 1;
place = "{349, 52.4}";
type = Stem;
},
{
place = "{5.34, 68.33}";
type = Stem;
},
{
place = "{161.04, 59.83}";
type = Stem;
},
{
place = "{296.73, 55.21}";
type = Stem;
},
{
place = "{411.04, 65.2}";
type = Stem;
},
{
horizontal = 1;
place = "{640, 62}";
type = Stem;
},
{
place = "{194.75, 166.87}";
type = Stem;
}
);
layerId = "B4EEB2EB-BE69-455B-9E3C-B597DC09858D";
paths = (
{
closed = 1;
nodes = (
"345 78 OFFCURVE",
"321 170 OFFCURVE",
"409 210 CURVE SMOOTH",
"487 245 OFFCURVE",
"500 308 OFFCURVE",
"433 363 CURVE SMOOTH",
"385 402 OFFCURVE",
"274 409 OFFCURVE",
"221 395 CURVE SMOOTH",
"119 368 OFFCURVE",
"165 264 OFFCURVE",
"227 220 CURVE SMOOTH",
"289 176 OFFCURVE",
"342 75 OFFCURVE",
"238 100 CURVE SMOOTH",
"170 116 OFFCURVE",
"113 183 OFFCURVE",
"87 310 CURVE SMOOTH",
"67 407 OFFCURVE",
"61 527 OFFCURVE",
"131 571 CURVE SMOOTH",
"201 615 OFFCURVE",
"208 576 OFFCURVE",
"178 544 CURVE SMOOTH",
"148 512 OFFCURVE",
"174 429 OFFCURVE",
"234 483 CURVE SMOOTH",
"294 537 OFFCURVE",
"315 529 OFFCURVE",
"341 530 CURVE SMOOTH",
"367 531 OFFCURVE",
"372 590 OFFCURVE",
"335 593 CURVE SMOOTH",
"298 596 OFFCURVE",
"286 633 OFFCURVE",
"329 640 CURVE SMOOTH",
"372 647 OFFCURVE",
"424 629 OFFCURVE",
"427 574 CURVE SMOOTH",
"430 519 OFFCURVE",
"450 555 OFFCURVE",
"464 556 CURVE SMOOTH",
"478 557 OFFCURVE",
"518 526 OFFCURVE",
"503 579 CURVE SMOOTH",
"488 632 OFFCURVE",
"436 694 OFFCURVE",
"354 702 CURVE SMOOTH",
"272 710 OFFCURVE",
"113 671 OFFCURVE",
"63 580 CURVE SMOOTH",
"13 489 OFFCURVE",
"-2 451 OFFCURVE",
"8 315 CURVE SMOOTH",
"12 263 OFFCURVE",
"71 131 OFFCURVE",
"104 94 CURVE SMOOTH",
"138 55 OFFCURVE",
"222 0 OFFCURVE",
"327 0 CURVE SMOOTH",
"441 0 OFFCURVE",
"537 64 OFFCURVE",
"561 90 CURVE SMOOTH",
"586 117 OFFCURVE",
"559 117 OFFCURVE",
"551 123 CURVE SMOOTH",
"547 126 OFFCURVE",
"550 160 OFFCURVE",
"525 141 CURVE SMOOTH",
"500 122 OFFCURVE",
"454 63 OFFCURVE",
"411 69 CURVE SMOOTH"
);
},
{
closed = 1;
nodes = (
"325 349 OFFCURVE",
"375 343 OFFCURVE",
"401 315 CURVE SMOOTH",
"427 287 OFFCURVE",
"398 276 OFFCURVE",
"369 247 CURVE SMOOTH",
"310 189 OFFCURVE",
"272 235 OFFCURVE",
"236 282 CURVE SMOOTH",
"215 310 OFFCURVE",
"211 349 OFFCURVE",
"253 349 CURVE SMOOTH"
);
}
);
width = 600;
}
);
note = C;
unicode = 0043;
},
{
glyphname = Ccedilla;
lastChange = "2019-07-17 18:30:08 +0000";
layers = (
{
hints = (
{
horizontal = 1;
place = "{-241, 39.35}";
type = Stem;
},
{
horizontal = 1;
place = "{-87.77, 41.9}";
type = Stem;
},
{
horizontal = 1;
place = "{1, 95.19}";
type = Stem;
},
{
horizontal = 1;
place = "{349, 52.4}";
type = Stem;
},
{
horizontal = 1;
place = "{640, 62}";
type = Stem;
},
{
place = "{5.34, 68.33}";
type = Stem;
},
{
place = "{161.04, 59.83}";
type = Stem;
},
{
place = "{296.73, 55.21}";
type = Stem;
},
{
place = "{411.04, 65.2}";
type = Stem;
},
{
place = "{194.75, 166.87}";
type = Stem;
},
{
place = "{267.45, 68}";
type = Stem;
},
{
place = "{252, 56}";
type = Stem;
}
);
layerId = "B4EEB2EB-BE69-455B-9E3C-B597DC09858D";
paths = (
{
closed = 1;
nodes = (
"547 126 OFFCURVE",
"550 160 OFFCURVE",
"525 141 CURVE SMOOTH",
"500 122 OFFCURVE",
"454 63 OFFCURVE",
"411 69 CURVE SMOOTH",
"345 78 OFFCURVE",
"321 170 OFFCURVE",
"409 210 CURVE SMOOTH",
"487 245 OFFCURVE",
"500 308 OFFCURVE",
"433 363 CURVE SMOOTH",
"385 402 OFFCURVE",
"274 409 OFFCURVE",
"221 395 CURVE SMOOTH",
"119 368 OFFCURVE",
"165 264 OFFCURVE",
"227 220 CURVE SMOOTH",
"289 176 OFFCURVE",
"342 75 OFFCURVE",
"238 100 CURVE SMOOTH",
"170 116 OFFCURVE",
"113 183 OFFCURVE",
"87 310 CURVE SMOOTH",
"67 407 OFFCURVE",
"61 527 OFFCURVE",
"131 571 CURVE SMOOTH",
"201 615 OFFCURVE",
"208 576 OFFCURVE",
"178 544 CURVE SMOOTH",
"148 512 OFFCURVE",
"174 429 OFFCURVE",
"234 483 CURVE SMOOTH",
"294 537 OFFCURVE",
"315 529 OFFCURVE",
"341 530 CURVE SMOOTH",
"367 531 OFFCURVE",
"372 590 OFFCURVE",
"335 593 CURVE SMOOTH",
"298 596 OFFCURVE",
"286 633 OFFCURVE",
"329 640 CURVE SMOOTH",
"372 647 OFFCURVE",
"424 629 OFFCURVE",
"427 574 CURVE SMOOTH",
"430 519 OFFCURVE",
"450 555 OFFCURVE",
"464 556 CURVE SMOOTH",
"478 557 OFFCURVE",
"518 526 OFFCURVE",
"503 579 CURVE SMOOTH",
"488 632 OFFCURVE",
"436 694 OFFCURVE",
"354 702 CURVE SMOOTH",
"272 710 OFFCURVE",
"113 671 OFFCURVE",
"63 580 CURVE SMOOTH",
"13 489 OFFCURVE",
"-2 451 OFFCURVE",
"8 315 CURVE SMOOTH",
"12 263 OFFCURVE",
"71 131 OFFCURVE",
"104 94 CURVE SMOOTH",
"136 58 OFFCURVE",
"210 8 OFFCURVE",
"305 1 CURVE",
"290 -24 OFFCURVE",
"280 -46 OFFCURVE",
"271 -65 CURVE SMOOTH",
"261 -86 OFFCURVE",
"273 -121 OFFCURVE",
"296 -110 CURVE SMOOTH",
"319 -99 OFFCURVE",
"348 -75 OFFCURVE",
"354 -96 CURVE SMOOTH",
"360 -117 OFFCURVE",
"338 -129 OFFCURVE",
"317 -140 CURVE SMOOTH",
"296 -151 OFFCURVE",
"254 -166 OFFCURVE",
"252 -187 CURVE SMOOTH",
"250 -208 OFFCURVE",
"255 -244 OFFCURVE",
"331 -241 CURVE SMOOTH",
"408 -238 OFFCURVE",
"450 -154 OFFCURVE",
"448 -124 CURVE SMOOTH",
"446 -94 OFFCURVE",
"382 -32 OFFCURVE",
"353 -43 CURVE SMOOTH",
"340 -48 OFFCURVE",
"327 -51 OFFCURVE",
"342 -16 CURVE SMOOTH",
"349 1 LINE",
"453 8 OFFCURVE",
"539 66 OFFCURVE",
"561 90 CURVE SMOOTH",
"586 117 OFFCURVE",
"559 117 OFFCURVE",
"551 123 CURVE SMOOTH"
);
},
{
closed = 1;
nodes = (
"215 310 OFFCURVE",
"211 349 OFFCURVE",
"253 349 CURVE SMOOTH",
"325 349 OFFCURVE",
"375 343 OFFCURVE",
"401 315 CURVE SMOOTH",
"427 287 OFFCURVE",
"398 276 OFFCURVE",
"369 247 CURVE SMOOTH",
"310 189 OFFCURVE",
"272 235 OFFCURVE",
"236 282 CURVE SMOOTH"
);
},
{
closed = 1;
nodes = (
"379 -132 OFFCURVE",
"390 -129 OFFCURVE",
"396 -145 CURVE SMOOTH",
"402 -161 OFFCURVE",
"388 -170 OFFCURVE",
"377 -180 CURVE SMOOTH",
"363 -193 OFFCURVE",
"335 -208 OFFCURVE",
"317 -199 CURVE SMOOTH",
"298 -190 OFFCURVE",
"312 -180 OFFCURVE",
"330 -175 CURVE SMOOTH",
"346 -171 OFFCURVE",
"360 -162 OFFCURVE",
"372 -145 CURVE"
);
}
);
width = 600;
}
);
note = Ccedilla;
unicode = 00C7;
},
{
glyphname = D;
lastChange = "2019-07-17 18:30:08 +0000";
layers = (
{
hints = (
{
horizontal = 1;
place = "{8, 60.15}";
type = Stem;
},
{
horizontal = 1;
place = "{175.4, 63.83}";
type = Stem;
},
{
horizontal = 1;
place = "{469.5, 34.41}";
type = Stem;
},
{
horizontal = 1;
place = "{621, 66.38}";
type = Stem;
},
{
place = "{30.06, 57.94}";
type = Stem;
},
{
place = "{123, 45}";
type = Stem;
},
{
place = "{318.53, 47.44}";
type = Stem;
},
{
place = "{472.62, 49.12}";
type = Stem;
},
{
place = "{35, 61}";
type = Stem;
},
{
place = "{382, 62.26}";
type = Stem;
},
{
horizontal = 1;
place = "{151, 48}";
type = Stem;
},
{
place = "{197.29, 162.71}";
type = Stem;
}
);
layerId = "B4EEB2EB-BE69-455B-9E3C-B597DC09858D";
paths = (
{
closed = 1;
nodes = (
"512 349 OFFCURVE",
"473 451 OFFCURVE",
"407 548 CURVE SMOOTH",
"341 646 OFFCURVE",
"189 695 OFFCURVE",
"145 693 CURVE SMOOTH",
"101 691 OFFCURVE",
"96 672 OFFCURVE",
"96 717 CURVE SMOOTH",
"96 738 OFFCURVE",
"78 717 OFFCURVE",
"66 718 CURVE SMOOTH",
"54 719 OFFCURVE",
"34 744 OFFCURVE",
"35 716 CURVE",
"22 473 OFFCURVE",
"37 453 OFFCURVE",
"52 395 CURVE SMOOTH",
"60 365 OFFCURVE",
"30 360 OFFCURVE",
"33 295 CURVE SMOOTH",
"36 230 OFFCURVE",
"58 175 OFFCURVE",
"54 102 CURVE SMOOTH",
"50 36 OFFCURVE",
"116 6 OFFCURVE",
"153 8 CURVE SMOOTH",
"216 11 OFFCURVE",
"308 12 OFFCURVE",
"369 13 CURVE SMOOTH",
"412 14 OFFCURVE",
"428 38 OFFCURVE",
"434 70 CURVE",
"462 78 OFFCURVE",
"485 84 OFFCURVE",
"497 98 CURVE SMOOTH",
"520 124 OFFCURVE",
"526 201 OFFCURVE",
"519 275 CURVE SMOOTH"
);
},
{
closed = 1;
nodes = (
"446 178 OFFCURVE",
"454 212 OFFCURVE",
"401 233 CURVE SMOOTH",
"334 259 OFFCURVE",
"303 203 OFFCURVE",
"252 199 CURVE SMOOTH",
"201 195 OFFCURVE",
"167 233 OFFCURVE",
"168 297 CURVE SMOOTH",
"169 361 OFFCURVE",
"143 390 OFFCURVE",
"122 391 CURVE SMOOTH",
"101 392 OFFCURVE",
"91 412 OFFCURVE",
"89 433 CURVE SMOOTH",
"87 454 OFFCURVE",
"86 494 OFFCURVE",
"88 529 CURVE SMOOTH",
"90 564 OFFCURVE",
"91 621 OFFCURVE",
"148 621 CURVE SMOOTH",
"204 621 OFFCURVE",
"283 577 OFFCURVE",
"307 551 CURVE SMOOTH",
"331 525 OFFCURVE",
"313 482 OFFCURVE",
"296 486 CURVE SMOOTH",
"279 490 OFFCURVE",
"228 526 OFFCURVE",
"207 483 CURVE SMOOTH",
"186 439 OFFCURVE",
"197 387 OFFCURVE",
"248 334 CURVE SMOOTH",
"299 281 OFFCURVE",
"333 298 OFFCURVE",
"355 330 CURVE SMOOTH",
"377 362 OFFCURVE",
"359 410 OFFCURVE",
"360 444 CURVE SMOOTH",
"361 478 OFFCURVE",
"380 474 OFFCURVE",
"400 456 CURVE SMOOTH",
"420 438 OFFCURVE",
"450 385 OFFCURVE",
"468 268 CURVE SMOOTH",
"481 185 OFFCURVE",
"465 153 OFFCURVE",
"440 141 CURVE"
);
},
{
closed = 1;
nodes = (
"283 49 OFFCURVE",
"252 80 OFFCURVE",
"176 63 CURVE SMOOTH",
"103 47 OFFCURVE",
"116 87 OFFCURVE",
"108 136 CURVE SMOOTH",
"100 185 OFFCURVE",
"86 278 OFFCURVE",
"83 313 CURVE SMOOTH",
"80 348 OFFCURVE",
"120 355 OFFCURVE",
"123 312 CURVE SMOOTH",
"129 219 OFFCURVE",
"160 156 OFFCURVE",
"214 151 CURVE SMOOTH",
"261 147 OFFCURVE",
"301 161 OFFCURVE",
"329 172 CURVE SMOOTH",
"357 183 OFFCURVE",
"380 169 OFFCURVE",
"382 119 CURVE SMOOTH",
"384 69 OFFCURVE",
"361 69 OFFCURVE",
"322 59 CURVE SMOOTH"
);
}
);
width = 542;
}
);
note = D;
unicode = 0044;
},
{
glyphname = Eth;
lastChange = "2019-07-17 18:30:08 +0000";
layers = (
{
hints = (
{
horizontal = 1;
place = "{8.5, 31.73}";
type = Stem;
},
{
horizontal = 1;
place = "{175.78, 66.7}";
type = Stem;
},
{
horizontal = 1;
place = "{397, 47}";
type = Stem;
},
{
horizontal = 1;
place = "{484.25, 37.05}";
type = Stem;
},
{
horizontal = 1;
place = "{644, 69.75}";
type = Stem;
},
{
place = "{30, 61}";
type = Stem;
},
{
place = "{127, 48}";
type = Stem;
},
{
place = "{332.92, 49.49}";
type = Stem;
},
{
place = "{494.45, 51.7}";
type = Stem;
},
{
place = "{35, 64}";
type = Stem;
},
{
place = "{33, 52}";
type = Stem;
},
{
place = "{399, 65.42}";
type = Stem;
},
{
horizontal = 1;
place = "{150, 50}";
type = Stem;
},
{
place = "{205.69, 170.31}";
type = Stem;
},
{
place = "{59.15, 45.85}";
type = Stem;
}
);
layerId = "B4EEB2EB-BE69-455B-9E3C-B597DC09858D";
paths = (
{
closed = 1;
nodes = (
"536 358 OFFCURVE",
"495 465 OFFCURVE",
"426 568 CURVE SMOOTH",
"356 671 OFFCURVE",
"197 722 OFFCURVE",
"151 720 CURVE SMOOTH",
"105 718 OFFCURVE",
"100 697 OFFCURVE",
"99 745 CURVE",
"99 767 OFFCURVE",
"80 745 OFFCURVE",
"67 746 CURVE SMOOTH",
"55 747 OFFCURVE",
"34 773 OFFCURVE",
"35 744 CURVE",
"25 565 OFFCURVE",
"30 501 OFFCURVE",
"40 458 CURVE",
"17 455 OFFCURVE",
"-6 448 OFFCURVE",
"-27 443 CURVE SMOOTH",
"-51 437 OFFCURVE",
"-81 423 OFFCURVE",
"-70 413 CURVE SMOOTH",
"-58 402 OFFCURVE",
"-49 394 OFFCURVE",
"-56 382 CURVE SMOOTH",
"-62 372 OFFCURVE",
"-48 358 OFFCURVE",
"-16 371 CURVE SMOOTH",
"11 382 OFFCURVE",
"27 394 OFFCURVE",
"54 398 CURVE",
"55 373 OFFCURVE",
"30 362 OFFCURVE",
"33 301 CURVE SMOOTH",
"36 233 OFFCURVE",
"72 174 OFFCURVE",
"55 99 CURVE SMOOTH",
"30 -13 OFFCURVE",
"62 -25 OFFCURVE",
"159 0 CURVE SMOOTH",
"224 17 OFFCURVE",
"322 4 OFFCURVE",
"386 5 CURVE SMOOTH",
"431 6 OFFCURVE",
"448 32 OFFCURVE",
"454 65 CURVE",
"484 73 OFFCURVE",
"508 79 OFFCURVE",
"520 94 CURVE SMOOTH",
"544 122 OFFCURVE",
"551 203 OFFCURVE",
"543 280 CURVE SMOOTH"
);
},
{
closed = 1;
nodes = (
"466 179 OFFCURVE",
"475 215 OFFCURVE",
"419 236 CURVE SMOOTH",
"349 263 OFFCURVE",
"317 205 OFFCURVE",
"263 200 CURVE SMOOTH",
"209 196 OFFCURVE",
"174 236 OFFCURVE",
"175 303 CURVE SMOOTH",
"176 355 OFFCURVE",
"160 386 OFFCURVE",
"142 397 CURVE",
"154 396 OFFCURVE",
"165 394 OFFCURVE",
"172 393 CURVE SMOOTH",
"199 389 OFFCURVE",
"180 414 OFFCURVE",
"181 421 CURVE SMOOTH",
"182 429 OFFCURVE",
"201 442 OFFCURVE",
"188 444 CURVE SMOOTH",
"168 447 OFFCURVE",
"120 454 OFFCURVE",
"91 457 CURVE",
"90 481 OFFCURVE",
"89 517 OFFCURVE",
"91 548 CURVE SMOOTH",
"93 585 OFFCURVE",
"93 644 OFFCURVE",
"153 644 CURVE SMOOTH",
"212 644 OFFCURVE",
"296 598 OFFCURVE",
"321 571 CURVE SMOOTH",
"346 544 OFFCURVE",
"327 498 OFFCURVE",
"309 503 CURVE",
"291 507 OFFCURVE",
"238 545 OFFCURVE",
"216 498 CURVE SMOOTH",
"194 452 OFFCURVE",
"205 398 OFFCURVE",
"259 342 CURVE SMOOTH",
"312 286 OFFCURVE",
"348 304 OFFCURVE",
"371 338 CURVE SMOOTH",
"394 371 OFFCURVE",
"375 422 OFFCURVE",
"376 458 CURVE SMOOTH",
"377 493 OFFCURVE",
"397 489 OFFCURVE",
"418 470 CURVE SMOOTH",
"439 451 OFFCURVE",
"471 396 OFFCURVE",
"490 274 CURVE SMOOTH",
"503 187 OFFCURVE",
"486 153 OFFCURVE",
"460 140 CURVE"
);
},
{
closed = 1;
nodes = (
"296 43 OFFCURVE",
"229 60 OFFCURVE",
"149 43 CURVE SMOOTH",
"73 27 OFFCURVE",
"120 83 OFFCURVE",
"112 134 CURVE SMOOTH",
"103 186 OFFCURVE",
"88 284 OFFCURVE",
"85 321 CURVE SMOOTH",
"82 358 OFFCURVE",
"124 364 OFFCURVE",
"127 319 CURVE SMOOTH",
"133 222 OFFCURVE",
"166 153 OFFCURVE",
"223 150 CURVE SMOOTH",
"272 146 OFFCURVE",
"314 161 OFFCURVE",
"344 172 CURVE",
"373 184 OFFCURVE",
"397 169 OFFCURVE",
"399 116 CURVE SMOOTH",
"402 64 OFFCURVE",
"377 64 OFFCURVE",
"336 53 CURVE SMOOTH"
);
}
);
width = 600;
}
);
note = Eth;
unicode = 00D0;
},
{
glyphname = E;
lastChange = "2019-07-17 18:30:08 +0000";
layers = (
{
hints = (
{
horizontal = 1;
place = "{-5, 55}";
type = Stem;
},
{
horizontal = 1;
place = "{80.7, 136.93}";
type = Stem;
},
{
horizontal = 1;
place = "{500.91, 68.09}";
type = Stem;
},
{
horizontal = 1;
place = "{642.84, 28.75}";
type = Stem;
},
{
place = "{30.5, 285.25}";
type = Stem;
},
{
place = "{419.23, 69.23}";
type = Stem;
},
{
place = "{35.75, 74.79}";
type = Stem;
},
{
place = "{146, 139.8}";
type = Stem;
},
{
place = "{165, 45.37}";
type = Stem;
}
);
layerId = "B4EEB2EB-BE69-455B-9E3C-B597DC09858D";
paths = (
{
closed = 1;
nodes = (
"237 533 OFFCURVE",
"309 552 OFFCURVE",
"333 544 CURVE SMOOTH",
"358 536 OFFCURVE",
"422 486 OFFCURVE",
"451 505 CURVE SMOOTH",
"482 525 OFFCURVE",
"506 573 OFFCURVE",
"472 612 CURVE SMOOTH",
"438 652 OFFCURVE",
"435 643 OFFCURVE",
"406 671 CURVE SMOOTH",
"365 710 OFFCURVE",
"313 684 OFFCURVE",
"277 656 CURVE",
"183 696 OFFCURVE",
"118 650 OFFCURVE",
"85 627 CURVE SMOOTH",
"10 574 OFFCURVE",
"27 466 OFFCURVE",
"48 412 CURVE SMOOTH",
"69 358 OFFCURVE",
"147 353 OFFCURVE",
"146 341 CURVE SMOOTH",
"145 326 OFFCURVE",
"111 346 OFFCURVE",
"79 314 CURVE SMOOTH",
"47 282 OFFCURVE",
"40 206 OFFCURVE",
"38 156 CURVE SMOOTH",
"36 106 OFFCURVE",
"26 60 OFFCURVE",
"62 22 CURVE SMOOTH",
"87 -5 OFFCURVE",
"168 -7 OFFCURVE",
"211 -5 CURVE SMOOTH",
"313 0 OFFCURVE",
"383 35 OFFCURVE",
"402 45 CURVE SMOOTH",
"439 65 OFFCURVE",
"458 69 OFFCURVE",
"460 86 CURVE SMOOTH",
"462 103 OFFCURVE",
"436 108 OFFCURVE",
"433 115 CURVE SMOOTH",
"430 122 OFFCURVE",
"433 152 OFFCURVE",
"411 146 CURVE SMOOTH",
"385 139 OFFCURVE",
"391 118 OFFCURVE",
"379 101 CURVE SMOOTH",
"367 84 OFFCURVE",
"265 45 OFFCURVE",
"199 50 CURVE SMOOTH",
"134 55 OFFCURVE",
"126 49 OFFCURVE",
"115 63 CURVE SMOOTH",
"104 77 OFFCURVE",
"115 101 OFFCURVE",
"127 93 CURVE SMOOTH",
"139 85 OFFCURVE",
"143 72 OFFCURVE",
"171 89 CURVE SMOOTH",
"199 106 OFFCURVE",
"221 139 OFFCURVE",
"205 185 CURVE SMOOTH",
"189 231 OFFCURVE",
"138 220 OFFCURVE",
"127 203 CURVE SMOOTH",
"116 186 OFFCURVE",
"101 196 OFFCURVE",
"105 211 CURVE SMOOTH",
"109 226 OFFCURVE",
"107 247 OFFCURVE",
"137 274 CURVE SMOOTH",
"167 301 OFFCURVE",
"238 279 OFFCURVE",
"280 289 CURVE SMOOTH",
"322 299 OFFCURVE",
"309 336 OFFCURVE",
"300 337 CURVE SMOOTH",
"291 338 OFFCURVE",
"277 355 OFFCURVE",
"293 365 CURVE SMOOTH",
"309 375 OFFCURVE",
"347 429 OFFCURVE",
"265 456 CURVE SMOOTH",
"183 483 OFFCURVE",
"185 438 OFFCURVE",
"160 419 CURVE SMOOTH",
"135 400 OFFCURVE",
"105 436 OFFCURVE",
"95 485 CURVE SMOOTH",
"86 527 OFFCURVE",
"133 605 OFFCURVE",
"217 591 CURVE",
"210 576 OFFCURVE",
"207 563 OFFCURVE",
"215 555 CURVE SMOOTH"
);
},
{
closed = 1;
nodes = (
"397 620 OFFCURVE",
"428 607 OFFCURVE",
"417 586 CURVE SMOOTH",
"406 565 OFFCURVE",
"380 563 OFFCURVE",
"346 582 CURVE SMOOTH",
"311 602 OFFCURVE",
"291 582 OFFCURVE",
"281 596 CURVE SMOOTH",
"271 611 OFFCURVE",
"319 661 OFFCURVE",
"365 637 CURVE SMOOTH"
);
},
{
closed = 1;
nodes = (
"172 133 OFFCURVE",
"140 105 OFFCURVE",
"139 157 CURVE",
"140 183 OFFCURVE",
"159 182 OFFCURVE",
"165 160 CURVE SMOOTH"
);
}
);
width = 519;
}
);
note = E;
unicode = 0045;
},
{
glyphname = Eacute;
lastChange = "2019-07-17 18:30:08 +0000";
layers = (
{
hints = (
{
horizontal = 1;
place = "{-5, 55}";
type = Stem;
},
{
horizontal = 1;
place = "{80.7, 136.93}";
type = Stem;
},
{
horizontal = 1;
place = "{500.91, 68.09}";
type = Stem;
},
{
horizontal = 1;
place = "{642.84, 28.75}";
type = Stem;
},
{
horizontal = 1;
place = "{731, 58}";
type = Stem;
},
{
place = "{35.75, 74.79}";
type = Stem;
},
{
place = "{165, 45.37}";
type = Stem;
},
{
place = "{419.23, 69.23}";
type = Stem;
},
{
place = "{30.5, 285.25}";
type = Stem;
},
{
place = "{146, 139.8}";
type = Stem;
}
);
layerId = "B4EEB2EB-BE69-455B-9E3C-B597DC09858D";
paths = (
{
closed = 1;
nodes = (
"180 731 OFFCURVE",
"232 747 OFFCURVE",
"269 770 CURVE SMOOTH",
"296 787 OFFCURVE",
"340 833 OFFCURVE",
"350 845 CURVE SMOOTH",
"364 861 OFFCURVE",
"341 859 OFFCURVE",
"331 866 CURVE SMOOTH",
"318 875 OFFCURVE",
"318 894 OFFCURVE",
"293 868 CURVE SMOOTH",
"263 836 OFFCURVE",
"207 777 OFFCURVE",
"153 789 CURVE SMOOTH",
"139 792 OFFCURVE",
"152 768 OFFCURVE",
"152 757 CURVE SMOOTH",
"152 746 OFFCURVE",
"123 731 OFFCURVE",
"150 731 CURVE SMOOTH"
);
},
{
closed = 1;
nodes = (
"237 533 OFFCURVE",
"309 552 OFFCURVE",
"333 544 CURVE SMOOTH",
"358 536 OFFCURVE",
"422 486 OFFCURVE",
"451 505 CURVE SMOOTH",
"482 525 OFFCURVE",
"506 573 OFFCURVE",
"472 612 CURVE SMOOTH",
"438 652 OFFCURVE",
"435 643 OFFCURVE",
"406 671 CURVE SMOOTH",
"365 710 OFFCURVE",
"313 684 OFFCURVE",
"277 656 CURVE",
"183 696 OFFCURVE",
"118 650 OFFCURVE",
"85 627 CURVE SMOOTH",
"10 574 OFFCURVE",
"27 466 OFFCURVE",
"48 412 CURVE SMOOTH",
"69 358 OFFCURVE",
"147 353 OFFCURVE",
"146 341 CURVE SMOOTH",
"145 326 OFFCURVE",
"111 346 OFFCURVE",
"79 314 CURVE SMOOTH",
"47 282 OFFCURVE",
"40 206 OFFCURVE",
"38 156 CURVE SMOOTH",
"36 106 OFFCURVE",
"26 60 OFFCURVE",
"62 22 CURVE SMOOTH",
"87 -5 OFFCURVE",
"168 -7 OFFCURVE",
"211 -5 CURVE SMOOTH",
"313 0 OFFCURVE",
"383 35 OFFCURVE",
"402 45 CURVE SMOOTH",
"439 65 OFFCURVE",
"458 69 OFFCURVE",
"460 86 CURVE SMOOTH",
"462 103 OFFCURVE",
"436 108 OFFCURVE",
"433 115 CURVE SMOOTH",
"430 122 OFFCURVE",
"433 152 OFFCURVE",
"411 146 CURVE SMOOTH",
"385 139 OFFCURVE",
"391 118 OFFCURVE",
"379 101 CURVE SMOOTH",
"367 84 OFFCURVE",
"265 45 OFFCURVE",
"199 50 CURVE SMOOTH",
"134 55 OFFCURVE",
"126 49 OFFCURVE",
"115 63 CURVE SMOOTH",
"104 77 OFFCURVE",
"115 101 OFFCURVE",
"127 93 CURVE SMOOTH",
"139 85 OFFCURVE",
"143 72 OFFCURVE",
"171 89 CURVE SMOOTH",
"199 106 OFFCURVE",
"221 139 OFFCURVE",
"205 185 CURVE SMOOTH",
"189 231 OFFCURVE",
"138 220 OFFCURVE",
"127 203 CURVE SMOOTH",
"116 186 OFFCURVE",
"101 196 OFFCURVE",
"105 211 CURVE SMOOTH",
"109 226 OFFCURVE",
"107 247 OFFCURVE",
"137 274 CURVE SMOOTH",
"167 301 OFFCURVE",
"238 279 OFFCURVE",
"280 289 CURVE SMOOTH",
"322 299 OFFCURVE",
"309 336 OFFCURVE",
"300 337 CURVE SMOOTH",
"291 338 OFFCURVE",
"277 355 OFFCURVE",
"293 365 CURVE SMOOTH",
"309 375 OFFCURVE",
"347 429 OFFCURVE",
"265 456 CURVE SMOOTH",
"183 483 OFFCURVE",
"185 438 OFFCURVE",
"160 419 CURVE SMOOTH",
"135 400 OFFCURVE",
"105 436 OFFCURVE",
"95 485 CURVE SMOOTH",
"86 527 OFFCURVE",
"133 605 OFFCURVE",
"217 591 CURVE",
"210 576 OFFCURVE",
"207 563 OFFCURVE",
"215 555 CURVE SMOOTH"
);
},
{
closed = 1;
nodes = (
"397 620 OFFCURVE",
"428 607 OFFCURVE",
"417 586 CURVE SMOOTH",
"406 565 OFFCURVE",
"380 563 OFFCURVE",
"346 582 CURVE SMOOTH",
"311 602 OFFCURVE",
"291 582 OFFCURVE",
"281 596 CURVE SMOOTH",
"271 611 OFFCURVE",
"319 661 OFFCURVE",
"365 637 CURVE SMOOTH"
);
},
{
closed = 1;
nodes = (
"172 133 OFFCURVE",
"140 105 OFFCURVE",
"139 157 CURVE",
"140 183 OFFCURVE",
"159 182 OFFCURVE",
"165 160 CURVE SMOOTH"
);
}
);
width = 519;
}
);
note = Eacute;
unicode = 00C9;
},
{
glyphname = Ecircumflex;
lastChange = "2019-07-17 18:30:08 +0000";
layers = (
{
hints = (
{
horizontal = 1;
place = "{-5, 55}";
type = Stem;
},
{
horizontal = 1;
place = "{80.7, 136.93}";
type = Stem;
},
{
horizontal = 1;
place = "{500.91, 68.09}";
type = Stem;
},
{
horizontal = 1;
place = "{642.84, 28.75}";
type = Stem;
},
{
horizontal = 1;
place = "{888, 53.63}";
type = Stem;
},
{
place = "{35.75, 74.79}";
type = Stem;
},
{
place = "{165, 45.37}";
type = Stem;
},
{
place = "{419.23, 69.23}";
type = Stem;
},
{
place = "{30.5, 285.25}";
type = Stem;
},
{
place = "{146, 139.8}";
type = Stem;
}
);
layerId = "B4EEB2EB-BE69-455B-9E3C-B597DC09858D";
paths = (
{
closed = 1;
nodes = (
"112 753 OFFCURVE",
"157 784 OFFCURVE",
"186 817 CURVE SMOOTH",
"207 841 OFFCURVE",
"230 873 OFFCURVE",
"235 888 CURVE",
"239 873 OFFCURVE",
"249 835 OFFCURVE",
"267 809 CURVE SMOOTH",
"291 774 OFFCURVE",
"332 738 OFFCURVE",
"359 725 CURVE SMOOTH",
"384 713 OFFCURVE",
"370 739 OFFCURVE",
"375 749 CURVE SMOOTH",
"380 759 OFFCURVE",
"394 775 OFFCURVE",
"380 778 CURVE SMOOTH",
"326 790 OFFCURVE",
"299 867 OFFCURVE",
"285 909 CURVE SMOOTH",
"269 954 OFFCURVE",
"254 935 OFFCURVE",
"244 936 CURVE SMOOTH",
"234 937 OFFCURVE",
"224 957 OFFCURVE",
"191 915 CURVE SMOOTH",
"172 891 OFFCURVE",
"125 801 OFFCURVE",
"70 801 CURVE SMOOTH",
"56 801 OFFCURVE",
"75 781 OFFCURVE",
"78 770 CURVE SMOOTH",
"81 759 OFFCURVE",
"58 738 OFFCURVE",
"84 745 CURVE SMOOTH"
);
},
{
closed = 1;
nodes = (
"237 533 OFFCURVE",
"309 552 OFFCURVE",
"333 544 CURVE SMOOTH",
"358 536 OFFCURVE",
"422 486 OFFCURVE",
"451 505 CURVE SMOOTH",
"482 525 OFFCURVE",
"506 573 OFFCURVE",
"472 612 CURVE SMOOTH",
"438 652 OFFCURVE",
"435 643 OFFCURVE",
"406 671 CURVE SMOOTH",
"365 710 OFFCURVE",
"313 684 OFFCURVE",
"277 656 CURVE",
"183 696 OFFCURVE",
"118 650 OFFCURVE",
"85 627 CURVE SMOOTH",
"10 574 OFFCURVE",
"27 466 OFFCURVE",
"48 412 CURVE SMOOTH",
"69 358 OFFCURVE",
"147 353 OFFCURVE",
"146 341 CURVE SMOOTH",
"145 326 OFFCURVE",
"111 346 OFFCURVE",
"79 314 CURVE SMOOTH",
"47 282 OFFCURVE",
"40 206 OFFCURVE",
"38 156 CURVE SMOOTH",
"36 106 OFFCURVE",
"26 60 OFFCURVE",
"62 22 CURVE SMOOTH",
"87 -5 OFFCURVE",
"168 -7 OFFCURVE",
"211 -5 CURVE SMOOTH",
"313 0 OFFCURVE",
"383 35 OFFCURVE",
"402 45 CURVE SMOOTH",
"439 65 OFFCURVE",
"458 69 OFFCURVE",
"460 86 CURVE SMOOTH",
"462 103 OFFCURVE",
"436 108 OFFCURVE",
"433 115 CURVE SMOOTH",
"430 122 OFFCURVE",
"433 152 OFFCURVE",
"411 146 CURVE SMOOTH",
"385 139 OFFCURVE",
"391 118 OFFCURVE",
"379 101 CURVE SMOOTH",
"367 84 OFFCURVE",
"265 45 OFFCURVE",
"199 50 CURVE SMOOTH",
"134 55 OFFCURVE",
"126 49 OFFCURVE",
"115 63 CURVE SMOOTH",
"104 77 OFFCURVE",
"115 101 OFFCURVE",
"127 93 CURVE SMOOTH",
"139 85 OFFCURVE",
"143 72 OFFCURVE",
"171 89 CURVE SMOOTH",
"199 106 OFFCURVE",
"221 139 OFFCURVE",
"205 185 CURVE SMOOTH",
"189 231 OFFCURVE",
"138 220 OFFCURVE",
"127 203 CURVE SMOOTH",
"116 186 OFFCURVE",
"101 196 OFFCURVE",
"105 211 CURVE SMOOTH",
"109 226 OFFCURVE",
"107 247 OFFCURVE",
"137 274 CURVE SMOOTH",
"167 301 OFFCURVE",
"238 279 OFFCURVE",
"280 289 CURVE SMOOTH",
"322 299 OFFCURVE",
"309 336 OFFCURVE",
"300 337 CURVE SMOOTH",
"291 338 OFFCURVE",
"277 355 OFFCURVE",
"293 365 CURVE SMOOTH",
"309 375 OFFCURVE",
"347 429 OFFCURVE",
"265 456 CURVE SMOOTH",
"183 483 OFFCURVE",
"185 438 OFFCURVE",
"160 419 CURVE SMOOTH",
"135 400 OFFCURVE",
"105 436 OFFCURVE",
"95 485 CURVE SMOOTH",
"86 527 OFFCURVE",
"133 605 OFFCURVE",
"217 591 CURVE",
"210 576 OFFCURVE",
"207 563 OFFCURVE",
"215 555 CURVE SMOOTH"
);
},
{
closed = 1;
nodes = (
"397 620 OFFCURVE",
"428 607 OFFCURVE",
"417 586 CURVE SMOOTH",
"406 565 OFFCURVE",
"380 563 OFFCURVE",
"346 582 CURVE SMOOTH",
"311 602 OFFCURVE",
"291 582 OFFCURVE",
"281 596 CURVE SMOOTH",
"271 611 OFFCURVE",
"319 661 OFFCURVE",
"365 637 CURVE SMOOTH"
);
},
{
closed = 1;
nodes = (
"172 133 OFFCURVE",
"140 105 OFFCURVE",
"139 157 CURVE",
"140 183 OFFCURVE",
"159 182 OFFCURVE",
"165 160 CURVE SMOOTH"
);
}
);
width = 519;
}
);
note = Ecircumflex;
unicode = 00CA;
},
{
glyphname = Edieresis;
lastChange = "2019-07-17 18:30:08 +0000";
layers = (
{
hints = (
{
horizontal = 1;
place = "{-5, 55}";
type = Stem;
},
{
horizontal = 1;
place = "{80.7, 136.93}";
type = Stem;
},
{
horizontal = 1;
place = "{500.91, 68.09}";
type = Stem;
},
{
horizontal = 1;
place = "{642.84, 28.75}";
type = Stem;
},
{
horizontal = 1;
place = "{763, 83}";
type = Stem;
},
{
place = "{35.75, 74.79}";
type = Stem;
},
{
place = "{165, 45.37}";
type = Stem;
},
{
place = "{250, 87}";
type = Stem;
},
{
place = "{419.23, 69.23}";
type = Stem;
},
{
horizontal = 1;
place = "{764.03, 79.1}";
type = Stem;
},
{
place = "{90.5, 85.25}";
type = Stem;
},
{
place = "{30.5, 285.25}";
type = Stem;
},
{
place = "{146, 139.8}";
type = Stem;
}
);
layerId = "B4EEB2EB-BE69-455B-9E3C-B597DC09858D";
paths = (
{
closed = 1;
nodes = (
"319 763 OFFCURVE",
"337 783 OFFCURVE",
"337 799 CURVE SMOOTH",
"337 816 OFFCURVE",
"319 845 OFFCURVE",
"295 846 CURVE SMOOTH",
"273 847 OFFCURVE",
"250 824 OFFCURVE",
"250 807 CURVE SMOOTH",
"250 791 OFFCURVE",
"273 763 OFFCURVE",
"295 763 CURVE SMOOTH"
);
},
{
closed = 1;
nodes = (
"111 765 OFFCURVE",
"144 757 OFFCURVE",
"162 773 CURVE",
"177 789 OFFCURVE",
"181 823 OFFCURVE",
"170 834 CURVE SMOOTH",
"159 845 OFFCURVE",
"119 848 OFFCURVE",
"102 832 CURVE",
"86 815 OFFCURVE",
"88 787 OFFCURVE",
"100 776 CURVE"
);
},
{
closed = 1;
nodes = (
"237 533 OFFCURVE",
"309 552 OFFCURVE",
"333 544 CURVE SMOOTH",
"358 536 OFFCURVE",
"422 486 OFFCURVE",
"451 505 CURVE SMOOTH",
"482 525 OFFCURVE",
"506 573 OFFCURVE",
"472 612 CURVE SMOOTH",
"438 652 OFFCURVE",
"435 643 OFFCURVE",
"406 671 CURVE SMOOTH",
"365 710 OFFCURVE",
"313 684 OFFCURVE",
"277 656 CURVE",
"183 696 OFFCURVE",
"118 650 OFFCURVE",
"85 627 CURVE SMOOTH",
"10 574 OFFCURVE",
"27 466 OFFCURVE",
"48 412 CURVE SMOOTH",
"69 358 OFFCURVE",
"147 353 OFFCURVE",
"146 341 CURVE SMOOTH",
"145 326 OFFCURVE",
"111 346 OFFCURVE",
"79 314 CURVE SMOOTH",
"47 282 OFFCURVE",
"40 206 OFFCURVE",
"38 156 CURVE SMOOTH",
"36 106 OFFCURVE",
"26 60 OFFCURVE",
"62 22 CURVE SMOOTH",
"87 -5 OFFCURVE",
"168 -7 OFFCURVE",
"211 -5 CURVE SMOOTH",
"313 0 OFFCURVE",
"383 35 OFFCURVE",
"402 45 CURVE SMOOTH",
"439 65 OFFCURVE",
"458 69 OFFCURVE",
"460 86 CURVE SMOOTH",
"462 103 OFFCURVE",
"436 108 OFFCURVE",
"433 115 CURVE SMOOTH",
"430 122 OFFCURVE",
"433 152 OFFCURVE",
"411 146 CURVE SMOOTH",
"385 139 OFFCURVE",
"391 118 OFFCURVE",
"379 101 CURVE SMOOTH",
"367 84 OFFCURVE",
"265 45 OFFCURVE",
"199 50 CURVE SMOOTH",
"134 55 OFFCURVE",
"126 49 OFFCURVE",
"115 63 CURVE SMOOTH",
"104 77 OFFCURVE",
"115 101 OFFCURVE",
"127 93 CURVE SMOOTH",
"139 85 OFFCURVE",
"143 72 OFFCURVE",
"171 89 CURVE SMOOTH",
"199 106 OFFCURVE",
"221 139 OFFCURVE",
"205 185 CURVE SMOOTH",
"189 231 OFFCURVE",
"138 220 OFFCURVE",
"127 203 CURVE SMOOTH",
"116 186 OFFCURVE",
"101 196 OFFCURVE",
"105 211 CURVE SMOOTH",
"109 226 OFFCURVE",
"107 247 OFFCURVE",
"137 274 CURVE SMOOTH",
"167 301 OFFCURVE",
"238 279 OFFCURVE",
"280 289 CURVE SMOOTH",
"322 299 OFFCURVE",
"309 336 OFFCURVE",
"300 337 CURVE SMOOTH",
"291 338 OFFCURVE",
"277 355 OFFCURVE",
"293 365 CURVE SMOOTH",
"309 375 OFFCURVE",
"347 429 OFFCURVE",
"265 456 CURVE SMOOTH",
"183 483 OFFCURVE",
"185 438 OFFCURVE",
"160 419 CURVE SMOOTH",
"135 400 OFFCURVE",
"105 436 OFFCURVE",
"95 485 CURVE SMOOTH",
"86 527 OFFCURVE",
"133 605 OFFCURVE",
"217 591 CURVE",
"210 576 OFFCURVE",
"207 563 OFFCURVE",
"215 555 CURVE SMOOTH"
);
},
{
closed = 1;
nodes = (
"397 620 OFFCURVE",
"428 607 OFFCURVE",
"417 586 CURVE SMOOTH",
"406 565 OFFCURVE",
"380 563 OFFCURVE",
"346 582 CURVE SMOOTH",
"311 602 OFFCURVE",
"291 582 OFFCURVE",
"281 596 CURVE SMOOTH",
"271 611 OFFCURVE",
"319 661 OFFCURVE",
"365 637 CURVE SMOOTH"
);
},
{
closed = 1;
nodes = (
"172 133 OFFCURVE",
"140 105 OFFCURVE",
"139 157 CURVE",
"140 183 OFFCURVE",
"159 182 OFFCURVE",
"165 160 CURVE SMOOTH"
);
}
);
width = 519;
}
);
note = Edieresis;
unicode = 00CB;
},
{
glyphname = Egrave;
lastChange = "2019-07-17 18:30:08 +0000";
layers = (
{
hints = (
{
horizontal = 1;
place = "{-5, 55}";
type = Stem;
},
{
horizontal = 1;
place = "{80.7, 136.93}";
type = Stem;
},
{
horizontal = 1;
place = "{500.91, 68.09}";
type = Stem;
},
{
horizontal = 1;
place = "{642.84, 28.75}";
type = Stem;
},
{
horizontal = 1;
place = "{776, 58}";
type = Stem;
},
{
place = "{35.75, 74.79}";
type = Stem;
},
{
place = "{165, 45.37}";
type = Stem;
},
{
place = "{419.23, 69.23}";
type = Stem;
},
{
place = "{30.5, 285.25}";
type = Stem;
},
{
place = "{146, 139.8}";
type = Stem;
}
);
layerId = "B4EEB2EB-BE69-455B-9E3C-B597DC09858D";
paths = (
{
closed = 1;
nodes = (
"202 792 OFFCURVE",
"254 776 OFFCURVE",
"284 776 CURVE SMOOTH",
"311 776 OFFCURVE",
"282 791 OFFCURVE",
"282 802 CURVE SMOOTH",
"282 813 OFFCURVE",
"295 837 OFFCURVE",
"281 834 CURVE SMOOTH",
"227 822 OFFCURVE",
"171 881 OFFCURVE",
"141 913 CURVE SMOOTH",
"116 939 OFFCURVE",
"116 920 OFFCURVE",
"103 911 CURVE SMOOTH",
"93 904 OFFCURVE",
"70 906 OFFCURVE",
"84 890 CURVE SMOOTH",
"94 878 OFFCURVE",
"138 832 OFFCURVE",
"165 815 CURVE SMOOTH"
);
},
{
closed = 1;
nodes = (
"237 533 OFFCURVE",
"309 552 OFFCURVE",
"333 544 CURVE SMOOTH",
"358 536 OFFCURVE",
"422 486 OFFCURVE",
"451 505 CURVE SMOOTH",
"482 525 OFFCURVE",
"506 573 OFFCURVE",
"472 612 CURVE SMOOTH",
"438 652 OFFCURVE",
"435 643 OFFCURVE",
"406 671 CURVE SMOOTH",
"365 710 OFFCURVE",
"313 684 OFFCURVE",
"277 656 CURVE",
"183 696 OFFCURVE",
"118 650 OFFCURVE",
"85 627 CURVE SMOOTH",
"10 574 OFFCURVE",
"27 466 OFFCURVE",
"48 412 CURVE SMOOTH",
"69 358 OFFCURVE",
"147 353 OFFCURVE",
"146 341 CURVE SMOOTH",
"145 326 OFFCURVE",
"111 346 OFFCURVE",
"79 314 CURVE SMOOTH",
"47 282 OFFCURVE",
"40 206 OFFCURVE",
"38 156 CURVE SMOOTH",
"36 106 OFFCURVE",
"26 60 OFFCURVE",
"62 22 CURVE SMOOTH",
"87 -5 OFFCURVE",
"168 -7 OFFCURVE",
"211 -5 CURVE SMOOTH",
"313 0 OFFCURVE",
"383 35 OFFCURVE",
"402 45 CURVE SMOOTH",
"439 65 OFFCURVE",
"458 69 OFFCURVE",
"460 86 CURVE SMOOTH",
"462 103 OFFCURVE",
"436 108 OFFCURVE",
"433 115 CURVE SMOOTH",
"430 122 OFFCURVE",
"433 152 OFFCURVE",
"411 146 CURVE SMOOTH",
"385 139 OFFCURVE",
"391 118 OFFCURVE",
"379 101 CURVE SMOOTH",
"367 84 OFFCURVE",
"265 45 OFFCURVE",
"199 50 CURVE SMOOTH",
"134 55 OFFCURVE",
"126 49 OFFCURVE",
"115 63 CURVE SMOOTH",
"104 77 OFFCURVE",
"115 101 OFFCURVE",
"127 93 CURVE SMOOTH",
"139 85 OFFCURVE",
"143 72 OFFCURVE",
"171 89 CURVE SMOOTH",
"199 106 OFFCURVE",
"221 139 OFFCURVE",
"205 185 CURVE SMOOTH",
"189 231 OFFCURVE",
"138 220 OFFCURVE",
"127 203 CURVE SMOOTH",
"116 186 OFFCURVE",
"101 196 OFFCURVE",
"105 211 CURVE SMOOTH",
"109 226 OFFCURVE",
"107 247 OFFCURVE",
"137 274 CURVE SMOOTH",
"167 301 OFFCURVE",
"238 279 OFFCURVE",
"280 289 CURVE SMOOTH",
"322 299 OFFCURVE",
"309 336 OFFCURVE",
"300 337 CURVE SMOOTH",
"291 338 OFFCURVE",
"277 355 OFFCURVE",
"293 365 CURVE SMOOTH",
"309 375 OFFCURVE",
"347 429 OFFCURVE",
"265 456 CURVE SMOOTH",
"183 483 OFFCURVE",
"185 438 OFFCURVE",
"160 419 CURVE SMOOTH",
"135 400 OFFCURVE",
"105 436 OFFCURVE",
"95 485 CURVE SMOOTH",
"86 527 OFFCURVE",
"133 605 OFFCURVE",
"217 591 CURVE",
"210 576 OFFCURVE",
"207 563 OFFCURVE",
"215 555 CURVE SMOOTH"
);
},
{
closed = 1;
nodes = (
"397 620 OFFCURVE",
"428 607 OFFCURVE",
"417 586 CURVE SMOOTH",
"406 565 OFFCURVE",
"380 563 OFFCURVE",
"346 582 CURVE SMOOTH",
"311 602 OFFCURVE",
"291 582 OFFCURVE",
"281 596 CURVE SMOOTH",
"271 611 OFFCURVE",
"319 661 OFFCURVE",
"365 637 CURVE SMOOTH"
);
},
{
closed = 1;
nodes = (
"172 133 OFFCURVE",
"140 105 OFFCURVE",
"139 157 CURVE",
"140 183 OFFCURVE",
"159 182 OFFCURVE",
"165 160 CURVE SMOOTH"
);
}
);
width = 519;
}
);
note = Egrave;
unicode = 00C8;
},
{
glyphname = F;
lastChange = "2019-07-17 18:30:08 +0000";
layers = (
{
hints = (
{
horizontal = 1;
place = "{218.5, 49.83}";
type = Stem;
},
{
horizontal = 1;
place = "{462.71, 83.62}";
type = Stem;
},
{
horizontal = 1;
place = "{685, 34}";
type = Stem;
},
{
place = "{-13.24, 67.85}";
type = Stem;
},
{
place = "{145.5, 48.5}";
type = Stem;
},
{
place = "{415.75, 58.5}";
type = Stem;
},
{
horizontal = 1;
place = "{479, 47.54}";
type = Stem;
},
{
place = "{29, 43.75}";
type = Stem;
},
{
place = "{357.5, 58.5}";
type = Stem;
},
{
horizontal = 1;
place = "{342.82, 65.18}";
type = Stem;
},
{
place = "{141.87, 91.56}";
type = Stem;
}
);
layerId = "B4EEB2EB-BE69-455B-9E3C-B597DC09858D";
paths = (
{
closed = 1;
nodes = (
"256 723 OFFCURVE",
"164 697 OFFCURVE",
"108 674 CURVE SMOOTH",
"53 651 OFFCURVE",
"41 641 OFFCURVE",
"2 590 CURVE SMOOTH",
"-35 542 OFFCURVE",
"3 544 OFFCURVE",
"17 526 CURVE SMOOTH",
"31 508 OFFCURVE",
"13 442 OFFCURVE",
"65 469 CURVE SMOOTH",
"135 506 OFFCURVE",
"182 574 OFFCURVE",
"260 575 CURVE SMOOTH",
"348 576 OFFCURVE",
"417 583 OFFCURVE",
"446 610 CURVE SMOOTH",
"476 638 OFFCURVE",
"511 715 OFFCURVE",
"384 719 CURVE SMOOTH"
);
},
{
closed = 1;
nodes = (
"309 629 OFFCURVE",
"238 639 OFFCURVE",
"185 613 CURVE SMOOTH",
"136 589 OFFCURVE",
"110 564 OFFCURVE",
"88 549 CURVE SMOOTH",
"69 536 OFFCURVE",
"29 572 OFFCURVE",
"78 604 CURVE SMOOTH",
"127 636 OFFCURVE",
"184 654 OFFCURVE",
"258 670 CURVE SMOOTH",
"300 679 OFFCURVE",
"342 683 OFFCURVE",
"375 685 CURVE SMOOTH",
"427 688 OFFCURVE",
"433 649 OFFCURVE",
"371 639 CURVE SMOOTH"
);
},
{
closed = 1;
nodes = (
"248 514 OFFCURVE",
"143 487 OFFCURVE",
"91 439 CURVE SMOOTH",
"39 391 OFFCURVE",
"28 336 OFFCURVE",
"29 296 CURVE SMOOTH",
"31 207 OFFCURVE",
"88 208 OFFCURVE",
"116 233 CURVE SMOOTH",
"159 271 OFFCURVE",
"143 226 OFFCURVE",
"142 189 CURVE SMOOTH",
"141 152 OFFCURVE",
"155 103 OFFCURVE",
"119 57 CURVE SMOOTH",
"83 11 OFFCURVE",
"147 -28 OFFCURVE",
"197 -6 CURVE SMOOTH",
"247 16 OFFCURVE",
"286 90 OFFCURVE",
"238 105 CURVE SMOOTH",
"190 120 OFFCURVE",
"196 111 OFFCURVE",
"194 223 CURVE SMOOTH",
"193 271 OFFCURVE",
"248 308 OFFCURVE",
"318 315 CURVE SMOOTH",
"388 322 OFFCURVE",
"414 400 OFFCURVE",
"416 461 CURVE SMOOTH",
"418 522 OFFCURVE",
"362 534 OFFCURVE",
"306 523 CURVE"
);
},
{
closed = 1;
nodes = (
"298 368 OFFCURVE",
"280 364 OFFCURVE",
"263 359 CURVE",
"262 359 LINE",
"230 348 OFFCURVE",
"229 364 OFFCURVE",
"239 367 CURVE SMOOTH",
"251 371 OFFCURVE",
"275 378 OFFCURVE",
"298 396 CURVE SMOOTH",
"311 406 OFFCURVE",
"314 458 OFFCURVE",
"291 457 CURVE SMOOTH",
"270 456 OFFCURVE",
"203 411 OFFCURVE",
"177 408 CURVE SMOOTH",
"128 402 OFFCURVE",
"135 328 OFFCURVE",
"169 340 CURVE SMOOTH",
"203 352 OFFCURVE",
"187 326 OFFCURVE",
"156 307 CURVE SMOOTH",
"135 294 OFFCURVE",
"115 281 OFFCURVE",
"98 271 CURVE SMOOTH",
"66 253 OFFCURVE",
"65 327 OFFCURVE",
"91 372 CURVE SMOOTH",
"107 398 OFFCURVE",
"162 429 OFFCURVE",
"193 442 CURVE",
"225 454 OFFCURVE",
"267 477 OFFCURVE",
"306 479 CURVE",
"374 488 OFFCURVE",
"372 375 OFFCURVE",
"316 370 CURVE SMOOTH"
);
}
);
width = 443;
}
);
note = F;
unicode = 0046;
},
{
glyphname = G;
lastChange = "2019-07-17 18:30:08 +0000";
layers = (
{
hints = (
{
horizontal = 1;
place = "{10.74, 40.7}";
type = Stem;
},
{
horizontal = 1;
place = "{345.13, 86}";
type = Stem;
},
{
horizontal = 1;
place = "{565, 43.38}";
type = Stem;
},
{
horizontal = 1;
place = "{649.63, 53.31}";
type = Stem;
},
{
place = "{32.25, 48.48}";
type = Stem;
},
{
place = "{406, 44}";
type = Stem;
},
{
place = "{492.18, 50.72}";
type = Stem;
},
{
horizontal = 1;
place = "{243.33, 92.3}";
type = Stem;
},
{
place = "{36.11, 52.74}";
type = Stem;
},
{
place = "{419.53, 93.87}";
type = Stem;
}
);
layerId = "B4EEB2EB-BE69-455B-9E3C-B597DC09858D";
paths = (
{
closed = 1;
nodes = (
"493 447 OFFCURVE",
"435 436 OFFCURVE",
"420 408 CURVE SMOOTH",
"404 379 OFFCURVE",
"406 357 OFFCURVE",
"406 346 CURVE SMOOTH",
"406 334 OFFCURVE",
"375 328 OFFCURVE",
"379 353 CURVE",
"384 377 OFFCURVE",
"377 444 OFFCURVE",
"336 444 CURVE SMOOTH",
"259 444 OFFCURVE",
"222 377 OFFCURVE",
"208 284 CURVE SMOOTH",
"198 219 OFFCURVE",
"300 196 OFFCURVE",
"327 225 CURVE SMOOTH",
"354 253 OFFCURVE",
"392 251 OFFCURVE",
"366 209 CURVE SMOOTH",
"340 168 OFFCURVE",
"293 206 OFFCURVE",
"231 186 CURVE SMOOTH",
"198 175 OFFCURVE",
"176 155 OFFCURVE",
"166 132 CURVE",
"146 142 OFFCURVE",
"118 159 OFFCURVE",
"102 186 CURVE SMOOTH",
"81 223 OFFCURVE",
"74 270 OFFCURVE",
"88 320 CURVE",
"109 382 LINE",
"140 386 OFFCURVE",
"159 427 OFFCURVE",
"207 487 CURVE SMOOTH",
"273 570 OFFCURVE",
"336 578 OFFCURVE",
"424 553 CURVE SMOOTH",
"512 528 OFFCURVE",
"561 642 OFFCURVE",
"447 681 CURVE SMOOTH",
"403 696 OFFCURVE",
"336 713 OFFCURVE",
"265 696 CURVE SMOOTH",
"204 681 OFFCURVE",
"128 618 OFFCURVE",
"86 563 CURVE SMOOTH",
"47 512 OFFCURVE",
"12 438 OFFCURVE",
"57 400 CURVE",
"27 325 OFFCURVE",
"22 208 OFFCURVE",
"54 165 CURVE SMOOTH",
"94 111 OFFCURVE",
"123 91 OFFCURVE",
"165 75 CURVE",
"166 72 OFFCURVE",
"167 69 OFFCURVE",
"169 66 CURVE",
"194 24 OFFCURVE",
"286 -8 OFFCURVE",
"356 23 CURVE SMOOTH",
"426 54 OFFCURVE",
"531 152 OFFCURVE",
"539 217 CURVE SMOOTH",
"547 281 OFFCURVE",
"545 336 OFFCURVE",
"519 392 CURVE SMOOTH"
);
},
{
closed = 1;
nodes = (
"119 529 OFFCURVE",
"173 593 OFFCURVE",
"213 617 CURVE SMOOTH",
"259 645 OFFCURVE",
"315 657 OFFCURVE",
"381 645 CURVE SMOOTH",
"447 633 OFFCURVE",
"419 597 OFFCURVE",
"372 606 CURVE SMOOTH",
"330 614 OFFCURVE",
"269 602 OFFCURVE",
"231 578 CURVE SMOOTH",
"182 547 OFFCURVE",
"152 499 OFFCURVE",
"134 471 CURVE SMOOTH",
"110 433 OFFCURVE",
"71 444 OFFCURVE",
"98 492 CURVE SMOOTH"
);
},
{
closed = 1;
nodes = (
"428 120 OFFCURVE",
"366 63 OFFCURVE",
"330 55 CURVE SMOOTH",
"261 40 OFFCURVE",
"215 71 OFFCURVE",
"215 94 CURVE SMOOTH",
"215 117 OFFCURVE",
"237 151 OFFCURVE",
"272 149 CURVE SMOOTH",
"358 143 OFFCURVE",
"393 151 OFFCURVE",
"416 180 CURVE SMOOTH",
"440 210 OFFCURVE",
"454 263 OFFCURVE",
"450 307 CURVE SMOOTH",
"447 351 OFFCURVE",
"483 364 OFFCURVE",
"490 309 CURVE SMOOTH",
"499 243 OFFCURVE",
"482 195 OFFCURVE",
"455 158 CURVE SMOOTH"
);
}
);
width = 590;
}
);
note = G;
unicode = 0047;
},
{
glyphname = H;
lastChange = "2019-07-17 18:30:08 +0000";
layers = (
{
hints = (
{
horizontal = 1;
place = "{-17.74, 38.46}";
type = Stem;
},
{
horizontal = 1;
place = "{188.25, 61.69}";
type = Stem;
},
{
horizontal = 1;
place = "{410.82, 34.31}";
type = Stem;
},
{
place = "{311, 36}";
type = Stem;
},
{
place = "{246.06, 136.55}";
type = Stem;
},
{
horizontal = 1;
place = "{501.05, 175.95}";
type = Stem;
},
{
place = "{105, 83.4}";
type = Stem;
},
{
place = "{300.96, 47.04}";
type = Stem;
},
{
place = "{370, 25}";
type = Stem;
}
);
layerId = "B4EEB2EB-BE69-455B-9E3C-B597DC09858D";
paths = (
{
closed = 1;
nodes = (
"52 764 OFFCURVE",
"143 747 OFFCURVE",
"156 688 CURVE SMOOTH",
"166 647 OFFCURVE",
"192 606 OFFCURVE",
"226 573 CURVE SMOOTH",
"261 540 OFFCURVE",
"247 500 OFFCURVE",
"210 469 CURVE SMOOTH",
"171 438 OFFCURVE",
"140 428 OFFCURVE",
"96 494 CURVE SMOOTH",
"52 560 OFFCURVE",
"71 589 OFFCURVE",
"67 614 CURVE SMOOTH",
"63 639 OFFCURVE",
"52 646 OFFCURVE",
"52 675 CURVE SMOOTH"
);
},
{
closed = 1;
nodes = (
"33 316 OFFCURVE",
"68 411 OFFCURVE",
"160 426 CURVE SMOOTH",
"252 441 OFFCURVE",
"323 393 OFFCURVE",
"355 418 CURVE SMOOTH",
"387 443 OFFCURVE",
"392 511 OFFCURVE",
"367 587 CURVE SMOOTH",
"342 663 OFFCURVE",
"353 666 OFFCURVE",
"348 692 CURVE SMOOTH",
"343 718 OFFCURVE",
"378 686 OFFCURVE",
"392 693 CURVE SMOOTH",
"406 700 OFFCURVE",
"425 723 OFFCURVE",
"425 688 CURVE SMOOTH",
"425 653 OFFCURVE",
"442 588 OFFCURVE",
"442 535 CURVE SMOOTH",
"442 481 OFFCURVE",
"449 415 OFFCURVE",
"435 365 CURVE SMOOTH",
"422 317 OFFCURVE",
"389 277 OFFCURVE",
"326 261 CURVE SMOOTH",
"263 245 OFFCURVE",
"241 226 OFFCURVE",
"233 173 CURVE SMOOTH",
"225 120 OFFCURVE",
"213 25 OFFCURVE",
"137 2 CURVE SMOOTH",
"61 -21 OFFCURVE",
"24 23 OFFCURVE",
"27 120 CURVE SMOOTH"
);
},
{
closed = 1;
nodes = (
"163 481 OFFCURVE",
"207 514 OFFCURVE",
"180 549 CURVE SMOOTH",
"153 583 OFFCURVE",
"143 622 OFFCURVE",
"135 652 CURVE SMOOTH",
"127 683 OFFCURVE",
"97 690 OFFCURVE",
"105 645 CURVE SMOOTH",
"109 622 OFFCURVE",
"110 572 OFFCURVE",
"118 555 CURVE SMOOTH",
"127 535 OFFCURVE",
"137 523 OFFCURVE",
"142 515 CURVE SMOOTH"
);
},
{
closed = 1;
nodes = (
"88 42 OFFCURVE",
"142 51 OFFCURVE",
"154 97 CURVE SMOOTH",
"166 142 OFFCURVE",
"180 253 OFFCURVE",
"221 275 CURVE SMOOTH",
"264 298 OFFCURVE",
"313 302 OFFCURVE",
"347 316 CURVE SMOOTH",
"382 330 OFFCURVE",
"360 374 OFFCURVE",
"307 366 CURVE SMOOTH",
"254 358 OFFCURVE",
"201 384 OFFCURVE",
"165 369 CURVE SMOOTH",
"128 354 OFFCURVE",
"99 274 OFFCURVE",
"96 231 CURVE SMOOTH",
"93 188 OFFCURVE",
"91 150 OFFCURVE",
"90 110 CURVE SMOOTH"
);
},
{
closed = 1;
nodes = (
"295 29 OFFCURVE",
"308 2 OFFCURVE",
"344 -10 CURVE SMOOTH",
"377 -22 OFFCURVE",
"425 -23 OFFCURVE",
"444 8 CURVE",
"462 34 OFFCURVE",
"395 121 OFFCURVE",
"395 179 CURVE SMOOTH",
"395 268 OFFCURVE",
"311 269 OFFCURVE",
"311 206 CURVE SMOOTH",
"311 120 OFFCURVE",
"313 100 OFFCURVE",
"303 61 CURVE SMOOTH"
);
},
{
closed = 1;
nodes = (
"340 198 OFFCURVE",
"364 199 OFFCURVE",
"370 155 CURVE SMOOTH",
"376 110 OFFCURVE",
"407 58 OFFCURVE",
"402 34 CURVE",
"398 10 OFFCURVE",
"348 20 OFFCURVE",
"348 52 CURVE SMOOTH",
"348 85 OFFCURVE",
"351 119 OFFCURVE",
"347 160 CURVE"
);
}
);
width = 468;
}
);
note = H;
unicode = 0048;
},
{
glyphname = I;
lastChange = "2019-07-17 18:30:08 +0000";
layers = (
{
hints = (
{
horizontal = 1;
place = "{373.49, 26.6}";
type = Stem;
},
{
place = "{99, 27.25}";
type = Stem;
},
{
place = "{96.87, 28.75}";
type = Stem;
}
);
layerId = "B4EEB2EB-BE69-455B-9E3C-B597DC09858D";
paths = (
{
closed = 1;
nodes = (
"15 707 OFFCURVE",
"93 758 OFFCURVE",
"134 689 CURVE SMOOTH",
"175 621 OFFCURVE",
"166 493 OFFCURVE",
"154 453 CURVE SMOOTH",
"139 401 OFFCURVE",
"86 381 OFFCURVE",
"52 422 CURVE SMOOTH",
"18 463 OFFCURVE",
"28 497 OFFCURVE",
"49 541 CURVE SMOOTH",
"70 585 OFFCURVE",
"76 589 OFFCURVE",
"52 635 CURVE SMOOTH"
);
},
{
closed = 1;
nodes = (
"70 462 OFFCURVE",
"92 449 OFFCURVE",
"108 482 CURVE SMOOTH",
"135 537 OFFCURVE",
"127 606 OFFCURVE",
"116 641 CURVE SMOOTH",
"102 687 OFFCURVE",
"76 682 OFFCURVE",
"89 641 CURVE SMOOTH",
"101 602 OFFCURVE",
"106 551 OFFCURVE",
"82 492 CURVE SMOOTH"
);
},
{
closed = 1;
nodes = (
"143 355 OFFCURVE",
"158 352 OFFCURVE",
"160 257 CURVE SMOOTH",
"162 164 OFFCURVE",
"185 135 OFFCURVE",
"167 65 CURVE SMOOTH",
"149 -4 OFFCURVE",
"60 -33 OFFCURVE",
"44 37 CURVE SMOOTH",
"28 108 OFFCURVE",
"73 144 OFFCURVE",
"52 223 CURVE SMOOTH",
"42 260 OFFCURVE",
"17 327 OFFCURVE",
"38 350 CURVE SMOOTH",
"59 373 OFFCURVE",
"95 378 OFFCURVE",
"112 370 CURVE SMOOTH"
);
},
{
closed = 1;
nodes = (
"121 319 OFFCURVE",
"75 311 OFFCURVE",
"81 265 CURVE SMOOTH",
"87 220 OFFCURVE",
"88 246 OFFCURVE",
"93 202 CURVE SMOOTH",
"96 177 OFFCURVE",
"101 133 OFFCURVE",
"91 70 CURVE SMOOTH",
"88 51 OFFCURVE",
"106 39 OFFCURVE",
"117 81 CURVE SMOOTH",
"128 124 OFFCURVE",
"127 155 OFFCURVE",
"123 202 CURVE SMOOTH",
"119 250 OFFCURVE",
"124 244 OFFCURVE",
"123 272 CURVE SMOOTH"
);
}
);
width = 197;
}
);
note = I;
unicode = 0049;
},
{
glyphname = Iacute;
lastChange = "2019-07-17 18:30:08 +0000";
layers = (
{
hints = (
{
horizontal = 1;
place = "{373.49, 26.6}";
type = Stem;
},
{
horizontal = 1;
place = "{721.56, 177.62}";
type = Stem;
},
{
place = "{99, 27.25}";
type = Stem;
},
{
horizontal = 1;
place = "{749, 58}";
type = Stem;
},
{
place = "{-7.24, 49.54}";
type = Stem;
},
{
place = "{96.87, 28.75}";
type = Stem;
}
);
layerId = "B4EEB2EB-BE69-455B-9E3C-B597DC09858D";
paths = (
{
closed = 1;
nodes = (
"117 854 OFFCURVE",
"61 795 OFFCURVE",
"7 807 CURVE SMOOTH",
"-7 810 OFFCURVE",
"6 786 OFFCURVE",
"6 775 CURVE SMOOTH",
"6 764 OFFCURVE",
"-23 749 OFFCURVE",
"4 749 CURVE SMOOTH",
"34 749 OFFCURVE",
"86 765 OFFCURVE",
"123 788 CURVE SMOOTH",
"150 805 OFFCURVE",
"194 851 OFFCURVE",
"204 863 CURVE SMOOTH",
"218 879 OFFCURVE",
"195 877 OFFCURVE",
"185 884 CURVE SMOOTH",
"172 893 OFFCURVE",
"172 912 OFFCURVE",
"147 886 CURVE SMOOTH"
);
},
{
closed = 1;
nodes = (
"15 707 OFFCURVE",
"93 758 OFFCURVE",
"134 689 CURVE SMOOTH",
"175 621 OFFCURVE",
"166 493 OFFCURVE",
"154 453 CURVE SMOOTH",
"139 401 OFFCURVE",
"86 381 OFFCURVE",
"52 422 CURVE SMOOTH",
"18 463 OFFCURVE",
"28 497 OFFCURVE",
"49 541 CURVE SMOOTH",
"70 585 OFFCURVE",
"76 589 OFFCURVE",
"52 635 CURVE SMOOTH"
);
},
{
closed = 1;
nodes = (
"70 462 OFFCURVE",
"92 449 OFFCURVE",
"108 482 CURVE SMOOTH",
"135 537 OFFCURVE",
"127 606 OFFCURVE",
"116 641 CURVE SMOOTH",
"102 687 OFFCURVE",
"76 682 OFFCURVE",
"89 641 CURVE SMOOTH",
"101 602 OFFCURVE",
"106 551 OFFCURVE",
"82 492 CURVE SMOOTH"
);
},
{
closed = 1;
nodes = (
"143 355 OFFCURVE",
"158 352 OFFCURVE",
"160 257 CURVE SMOOTH",
"162 164 OFFCURVE",
"185 135 OFFCURVE",
"167 65 CURVE SMOOTH",
"149 -4 OFFCURVE",
"60 -33 OFFCURVE",
"44 37 CURVE SMOOTH",
"28 108 OFFCURVE",
"73 144 OFFCURVE",
"52 223 CURVE SMOOTH",
"42 260 OFFCURVE",
"17 327 OFFCURVE",
"38 350 CURVE SMOOTH",
"59 373 OFFCURVE",
"95 378 OFFCURVE",
"112 370 CURVE SMOOTH"
);
},
{
closed = 1;
nodes = (
"121 319 OFFCURVE",
"75 311 OFFCURVE",
"81 265 CURVE SMOOTH",
"87 220 OFFCURVE",
"88 246 OFFCURVE",
"93 202 CURVE SMOOTH",
"96 177 OFFCURVE",
"101 133 OFFCURVE",
"91 70 CURVE SMOOTH",
"88 51 OFFCURVE",
"106 39 OFFCURVE",
"117 81 CURVE SMOOTH",
"128 124 OFFCURVE",
"127 155 OFFCURVE",
"123 202 CURVE SMOOTH",
"119 250 OFFCURVE",
"124 244 OFFCURVE",
"123 272 CURVE SMOOTH"
);
}
);
width = 197;
}
);
note = Iacute;
unicode = 00CD;
},
{
glyphname = Icircumflex;
lastChange = "2019-07-17 18:30:08 +0000";
layers = (
{
hints = (
{
horizontal = 1;
place = "{373.49, 26.6}";
type = Stem;
},
{
place = "{99, 27.25}";
type = Stem;
},
{
place = "{96.87, 28.75}";
type = Stem;
}
);
layerId = "B4EEB2EB-BE69-455B-9E3C-B597DC09858D";
paths = (
{
closed = 1;
nodes = (
"174 826 OFFCURVE",
"201 749 OFFCURVE",
"255 737 CURVE SMOOTH",
"269 734 OFFCURVE",
"255 718 OFFCURVE",
"250 708 CURVE SMOOTH",
"245 698 OFFCURVE",
"259 672 OFFCURVE",
"234 684 CURVE SMOOTH",
"207 697 OFFCURVE",
"166 733 OFFCURVE",
"142 768 CURVE SMOOTH",
"124 794 OFFCURVE",
"114 832 OFFCURVE",
"110 847 CURVE",
"105 832 OFFCURVE",
"82 800 OFFCURVE",
"61 776 CURVE SMOOTH",
"32 743 OFFCURVE",
"-13 712 OFFCURVE",
"-41 704 CURVE SMOOTH",
"-67 697 OFFCURVE",
"-44 718 OFFCURVE",
"-47 729 CURVE SMOOTH",
"-50 740 OFFCURVE",
"-69 760 OFFCURVE",
"-55 760 CURVE SMOOTH",
"0 760 OFFCURVE",
"47 850 OFFCURVE",
"66 874 CURVE SMOOTH",
"99 916 OFFCURVE",
"109 896 OFFCURVE",
"119 895 CURVE SMOOTH",
"129 894 OFFCURVE",
"144 913 OFFCURVE",
"160 868 CURVE SMOOTH"
);
},
{
closed = 1;
nodes = (
"15 707 OFFCURVE",
"93 758 OFFCURVE",
"134 689 CURVE SMOOTH",
"175 621 OFFCURVE",
"166 493 OFFCURVE",
"154 453 CURVE SMOOTH",
"139 401 OFFCURVE",
"86 381 OFFCURVE",
"52 422 CURVE SMOOTH",
"18 463 OFFCURVE",
"28 497 OFFCURVE",
"49 541 CURVE SMOOTH",
"70 585 OFFCURVE",
"76 589 OFFCURVE",
"52 635 CURVE SMOOTH"
);
},
{
closed = 1;
nodes = (
"70 462 OFFCURVE",
"92 449 OFFCURVE",
"108 482 CURVE SMOOTH",
"135 537 OFFCURVE",
"127 606 OFFCURVE",
"116 641 CURVE SMOOTH",
"102 687 OFFCURVE",
"76 682 OFFCURVE",
"89 641 CURVE SMOOTH",
"101 602 OFFCURVE",
"106 551 OFFCURVE",
"82 492 CURVE SMOOTH"
);
},
{
closed = 1;
nodes = (
"143 355 OFFCURVE",
"158 352 OFFCURVE",
"160 257 CURVE SMOOTH",
"162 164 OFFCURVE",
"185 135 OFFCURVE",
"167 65 CURVE SMOOTH",
"149 -4 OFFCURVE",
"60 -33 OFFCURVE",
"44 37 CURVE SMOOTH",
"28 108 OFFCURVE",
"73 144 OFFCURVE",
"52 223 CURVE SMOOTH",
"42 260 OFFCURVE",
"17 327 OFFCURVE",
"38 350 CURVE SMOOTH",
"59 373 OFFCURVE",
"95 378 OFFCURVE",
"112 370 CURVE SMOOTH"
);
},
{
closed = 1;
nodes = (
"121 319 OFFCURVE",
"75 311 OFFCURVE",
"81 265 CURVE SMOOTH",
"87 220 OFFCURVE",
"88 246 OFFCURVE",
"93 202 CURVE SMOOTH",
"96 177 OFFCURVE",
"101 133 OFFCURVE",
"91 70 CURVE SMOOTH",
"88 51 OFFCURVE",
"106 39 OFFCURVE",
"117 81 CURVE SMOOTH",
"128 124 OFFCURVE",
"127 155 OFFCURVE",
"123 202 CURVE SMOOTH",
"119 250 OFFCURVE",
"124 244 OFFCURVE",
"123 272 CURVE SMOOTH"
);
}
);
width = 197;
}
);
note = Icircumflex;
unicode = 00CE;
},
{
glyphname = Idieresis;
lastChange = "2019-07-17 18:30:08 +0000";
layers = (
{
hints = (
{
horizontal = 1;
place = "{373.49, 26.6}";
type = Stem;
},
{
horizontal = 1;
place = "{721.56, 32.47}";
type = Stem;
},
{
place = "{54.75, 74.25}";
type = Stem;
},
{
place = "{99, 27.25}";
type = Stem;
},
{
place = "{96.87, 28.75}";
type = Stem;
}
);
layerId = "B4EEB2EB-BE69-455B-9E3C-B597DC09858D";
paths = (
{
closed = 1;
nodes = (
"129 814 OFFCURVE",
"152 837 OFFCURVE",
"174 836 CURVE SMOOTH",
"198 835 OFFCURVE",
"216 806 OFFCURVE",
"216 789 CURVE SMOOTH",
"216 773 OFFCURVE",
"198 753 OFFCURVE",
"174 753 CURVE SMOOTH",
"152 753 OFFCURVE",
"129 781 OFFCURVE",
"129 797 CURVE SMOOTH"
);
},
{
closed = 1;
nodes = (
"60 813 OFFCURVE",
"56 779 OFFCURVE",
"41 763 CURVE",
"23 747 OFFCURVE",
"-10 755 OFFCURVE",
"-21 766 CURVE",
"-33 777 OFFCURVE",
"-35 805 OFFCURVE",
"-19 822 CURVE",
"-2 838 OFFCURVE",
"38 835 OFFCURVE",
"49 824 CURVE SMOOTH"
);
},
{
closed = 1;
nodes = (
"15 707 OFFCURVE",
"93 758 OFFCURVE",
"134 689 CURVE SMOOTH",
"175 621 OFFCURVE",
"166 493 OFFCURVE",
"154 453 CURVE SMOOTH",
"139 401 OFFCURVE",
"86 381 OFFCURVE",
"52 422 CURVE SMOOTH",
"18 463 OFFCURVE",
"28 497 OFFCURVE",
"49 541 CURVE SMOOTH",
"70 585 OFFCURVE",
"76 589 OFFCURVE",
"52 635 CURVE SMOOTH"
);
},
{
closed = 1;
nodes = (
"70 462 OFFCURVE",
"92 449 OFFCURVE",
"108 482 CURVE SMOOTH",
"135 537 OFFCURVE",
"127 606 OFFCURVE",
"116 641 CURVE SMOOTH",
"102 687 OFFCURVE",
"76 682 OFFCURVE",
"89 641 CURVE SMOOTH",
"101 602 OFFCURVE",
"106 551 OFFCURVE",
"82 492 CURVE SMOOTH"
);
},
{
closed = 1;
nodes = (
"143 355 OFFCURVE",
"158 352 OFFCURVE",
"160 257 CURVE SMOOTH",
"162 164 OFFCURVE",
"185 135 OFFCURVE",
"167 65 CURVE SMOOTH",
"149 -4 OFFCURVE",
"60 -33 OFFCURVE",
"44 37 CURVE SMOOTH",
"28 108 OFFCURVE",
"73 144 OFFCURVE",
"52 223 CURVE SMOOTH",
"42 260 OFFCURVE",
"17 327 OFFCURVE",
"38 350 CURVE SMOOTH",
"59 373 OFFCURVE",
"95 378 OFFCURVE",
"112 370 CURVE SMOOTH"
);
},
{
closed = 1;
nodes = (
"121 319 OFFCURVE",
"75 311 OFFCURVE",
"81 265 CURVE SMOOTH",
"87 220 OFFCURVE",
"88 246 OFFCURVE",
"93 202 CURVE SMOOTH",
"96 177 OFFCURVE",
"101 133 OFFCURVE",
"91 70 CURVE SMOOTH",
"88 51 OFFCURVE",
"106 39 OFFCURVE",
"117 81 CURVE SMOOTH",
"128 124 OFFCURVE",
"127 155 OFFCURVE",
"123 202 CURVE SMOOTH",
"119 250 OFFCURVE",
"124 244 OFFCURVE",
"123 272 CURVE SMOOTH"
);
}
);
width = 197;
}
);
note = Idieresis;
unicode = 00CF;
},
{
glyphname = Igrave;
lastChange = "2019-07-17 18:30:08 +0000";
layers = (
{
hints = (
{
horizontal = 1;
place = "{373.49, 26.6}";
type = Stem;
},
{
horizontal = 1;
place = "{721.56, 160.62}";
type = Stem;
},
{
place = "{99, 27.25}";
type = Stem;
},
{
horizontal = 1;
place = "{732, 58}";
type = Stem;
},
{
place = "{163.87, 52.35}";
type = Stem;
},
{
place = "{96.87, 28.75}";
type = Stem;
}
);
layerId = "B4EEB2EB-BE69-455B-9E3C-B597DC09858D";
paths = (
{
closed = 1;
nodes = (
"37 895 OFFCURVE",
"37 876 OFFCURVE",
"24 867 CURVE SMOOTH",
"14 860 OFFCURVE",
"-9 862 OFFCURVE",
"5 846 CURVE SMOOTH",
"15 834 OFFCURVE",
"59 788 OFFCURVE",
"86 771 CURVE SMOOTH",
"123 748 OFFCURVE",
"175 732 OFFCURVE",
"205 732 CURVE SMOOTH",
"232 732 OFFCURVE",
"203 747 OFFCURVE",
"203 758 CURVE SMOOTH",
"203 769 OFFCURVE",
"216 793 OFFCURVE",
"202 790 CURVE SMOOTH",
"148 778 OFFCURVE",
"92 837 OFFCURVE",
"62 869 CURVE SMOOTH"
);
},
{
closed = 1;
nodes = (
"15 707 OFFCURVE",
"93 758 OFFCURVE",
"134 689 CURVE SMOOTH",
"175 621 OFFCURVE",
"166 493 OFFCURVE",
"154 453 CURVE SMOOTH",
"139 401 OFFCURVE",
"86 381 OFFCURVE",
"52 422 CURVE SMOOTH",
"18 463 OFFCURVE",
"28 497 OFFCURVE",
"49 541 CURVE SMOOTH",
"70 585 OFFCURVE",
"76 589 OFFCURVE",
"52 635 CURVE SMOOTH"
);
},
{
closed = 1;
nodes = (
"70 462 OFFCURVE",
"92 449 OFFCURVE",
"108 482 CURVE SMOOTH",
"135 537 OFFCURVE",
"127 606 OFFCURVE",
"116 641 CURVE SMOOTH",
"102 687 OFFCURVE",
"76 682 OFFCURVE",
"89 641 CURVE SMOOTH",
"101 602 OFFCURVE",
"106 551 OFFCURVE",
"82 492 CURVE SMOOTH"
);
},
{
closed = 1;
nodes = (
"143 355 OFFCURVE",
"158 352 OFFCURVE",
"160 257 CURVE SMOOTH",
"162 164 OFFCURVE",
"185 135 OFFCURVE",
"167 65 CURVE SMOOTH",
"149 -4 OFFCURVE",
"60 -33 OFFCURVE",
"44 37 CURVE SMOOTH",
"28 108 OFFCURVE",
"73 144 OFFCURVE",
"52 223 CURVE SMOOTH",
"42 260 OFFCURVE",
"17 327 OFFCURVE",
"38 350 CURVE SMOOTH",
"59 373 OFFCURVE",
"95 378 OFFCURVE",
"112 370 CURVE SMOOTH"
);
},
{
closed = 1;
nodes = (
"121 319 OFFCURVE",
"75 311 OFFCURVE",
"81 265 CURVE SMOOTH",
"87 220 OFFCURVE",
"88 246 OFFCURVE",
"93 202 CURVE SMOOTH",
"96 177 OFFCURVE",
"101 133 OFFCURVE",
"91 70 CURVE SMOOTH",
"88 51 OFFCURVE",
"106 39 OFFCURVE",
"117 81 CURVE SMOOTH",
"128 124 OFFCURVE",
"127 155 OFFCURVE",
"123 202 CURVE SMOOTH",
"119 250 OFFCURVE",
"124 244 OFFCURVE",
"123 272 CURVE SMOOTH"
);
}
);
width = 197;
}
);
note = Igrave;
unicode = 00CC;
},
{
glyphname = J;
lastChange = "2019-07-17 18:30:08 +0000";
layers = (
{
hints = (
{
horizontal = 1;
place = "{-55.49, 51.26}";
type = Stem;
},
{
horizontal = 1;
place = "{195.88, 39.17}";
type = Stem;
},
{
horizontal = 1;
place = "{606.03, 14.13}";
type = Stem;
},
{
horizontal = 1;
place = "{628.51, 82.39}";
type = Stem;
},
{
place = "{73.74, 52.37}";
type = Stem;
},
{
place = "{258, 114.01}";
type = Stem;
},
{
place = "{500, 61.62}";
type = Stem;
},
{
place = "{495.45, 46.05}";
type = Stem;
}
);
layerId = "B4EEB2EB-BE69-455B-9E3C-B597DC09858D";
paths = (
{
closed = 1;
nodes = (
"578 564 OFFCURVE",
"572 665 OFFCURVE",
"513 700 CURVE SMOOTH",
"454 735 OFFCURVE",
"423 678 OFFCURVE",
"388 650 CURVE SMOOTH",
"371 637 OFFCURVE",
"353 596 OFFCURVE",
"305 639 CURVE SMOOTH",
"273 667 OFFCURVE",
"213 667 OFFCURVE",
"160 662 CURVE SMOOTH",
"60 653 OFFCURVE",
"100 635 OFFCURVE",
"106 614 CURVE SMOOTH",
"112 592 OFFCURVE",
"95 570 OFFCURVE",
"157 596 CURVE SMOOTH",
"219 622 OFFCURVE",
"286 593 OFFCURVE",
"309 562 CURVE SMOOTH",
"336 525 OFFCURVE",
"378 546 OFFCURVE",
"396 569 CURVE SMOOTH",
"449 636 OFFCURVE",
"503 652 OFFCURVE",
"500 588 CURVE SMOOTH",
"497 524 OFFCURVE",
"442 436 OFFCURVE",
"427 407 CURVE SMOOTH",
"412 378 OFFCURVE",
"381 383 OFFCURVE",
"363 431 CURVE SMOOTH",
"345 479 OFFCURVE",
"315 478 OFFCURVE",
"291 446 CURVE SMOOTH",
"272 420 OFFCURVE",
"253 388 OFFCURVE",
"258 304 CURVE SMOOTH",
"263 220 OFFCURVE",
"288 182 OFFCURVE",
"345 191 CURVE SMOOTH",
"402 200 OFFCURVE",
"389 240 OFFCURVE",
"376 273 CURVE SMOOTH",
"363 306 OFFCURVE",
"382 338 OFFCURVE",
"418 329 CURVE SMOOTH",
"457 319 OFFCURVE",
"477 244 OFFCURVE",
"492 196 CURVE SMOOTH",
"506 151 OFFCURVE",
"482 101 OFFCURVE",
"415 83 CURVE",
"409 90 OFFCURVE",
"400 97 OFFCURVE",
"389 101 CURVE SMOOTH",
"345 118 OFFCURVE",
"291 101 OFFCURVE",
"257 119 CURVE SMOOTH",
"223 137 OFFCURVE",
"265 196 OFFCURVE",
"175 226 CURVE SMOOTH",
"85 256 OFFCURVE",
"50 208 OFFCURVE",
"90 140 CURVE SMOOTH",
"126 79 OFFCURVE",
"190 -7 OFFCURVE",
"272 -43 CURVE SMOOTH",
"354 -79 OFFCURVE",
"403 -29 OFFCURVE",
"421 3 CURVE SMOOTH",
"460 73 OFFCURVE",
"484 62 OFFCURVE",
"516 100 CURVE SMOOTH",
"545 134 OFFCURVE",
"555 194 OFFCURVE",
"516 273 CURVE SMOOTH",
"477 352 OFFCURVE",
"482 396 OFFCURVE",
"530 480 CURVE SMOOTH"
);
},
{
closed = 1;
nodes = (
"357 -24 OFFCURVE",
"295 4 OFFCURVE",
"251 30 CURVE SMOOTH",
"207 56 OFFCURVE",
"136 138 OFFCURVE",
"129 159 CURVE SMOOTH",
"112 210 OFFCURVE",
"175 204 OFFCURVE",
"190 166 CURVE SMOOTH",
"227 72 OFFCURVE",
"247 78 OFFCURVE",
"303 67 CURVE SMOOTH",
"347 58 OFFCURVE",
"402 67 OFFCURVE",
"376 15 CURVE SMOOTH"
);
}
);
width = 592;
}
);
note = J;
unicode = 004A;
},
{
glyphname = K;
lastChange = "2019-07-17 18:30:08 +0000";
layers = (
{
hints = (
{
horizontal = 1;
place = "{14.75, 40}";
type = Stem;
},
{
place = "{80.12, 30.88}";
type = Stem;
},
{
place = "{298.12, 23.06}";
type = Stem;
},
{
place = "{353, 48.32}";
type = Stem;
},
{
place = "{457.37, 58.2}";
type = Stem;
},
{
place = "{36.42, 60.58}";
type = Stem;
},
{
place = "{44.98, 66.02}";
type = Stem;
},
{
horizontal = 1;
place = "{202.27, 40}";
type = Stem;
},
{
horizontal = 1;
place = "{89.19, 192.66}";
type = Stem;
},
{
place = "{31, 69}";
type = Stem;
},
{
place = "{331.6, 68.9}";
type = Stem;
}
);
layerId = "B4EEB2EB-BE69-455B-9E3C-B597DC09858D";
paths = (
{
closed = 1;
nodes = (
"241 442 OFFCURVE",
"261 463 OFFCURVE",
"286 483 CURVE SMOOTH",
"311 503 OFFCURVE",
"328 529 OFFCURVE",
"319 571 CURVE SMOOTH",
"310 613 OFFCURVE",
"306 672 OFFCURVE",
"361 692 CURVE SMOOTH",
"416 712 OFFCURVE",
"487 688 OFFCURVE",
"474 648 CURVE SMOOTH",
"461 608 OFFCURVE",
"433 583 OFFCURVE",
"447 540 CURVE SMOOTH",
"461 497 OFFCURVE",
"440 466 OFFCURVE",
"406 428 CURVE SMOOTH",
"372 390 OFFCURVE",
"323 354 OFFCURVE",
"277 367 CURVE SMOOTH",
"266 370 OFFCURVE",
"254 382 OFFCURVE",
"248 399 CURVE"
);
},
{
closed = 1;
nodes = (
"34 -4 OFFCURVE",
"60 8 OFFCURVE",
"71 7 CURVE SMOOTH",
"82 6 OFFCURVE",
"111 -24 OFFCURVE",
"111 9 CURVE SMOOTH",
"111 42 OFFCURVE",
"100 136 OFFCURVE",
"97 178 CURVE SMOOTH",
"94 220 OFFCURVE",
"117 202 OFFCURVE",
"115 168 CURVE SMOOTH",
"113 134 OFFCURVE",
"137 71 OFFCURVE",
"183 94 CURVE SMOOTH",
"229 117 OFFCURVE",
"262 190 OFFCURVE",
"255 217 CURVE SMOOTH",
"236 287 OFFCURVE",
"162 297 OFFCURVE",
"147 263 CURVE SMOOTH",
"132 229 OFFCURVE",
"106 238 OFFCURVE",
"111 278 CURVE SMOOTH",
"116 318 OFFCURVE",
"124 371 OFFCURVE",
"144 382 CURVE SMOOTH",
"164 393 OFFCURVE",
"196 353 OFFCURVE",
"207 342 CURVE SMOOTH",
"254 296 OFFCURVE",
"275 301 OFFCURVE",
"313 233 CURVE SMOOTH",
"337 190 OFFCURVE",
"356 132 OFFCURVE",
"352 118 CURVE SMOOTH",
"348 104 OFFCURVE",
"313 81 OFFCURVE",
"344 43 CURVE SMOOTH",
"375 5 OFFCURVE",
"466 6 OFFCURVE",
"497 42 CURVE SMOOTH",
"528 78 OFFCURVE",
"520 134 OFFCURVE",
"476 148 CURVE SMOOTH",
"432 162 OFFCURVE",
"388 143 OFFCURVE",
"377 199 CURVE SMOOTH",
"366 255 OFFCURVE",
"327 314 OFFCURVE",
"290 342 CURVE SMOOTH",
"253 370 OFFCURVE",
"238 400 OFFCURVE",
"199 415 CURVE SMOOTH",
"162 429 OFFCURVE",
"149 426 OFFCURVE",
"143 494 CURVE SMOOTH",
"137 562 OFFCURVE",
"100 598 OFFCURVE",
"100 645 CURVE SMOOTH",
"100 692 OFFCURVE",
"87 692 OFFCURVE",
"69 685 CURVE SMOOTH",
"51 678 OFFCURVE",
"24 686 OFFCURVE",
"31 649 CURVE SMOOTH",
"38 612 OFFCURVE",
"74 608 OFFCURVE",
"77 510 CURVE SMOOTH",
"80 412 OFFCURVE",
"87 431 OFFCURVE",
"63 331 CURVE SMOOTH",
"39 231 OFFCURVE",
"30 219 OFFCURVE",
"41 159 CURVE SMOOTH",
"52 99 OFFCURVE",
"37 70 OFFCURVE",
"35 33 CURVE SMOOTH"
);
},
{
closed = 1;
nodes = (
"290 410 OFFCURVE",
"305 397 OFFCURVE",
"324 414 CURVE SMOOTH",
"343 431 OFFCURVE",
"367 461 OFFCURVE",
"386 490 CURVE SMOOTH",
"405 519 OFFCURVE",
"403 542 OFFCURVE",
"399 573 CURVE SMOOTH",
"395 604 OFFCURVE",
"411 625 OFFCURVE",
"420 642 CURVE SMOOTH",
"429 659 OFFCURVE",
"379 650 OFFCURVE",
"362 617 CURVE SMOOTH",
"345 584 OFFCURVE",
"357 572 OFFCURVE",
"356 548 CURVE SMOOTH",
"355 524 OFFCURVE",
"346 488 OFFCURVE",
"330 473 CURVE SMOOTH",
"314 458 OFFCURVE",
"307 443 OFFCURVE",
"303 432 CURVE"
);
},
{
closed = 1;
nodes = (
"411 101 OFFCURVE",
"435 104 OFFCURVE",
"448 94 CURVE SMOOTH",
"461 84 OFFCURVE",
"459 75 OFFCURVE",
"451 63 CURVE SMOOTH",
"443 51 OFFCURVE",
"426 55 OFFCURVE",
"412 57 CURVE SMOOTH",
"398 59 OFFCURVE",
"398 76 OFFCURVE",
"404 88 CURVE SMOOTH"
);
}
);
width = 546;
}
);
note = K;
unicode = 004B;
},
{
glyphname = L;
lastChange = "2019-07-17 18:30:08 +0000";
layers = (
{
hints = (
{
horizontal = 1;
place = "{46, 64.34}";
type = Stem;
},
{
horizontal = 1;
place = "{301.26, 52.68}";
type = Stem;
},
{
place = "{109.58, 64.42}";
type = Stem;
},
{
place = "{207.46, 25.79}";
type = Stem;
},
{
place = "{310.37, 45.43}";
type = Stem;
},
{
place = "{52.75, 67.15}";
type = Stem;
},
{
horizontal = 1;
place = "{-45.83, 83.42}";
type = Stem;
},
{
horizontal = 1;
place = "{106.99, 53.56}";
type = Stem;
},
{
place = "{138, 61}";
type = Stem;
},
{
horizontal = 1;
place = "{292, 83.68}";
type = Stem;
},
{
place = "{30.87, 65.13}";
type = Stem;
},
{
place = "{199.82, 74.64}";
type = Stem;
},
{
horizontal = 1;
place = "{-3, 73.18}";
type = Stem;
}
);
layerId = "B4EEB2EB-BE69-455B-9E3C-B597DC09858D";
paths = (
{
closed = 1;
nodes = (
"548 52 OFFCURVE",
"559 86 OFFCURVE",
"521 76 CURVE SMOOTH",
"437 54 OFFCURVE",
"435 97 OFFCURVE",
"351 108 CURVE SMOOTH",
"273 118 OFFCURVE",
"236 97 OFFCURVE",
"186 61 CURVE SMOOTH",
"127 19 OFFCURVE",
"96 35 OFFCURVE",
"141 97 CURVE SMOOTH",
"155 116 OFFCURVE",
"172 199 OFFCURVE",
"174 236 CURVE SMOOTH",
"175 253 OFFCURVE",
"175 267 OFFCURVE",
"174 279 CURVE",
"193 264 OFFCURVE",
"218 221 OFFCURVE",
"203 188 CURVE SMOOTH",
"183 143 OFFCURVE",
"218 119 OFFCURVE",
"245 109 CURVE SMOOTH",
"265 102 OFFCURVE",
"299 112 OFFCURVE",
"321 142 CURVE SMOOTH",
"361 197 OFFCURVE",
"369 267 OFFCURVE",
"334 335 CURVE SMOOTH",
"317 368 OFFCURVE",
"238 356 OFFCURVE",
"239 314 CURVE SMOOTH",
"240 282 OFFCURVE",
"231 292 OFFCURVE",
"218 306 CURVE",
"178 333 LINE",
"191 354 OFFCURVE",
"199 381 OFFCURVE",
"199 410 CURVE SMOOTH",
"199 499 OFFCURVE",
"224 538 OFFCURVE",
"244 573 CURVE SMOOTH",
"264 608 OFFCURVE",
"293 668 OFFCURVE",
"259 698 CURVE SMOOTH",
"227 727 OFFCURVE",
"206 714 OFFCURVE",
"141 646 CURVE SMOOTH",
"101 604 OFFCURVE",
"79 562 OFFCURVE",
"68 527 CURVE SMOOTH",
"53 479 OFFCURVE",
"18 427 OFFCURVE",
"35 373 CURVE SMOOTH",
"49 330 OFFCURVE",
"64 291 OFFCURVE",
"106 292 CURVE",
"109 235 OFFCURVE",
"122 188 OFFCURVE",
"69 98 CURVE SMOOTH",
"15 6 OFFCURVE",
"106 -76 OFFCURVE",
"167 -35 CURVE SMOOTH",
"254 24 OFFCURVE",
"254 43 OFFCURVE",
"329 46 CURVE SMOOTH",
"404 49 OFFCURVE",
"433 -9 OFFCURVE",
"524 -3 CURVE SMOOTH",
"615 3 OFFCURVE",
"546 28 OFFCURVE",
"547 40 CURVE SMOOTH"
);
},
{
closed = 1;
nodes = (
"99 456 OFFCURVE",
"113 517 OFFCURVE",
"138 560 CURVE SMOOTH",
"160 598 OFFCURVE",
"177 624 OFFCURVE",
"191 617 CURVE SMOOTH",
"218 604 OFFCURVE",
"176 561 OFFCURVE",
"162 519 CURVE SMOOTH",
"139 451 OFFCURVE",
"144 430 OFFCURVE",
"138 399 CURVE SMOOTH",
"128 350 OFFCURVE",
"91 386 OFFCURVE",
"96 430 CURVE SMOOTH"
);
},
{
closed = 1;
nodes = (
"291 230 OFFCURVE",
"263 265 OFFCURVE",
"271 281 CURVE SMOOTH",
"280 299 OFFCURVE",
"288 306 OFFCURVE",
"301 298 CURVE SMOOTH",
"312 291 OFFCURVE",
"314 240 OFFCURVE",
"304 209 CURVE SMOOTH",
"296 185 OFFCURVE",
"269 151 OFFCURVE",
"247 163 CURVE SMOOTH",
"226 174 OFFCURVE",
"231 205 OFFCURVE",
"248 212 CURVE SMOOTH"
);
}
);
width = 581;
}
);
note = L;
unicode = 004C;
},
{
glyphname = M;
lastChange = "2019-07-17 18:30:08 +0000";
layers = (
{
hints = (
{
horizontal = 1;
place = "{9, 66.75}";
type = Stem;
},
{
horizontal = 1;
place = "{385.09, 52.6}";
type = Stem;
},
{
horizontal = 1;
place = "{615.25, 83.25}";
type = Stem;
},
{
place = "{32, 58}";
type = Stem;
},
{
place = "{239, 51.19}";
type = Stem;
},
{
place = "{474.92, 58.27}";
type = Stem;
},
{
place = "{570, 34}";
type = Stem;
},
{
place = "{700.35, 46.65}";
type = Stem;
},
{
place = "{303.53, 87.21}";
type = Stem;
},
{
horizontal = 1;
place = "{44.75, 63.58}";
type = Stem;
},
{
horizontal = 1;
place = "{345.84, 173.2}";
type = Stem;
},
{
place = "{412, 56.41}";
type = Stem;
},
{
horizontal = 1;
place = "{646.38, 67.37}";
type = Stem;
}
);
layerId = "B4EEB2EB-BE69-455B-9E3C-B597DC09858D";
paths = (
{
closed = 1;
nodes = (
"21 36 OFFCURVE",
"71 -30 OFFCURVE",
"128 -15 CURVE SMOOTH",
"185 0 OFFCURVE",
"262 -7 OFFCURVE",
"278 61 CURVE SMOOTH",
"294 129 OFFCURVE",
"268 267 OFFCURVE",
"285 335 CURVE SMOOTH",
"302 403 OFFCURVE",
"278 469 OFFCURVE",
"222 485 CURVE SMOOTH",
"178 498 OFFCURVE",
"229 537 OFFCURVE",
"239 576 CURVE SMOOTH",
"256 644 OFFCURVE",
"323 615 OFFCURVE",
"334 557 CURVE SMOOTH",
"345 498 OFFCURVE",
"287 369 OFFCURVE",
"308 268 CURVE SMOOTH",
"322 202 OFFCURVE",
"389 96 OFFCURVE",
"424 65 CURVE SMOOTH",
"458 35 OFFCURVE",
"504 36 OFFCURVE",
"518 80 CURVE SMOOTH",
"526 105 OFFCURVE",
"488 197 OFFCURVE",
"473 254 CURVE SMOOTH",
"451 337 OFFCURVE",
"513 366 OFFCURVE",
"519 332 CURVE SMOOTH",
"524 304 OFFCURVE",
"528 285 OFFCURVE",
"533 262 CURVE SMOOTH",
"545 198 OFFCURVE",
"557 134 OFFCURVE",
"570 42 CURVE SMOOTH",
"579 -24 OFFCURVE",
"669 20 OFFCURVE",
"689 76 CURVE SMOOTH",
"709 132 OFFCURVE",
"742 268 OFFCURVE",
"747 373 CURVE SMOOTH",
"752 477 OFFCURVE",
"691 611 OFFCURVE",
"637 675 CURVE SMOOTH",
"583 739 OFFCURVE",
"523 716 OFFCURVE",
"501 670 CURVE SMOOTH",
"479 623 OFFCURVE",
"461 552 OFFCURVE",
"490 458 CURVE SMOOTH",
"501 420 OFFCURVE",
"412 355 OFFCURVE",
"412 312 CURVE SMOOTH",
"412 242 OFFCURVE",
"450 171 OFFCURVE",
"463 141 CURVE SMOOTH",
"475 113 OFFCURVE",
"460 89 OFFCURVE",
"435 131 CURVE SMOOTH",
"417 162 OFFCURVE",
"380 195 OFFCURVE",
"367 278 CURVE SMOOTH",
"351 378 OFFCURVE",
"410 515 OFFCURVE",
"385 623 CURVE SMOOTH",
"360 730 OFFCURVE",
"207 709 OFFCURVE",
"182 648 CURVE SMOOTH",
"161 597 OFFCURVE",
"135 475 OFFCURVE",
"107 395 CURVE SMOOTH",
"55 248 OFFCURVE",
"42 217 OFFCURVE",
"32 132 CURVE SMOOTH"
);
},
{
closed = 1;
nodes = (
"557 660 OFFCURVE",
"589 652 OFFCURVE",
"609 624 CURVE SMOOTH",
"634 589 OFFCURVE",
"653 545 OFFCURVE",
"672 508 CURVE",
"681 485 OFFCURVE",
"700 405 OFFCURVE",
"671 452 CURVE SMOOTH",
"590 584 OFFCURVE",
"544 485 OFFCURVE",
"567 458 CURVE SMOOTH",
"619 397 OFFCURVE",
"563 361 OFFCURVE",
"604 349 CURVE SMOOTH",
"614 346 OFFCURVE",
"652 347 OFFCURVE",
"678 378 CURVE SMOOTH",
"699 403 OFFCURVE",
"704 359 OFFCURVE",
"698 327 CURVE",
"687 283 OFFCURVE",
"661 176 OFFCURVE",
"650 126 CURVE SMOOTH",
"637 66 OFFCURVE",
"604 52 OFFCURVE",
"604 126 CURVE SMOOTH",
"604 272 OFFCURVE",
"561 347 OFFCURVE",
"545 435 CURVE SMOOTH",
"533 501 OFFCURVE",
"527 563 OFFCURVE",
"542 611 CURVE SMOOTH"
);
},
{
closed = 1;
nodes = (
"97 214 OFFCURVE",
"143 296 OFFCURVE",
"149 345 CURVE SMOOTH",
"158 418 OFFCURVE",
"243 456 OFFCURVE",
"239 373 CURVE SMOOTH",
"235 290 OFFCURVE",
"200 183 OFFCURVE",
"212 122 CURVE SMOOTH",
"224 61 OFFCURVE",
"180 59 OFFCURVE",
"162 52 CURVE SMOOTH",
"119 36 OFFCURVE",
"83 82 OFFCURVE",
"90 146 CURVE SMOOTH"
);
}
);
width = 777;
}
);
note = M;
unicode = 004D;
},
{
glyphname = N;
lastChange = "2019-07-17 18:30:08 +0000";
layers = (
{
hints = (
{
horizontal = 1;
place = "{-12.88, 58.53}";
type = Stem;
},
{
horizontal = 1;
place = "{490.25, 52.9}";
type = Stem;
},
{
horizontal = 1;
place = "{613.32, 73.68}";
type = Stem;
},
{
place = "{30.47, 53.53}";
type = Stem;
},
{
place = "{141, 80}";
type = Stem;
},
{
place = "{272.14, 75.41}";
type = Stem;
},
{
place = "{509.75, 138.37}";
type = Stem;
},
{
horizontal = 1;
place = "{25, 91.49}";
type = Stem;
},
{
place = "{334, 66.42}";
type = Stem;
},
{
place = "{478.62, 57.38}";
type = Stem;
},
{
place = "{571, 73}";
type = Stem;
},
{
place = "{268.06, 56.44}";
type = Stem;
}
);
layerId = "B4EEB2EB-BE69-455B-9E3C-B597DC09858D";
paths = (
{
closed = 1;
nodes = (
"502 686 OFFCURVE",
"502 638 OFFCURVE",
"518 594 CURVE SMOOTH",
"534 550 OFFCURVE",
"507 518 OFFCURVE",
"493 570 CURVE SMOOTH",
"466 670 OFFCURVE",
"457 635 OFFCURVE",
"443 629 CURVE SMOOTH",
"429 623 OFFCURVE",
"391 635 OFFCURVE",
"404 608 CURVE SMOOTH",
"428 558 OFFCURVE",
"444 499 OFFCURVE",
"464 377 CURVE SMOOTH",
"483 264 OFFCURVE",
"484 179 OFFCURVE",
"464 138 CURVE SMOOTH",
"442 93 OFFCURVE",
"385 123 OFFCURVE",
"394 180 CURVE SMOOTH",
"403 239 OFFCURVE",
"407 307 OFFCURVE",
"376 373 CURVE SMOOTH",
"345 440 OFFCURVE",
"336 483 OFFCURVE",
"365 566 CURVE SMOOTH",
"394 648 OFFCURVE",
"326 684 OFFCURVE",
"290 687 CURVE SMOOTH",
"254 690 OFFCURVE",
"151 677 OFFCURVE",
"141 542 CURVE SMOOTH",
"132 426 OFFCURVE",
"256 309 OFFCURVE",
"158 235 CURVE SMOOTH",
"120 206 OFFCURVE",
"122 157 OFFCURVE",
"87 143 CURVE SMOOTH",
"13 113 OFFCURVE",
"25 53 OFFCURVE",
"47 21 CURVE SMOOTH",
"62 -1 OFFCURVE",
"99 -23 OFFCURVE",
"135 -8 CURVE SMOOTH",
"204 21 OFFCURVE",
"259 52 OFFCURVE",
"290 84 CURVE SMOOTH",
"338 134 OFFCURVE",
"331 189 OFFCURVE",
"299 223 CURVE SMOOTH",
"266 259 OFFCURVE",
"227 462 OFFCURVE",
"221 529 CURVE SMOOTH",
"215 595 OFFCURVE",
"313 646 OFFCURVE",
"301 588 CURVE SMOOTH",
"289 530 OFFCURVE",
"247 462 OFFCURVE",
"293 362 CURVE SMOOTH",
"339 262 OFFCURVE",
"335 190 OFFCURVE",
"334 148 CURVE SMOOTH",
"332 79 OFFCURVE",
"381 24 OFFCURVE",
"437 25 CURVE SMOOTH",
"493 26 OFFCURVE",
"532 108 OFFCURVE",
"536 195 CURVE SMOOTH",
"540 285 OFFCURVE",
"530 408 OFFCURVE",
"518 452 CURVE SMOOTH",
"505 500 OFFCURVE",
"552 525 OFFCURVE",
"571 389 CURVE SMOOTH",
"577 346 OFFCURVE",
"639 371 OFFCURVE",
"644 457 CURVE SMOOTH",
"655 647 OFFCURVE",
"648 712 OFFCURVE",
"575 699 CURVE SMOOTH"
);
},
{
closed = 1;
nodes = (
"245 92 OFFCURVE",
"161 63 OFFCURVE",
"136 53 CURVE SMOOTH",
"94 36 OFFCURVE",
"87 51 OFFCURVE",
"84 65 CURVE SMOOTH",
"81 79 OFFCURVE",
"84 98 OFFCURVE",
"122 117 CURVE SMOOTH",
"168 140 OFFCURVE",
"157 163 OFFCURVE",
"194 190 CURVE SMOOTH",
"231 217 OFFCURVE",
"253 195 OFFCURVE",
"264 173 CURVE SMOOTH",
"274 152 OFFCURVE",
"264 127 OFFCURVE",
"254 109 CURVE SMOOTH"
);
}
);
width = 668;
}
);
note = N;
unicode = 004E;
},
{
glyphname = Ntilde;
lastChange = "2019-07-17 18:30:08 +0000";
layers = (
{
hints = (
{
horizontal = 1;
place = "{-12.88, 58.53}";
type = Stem;
},
{
horizontal = 1;
place = "{490.25, 52.9}";
type = Stem;
},
{
horizontal = 1;
place = "{706.2, 56.87}";
type = Stem;
},
{
horizontal = 1;
place = "{835.66, 52.34}";
type = Stem;
},
{
place = "{30.47, 53.53}";
type = Stem;
},
{
place = "{141, 80}";
type = Stem;
},
{
place = "{277, 51}";
type = Stem;
},
{
place = "{477.1, 51.9}";
type = Stem;
},
{
place = "{571, 73}";
type = Stem;
},
{
place = "{272.14, 75.41}";
type = Stem;
},
{
place = "{509.75, 138.37}";
type = Stem;
},
{
horizontal = 1;
place = "{25, 91.49}";
type = Stem;
},
{
place = "{334, 66.42}";
type = Stem;
},
{
place = "{478.62, 57.38}";
type = Stem;
},
{
horizontal = 1;
place = "{613.32, 73.68}";
type = Stem;
},
{
place = "{268.06, 56.44}";
type = Stem;
}
);
layerId = "B4EEB2EB-BE69-455B-9E3C-B597DC09858D";
paths = (
{
closed = 1;
nodes = (
"266 733 OFFCURVE",
"274 717 OFFCURVE",
"283 732 CURVE SMOOTH",
"290 744 OFFCURVE",
"324 793 OFFCURVE",
"328 828 CURVE SMOOTH",
"329 837 OFFCURVE",
"346 846 OFFCURVE",
"356 808 CURVE SMOOTH",
"361 788 OFFCURVE",
"359 752 OFFCURVE",
"376 735 CURVE SMOOTH",
"406 705 OFFCURVE",
"446 693 OFFCURVE",
"476 725 CURVE SMOOTH",
"500 750 OFFCURVE",
"529 783 OFFCURVE",
"529 818 CURVE SMOOTH",
"529 855 OFFCURVE",
"528 863 OFFCURVE",
"517 881 CURVE SMOOTH",
"507 898 OFFCURVE",
"500 881 OFFCURVE",
"492 881 CURVE SMOOTH",
"481 881 OFFCURVE",
"461 897 OFFCURVE",
"463 878 CURVE SMOOTH",
"464 869 OFFCURVE",
"484 841 OFFCURVE",
"475 815 CURVE SMOOTH",
"459 768 OFFCURVE",
"417 740 OFFCURVE",
"407 788 CURVE SMOOTH",
"402 812 OFFCURVE",
"397 837 OFFCURVE",
"389 853 CURVE SMOOTH",
"372 887 OFFCURVE",
"345 893 OFFCURVE",
"317 888 CURVE SMOOTH",
"296 884 OFFCURVE",
"277 861 OFFCURVE",
"277 832 CURVE SMOOTH",
"277 799 OFFCURVE",
"253 769 OFFCURVE",
"246 762 CURVE SMOOTH",
"223 739 OFFCURVE",
"255 744 OFFCURVE",
"261 738 CURVE SMOOTH"
);
},
{
closed = 1;
nodes = (
"502 686 OFFCURVE",
"502 638 OFFCURVE",
"518 594 CURVE SMOOTH",
"534 550 OFFCURVE",
"507 518 OFFCURVE",
"493 570 CURVE SMOOTH",
"466 670 OFFCURVE",
"457 635 OFFCURVE",
"443 629 CURVE SMOOTH",
"429 623 OFFCURVE",
"391 635 OFFCURVE",
"404 608 CURVE SMOOTH",
"428 558 OFFCURVE",
"444 499 OFFCURVE",
"464 377 CURVE SMOOTH",
"483 264 OFFCURVE",
"484 179 OFFCURVE",
"464 138 CURVE SMOOTH",
"442 93 OFFCURVE",
"385 123 OFFCURVE",
"394 180 CURVE SMOOTH",
"403 239 OFFCURVE",
"407 307 OFFCURVE",
"376 373 CURVE SMOOTH",
"345 440 OFFCURVE",
"336 483 OFFCURVE",
"365 566 CURVE SMOOTH",
"394 648 OFFCURVE",
"326 684 OFFCURVE",
"290 687 CURVE SMOOTH",
"254 690 OFFCURVE",
"151 677 OFFCURVE",
"141 542 CURVE SMOOTH",
"132 426 OFFCURVE",
"256 309 OFFCURVE",
"158 235 CURVE SMOOTH",
"120 206 OFFCURVE",
"122 157 OFFCURVE",
"87 143 CURVE SMOOTH",
"13 113 OFFCURVE",
"25 53 OFFCURVE",
"47 21 CURVE SMOOTH",
"62 -1 OFFCURVE",
"99 -23 OFFCURVE",
"135 -8 CURVE SMOOTH",
"204 21 OFFCURVE",
"259 52 OFFCURVE",
"290 84 CURVE SMOOTH",
"338 134 OFFCURVE",
"331 189 OFFCURVE",
"299 223 CURVE SMOOTH",
"266 259 OFFCURVE",
"227 462 OFFCURVE",
"221 529 CURVE SMOOTH",
"215 595 OFFCURVE",
"313 646 OFFCURVE",
"301 588 CURVE SMOOTH",
"289 530 OFFCURVE",
"247 462 OFFCURVE",
"293 362 CURVE SMOOTH",
"339 262 OFFCURVE",
"335 190 OFFCURVE",
"334 148 CURVE SMOOTH",
"332 79 OFFCURVE",
"381 24 OFFCURVE",
"437 25 CURVE SMOOTH",
"493 26 OFFCURVE",
"532 108 OFFCURVE",
"536 195 CURVE SMOOTH",
"540 285 OFFCURVE",
"530 408 OFFCURVE",
"518 452 CURVE SMOOTH",
"505 500 OFFCURVE",
"552 525 OFFCURVE",
"571 389 CURVE SMOOTH",
"577 346 OFFCURVE",
"639 371 OFFCURVE",
"644 457 CURVE SMOOTH",
"655 647 OFFCURVE",
"648 712 OFFCURVE",
"575 699 CURVE SMOOTH"
);
},
{
closed = 1;
nodes = (
"245 92 OFFCURVE",
"161 63 OFFCURVE",
"136 53 CURVE SMOOTH",
"94 36 OFFCURVE",
"87 51 OFFCURVE",
"84 65 CURVE SMOOTH",
"81 79 OFFCURVE",
"84 98 OFFCURVE",
"122 117 CURVE SMOOTH",
"168 140 OFFCURVE",
"157 163 OFFCURVE",
"194 190 CURVE SMOOTH",
"231 217 OFFCURVE",
"253 195 OFFCURVE",
"264 173 CURVE SMOOTH",
"274 152 OFFCURVE",
"264 127 OFFCURVE",
"254 109 CURVE SMOOTH"
);
}
);
width = 668;
}
);
note = Ntilde;
unicode = 00D1;
},
{
glyphname = O;
lastChange = "2019-07-17 18:30:08 +0000";
layers = (
{
hints = (
{
horizontal = 1;
place = "{6.05, 54.07}";
type = Stem;
},
{
horizontal = 1;
place = "{240.07, 54.43}";
type = Stem;
},
{
horizontal = 1;
place = "{446.65, 19.92}";
type = Stem;
},
{
horizontal = 1;
place = "{604, 65.11}";
type = Stem;
},
{
place = "{49.54, 62.46}";
type = Stem;
},
{
place = "{376.96, 93.04}";
type = Stem;
},
{
place = "{590.59, 47.41}";
type = Stem;
},
{
place = "{315.23, 193.07}";
type = Stem;
}
);
layerId = "B4EEB2EB-BE69-455B-9E3C-B597DC09858D";
paths = (
{
closed = 1;
nodes = (
"635 391 OFFCURVE",
"625 461 OFFCURVE",
"599 520 CURVE",
"612 523 OFFCURVE",
"627 534 OFFCURVE",
"630 564 CURVE SMOOTH",
"632 580 OFFCURVE",
"634 601 OFFCURVE",
"624 612 CURVE",
"616 622 OFFCURVE",
"605 627 OFFCURVE",
"588 630 CURVE",
"573 632 OFFCURVE",
"551 625 OFFCURVE",
"535 613 CURVE",
"466 680 OFFCURVE",
"347 681 OFFCURVE",
"243 648 CURVE SMOOTH",
"135 614 OFFCURVE",
"73 547 OFFCURVE",
"53 382 CURVE SMOOTH",
"37 247 OFFCURVE",
"78 186 OFFCURVE",
"114 152 CURVE",
"115 116 OFFCURVE",
"129 81 OFFCURVE",
"166 63 CURVE SMOOTH",
"240 27 OFFCURVE",
"306 -16 OFFCURVE",
"392 19 CURVE SMOOTH",
"422 31 OFFCURVE",
"442 48 OFFCURVE",
"455 67 CURVE",
"493 72 OFFCURVE",
"535 88 OFFCURVE",
"560 114 CURVE SMOOTH",
"598 154 OFFCURVE",
"639 237 OFFCURVE",
"638 301 CURVE SMOOTH"
);
},
{
closed = 1;
nodes = (
"514 143 OFFCURVE",
"492 132 OFFCURVE",
"470 127 CURVE",
"468 147 OFFCURVE",
"460 166 OFFCURVE",
"446 182 CURVE SMOOTH",
"401 233 OFFCURVE",
"368 232 OFFCURVE",
"333 262 CURVE SMOOTH",
"298 292 OFFCURVE",
"190 322 OFFCURVE",
"141 252 CURVE SMOOTH",
"138 248 OFFCURVE",
"136 244 OFFCURVE",
"133 239 CURVE",
"118 265 OFFCURVE",
"113 308 OFFCURVE",
"112 339 CURVE SMOOTH",
"108 434 OFFCURVE",
"145 510 OFFCURVE",
"188 545 CURVE SMOOTH",
"248 593 OFFCURVE",
"322 610 OFFCURVE",
"375 604 CURVE SMOOTH",
"428 599 OFFCURVE",
"489 570 OFFCURVE",
"475 502 CURVE SMOOTH",
"460 433 OFFCURVE",
"439 479 OFFCURVE",
"424 520 CURVE SMOOTH",
"408 561 OFFCURVE",
"341 563 OFFCURVE",
"320 515 CURVE SMOOTH",
"299 467 OFFCURVE",
"348 389 OFFCURVE",
"382 343 CURVE SMOOTH",
"417 298 OFFCURVE",
"473 228 OFFCURVE",
"516 264 CURVE SMOOTH",
"558 301 OFFCURVE",
"538 352 OFFCURVE",
"514 405 CURVE SMOOTH",
"490 459 OFFCURVE",
"548 449 OFFCURVE",
"562 438 CURVE SMOOTH",
"576 427 OFFCURVE",
"578 400 OFFCURVE",
"588 350 CURVE SMOOTH",
"599 300 OFFCURVE",
"577 238 OFFCURVE",
"531 169 CURVE SMOOTH"
);
},
{
closed = 1;
nodes = (
"359 38 OFFCURVE",
"283 73 OFFCURVE",
"248 97 CURVE",
"221 114 OFFCURVE",
"167 158 OFFCURVE",
"189 196 CURVE SMOOTH",
"214 237 OFFCURVE",
"265 260 OFFCURVE",
"309 217 CURVE SMOOTH",
"354 174 OFFCURVE",
"390 129 OFFCURVE",
"373 78 CURVE SMOOTH"
);
}
);
width = 697;
}
);
note = O;
unicode = 004F;
},
{
glyphname = Oacute;
lastChange = "2019-07-17 18:30:08 +0000";
layers = (
{
hints = (
{
horizontal = 1;
place = "{6.05, 54.07}";
type = Stem;
},
{
horizontal = 1;
place = "{240.07, 54.43}";
type = Stem;
},
{
horizontal = 1;
place = "{446.65, 19.92}";
type = Stem;
},
{
horizontal = 1;
place = "{604, 65.11}";
type = Stem;
},
{
horizontal = 1;
place = "{715, 58}";
type = Stem;
},
{
place = "{49.54, 62.46}";
type = Stem;
},
{
place = "{376.96, 93.04}";
type = Stem;
},
{
place = "{590.59, 47.41}";
type = Stem;
},
{
place = "{315.23, 193.07}";
type = Stem;
}
);
layerId = "B4EEB2EB-BE69-455B-9E3C-B597DC09858D";
paths = (
{
closed = 1;
nodes = (
"246 715 OFFCURVE",
"298 731 OFFCURVE",
"335 754 CURVE SMOOTH",
"362 771 OFFCURVE",
"406 817 OFFCURVE",
"416 829 CURVE SMOOTH",
"430 845 OFFCURVE",
"407 843 OFFCURVE",
"397 850 CURVE SMOOTH",
"384 859 OFFCURVE",
"384 878 OFFCURVE",
"359 852 CURVE SMOOTH",
"329 820 OFFCURVE",
"273 761 OFFCURVE",
"219 773 CURVE SMOOTH",
"205 776 OFFCURVE",
"218 752 OFFCURVE",
"218 741 CURVE SMOOTH",
"218 730 OFFCURVE",
"189 715 OFFCURVE",
"216 715 CURVE SMOOTH"
);
},
{
closed = 1;
nodes = (
"635 391 OFFCURVE",
"625 461 OFFCURVE",
"599 520 CURVE",
"612 523 OFFCURVE",
"627 534 OFFCURVE",
"630 564 CURVE SMOOTH",
"632 580 OFFCURVE",
"634 601 OFFCURVE",
"624 612 CURVE",
"616 622 OFFCURVE",
"605 627 OFFCURVE",
"588 630 CURVE",
"573 632 OFFCURVE",
"551 625 OFFCURVE",
"535 613 CURVE",
"466 680 OFFCURVE",
"347 681 OFFCURVE",
"243 648 CURVE SMOOTH",
"135 614 OFFCURVE",
"73 547 OFFCURVE",
"53 382 CURVE SMOOTH",
"37 247 OFFCURVE",
"78 186 OFFCURVE",
"114 152 CURVE",
"115 116 OFFCURVE",
"129 81 OFFCURVE",
"166 63 CURVE SMOOTH",
"240 27 OFFCURVE",
"306 -16 OFFCURVE",
"392 19 CURVE SMOOTH",
"422 31 OFFCURVE",
"442 48 OFFCURVE",
"455 67 CURVE",
"493 72 OFFCURVE",
"535 88 OFFCURVE",
"560 114 CURVE SMOOTH",
"598 154 OFFCURVE",
"639 237 OFFCURVE",
"638 301 CURVE SMOOTH"
);
},
{
closed = 1;
nodes = (
"514 143 OFFCURVE",
"492 132 OFFCURVE",
"470 127 CURVE",
"468 147 OFFCURVE",
"460 166 OFFCURVE",
"446 182 CURVE SMOOTH",
"401 233 OFFCURVE",
"368 232 OFFCURVE",
"333 262 CURVE SMOOTH",
"298 292 OFFCURVE",
"190 322 OFFCURVE",
"141 252 CURVE SMOOTH",
"138 248 OFFCURVE",
"136 244 OFFCURVE",
"133 239 CURVE",
"118 265 OFFCURVE",
"113 308 OFFCURVE",
"112 339 CURVE SMOOTH",
"108 434 OFFCURVE",
"145 510 OFFCURVE",
"188 545 CURVE SMOOTH",
"248 593 OFFCURVE",
"322 610 OFFCURVE",
"375 604 CURVE SMOOTH",
"428 599 OFFCURVE",
"489 570 OFFCURVE",
"475 502 CURVE SMOOTH",
"460 433 OFFCURVE",
"439 479 OFFCURVE",
"424 520 CURVE SMOOTH",
"408 561 OFFCURVE",
"341 563 OFFCURVE",
"320 515 CURVE SMOOTH",
"299 467 OFFCURVE",
"348 389 OFFCURVE",
"382 343 CURVE SMOOTH",
"417 298 OFFCURVE",
"473 228 OFFCURVE",
"516 264 CURVE SMOOTH",
"558 301 OFFCURVE",
"538 352 OFFCURVE",
"514 405 CURVE SMOOTH",
"490 459 OFFCURVE",
"548 449 OFFCURVE",
"562 438 CURVE SMOOTH",
"576 427 OFFCURVE",
"578 400 OFFCURVE",
"588 350 CURVE SMOOTH",
"599 300 OFFCURVE",
"577 238 OFFCURVE",
"531 169 CURVE SMOOTH"
);
},
{
closed = 1;
nodes = (
"359 38 OFFCURVE",
"283 73 OFFCURVE",
"248 97 CURVE",
"221 114 OFFCURVE",
"167 158 OFFCURVE",
"189 196 CURVE SMOOTH",
"214 237 OFFCURVE",
"265 260 OFFCURVE",
"309 217 CURVE SMOOTH",
"354 174 OFFCURVE",
"390 129 OFFCURVE",
"373 78 CURVE SMOOTH"
);
}
);
width = 697;
}
);
note = Oacute;
unicode = 00D3;
},
{
glyphname = Ocircumflex;
lastChange = "2019-07-17 18:30:08 +0000";
layers = (
{
hints = (
{
horizontal = 1;
place = "{6.05, 54.07}";
type = Stem;
},
{
horizontal = 1;
place = "{240.07, 54.43}";
type = Stem;
},
{
horizontal = 1;
place = "{446.65, 19.92}";
type = Stem;
},
{
horizontal = 1;
place = "{604, 65.11}";
type = Stem;
},
{
horizontal = 1;
place = "{856, 53.63}";
type = Stem;
},
{
place = "{49.54, 62.46}";
type = Stem;
},
{
place = "{376.96, 93.04}";
type = Stem;
},
{
place = "{590.59, 47.41}";
type = Stem;
},
{
place = "{315.23, 193.07}";
type = Stem;
}
);
layerId = "B4EEB2EB-BE69-455B-9E3C-B597DC09858D";
paths = (
{
closed = 1;
nodes = (
"245 721 OFFCURVE",
"290 752 OFFCURVE",
"319 785 CURVE SMOOTH",
"340 809 OFFCURVE",
"363 841 OFFCURVE",
"368 856 CURVE",
"372 841 OFFCURVE",
"382 803 OFFCURVE",
"400 777 CURVE SMOOTH",
"424 742 OFFCURVE",
"465 706 OFFCURVE",
"492 693 CURVE SMOOTH",
"517 681 OFFCURVE",
"503 707 OFFCURVE",
"508 717 CURVE SMOOTH",
"513 727 OFFCURVE",
"527 743 OFFCURVE",
"513 746 CURVE SMOOTH",
"459 758 OFFCURVE",
"432 835 OFFCURVE",
"418 877 CURVE SMOOTH",
"402 922 OFFCURVE",
"387 903 OFFCURVE",
"377 904 CURVE SMOOTH",
"367 905 OFFCURVE",
"357 925 OFFCURVE",
"324 883 CURVE SMOOTH",
"305 859 OFFCURVE",
"258 769 OFFCURVE",
"203 769 CURVE SMOOTH",
"189 769 OFFCURVE",
"208 749 OFFCURVE",
"211 738 CURVE SMOOTH",
"214 727 OFFCURVE",
"191 706 OFFCURVE",
"217 713 CURVE SMOOTH"
);
},
{
closed = 1;
nodes = (
"635 391 OFFCURVE",
"625 461 OFFCURVE",
"599 520 CURVE",
"612 523 OFFCURVE",
"627 534 OFFCURVE",
"630 564 CURVE SMOOTH",
"632 580 OFFCURVE",
"634 601 OFFCURVE",
"624 612 CURVE",
"616 622 OFFCURVE",
"605 627 OFFCURVE",
"588 630 CURVE",
"573 632 OFFCURVE",
"551 625 OFFCURVE",
"535 613 CURVE",
"466 680 OFFCURVE",
"347 681 OFFCURVE",
"243 648 CURVE SMOOTH",
"135 614 OFFCURVE",
"73 547 OFFCURVE",
"53 382 CURVE SMOOTH",
"37 247 OFFCURVE",
"78 186 OFFCURVE",
"114 152 CURVE",
"115 116 OFFCURVE",
"129 81 OFFCURVE",
"166 63 CURVE SMOOTH",
"240 27 OFFCURVE",
"306 -16 OFFCURVE",
"392 19 CURVE SMOOTH",
"422 31 OFFCURVE",
"442 48 OFFCURVE",
"455 67 CURVE",
"493 72 OFFCURVE",
"535 88 OFFCURVE",
"560 114 CURVE SMOOTH",
"598 154 OFFCURVE",
"639 237 OFFCURVE",
"638 301 CURVE SMOOTH"
);
},
{
closed = 1;
nodes = (
"514 143 OFFCURVE",
"492 132 OFFCURVE",
"470 127 CURVE",
"468 147 OFFCURVE",
"460 166 OFFCURVE",
"446 182 CURVE SMOOTH",
"401 233 OFFCURVE",
"368 232 OFFCURVE",
"333 262 CURVE SMOOTH",
"298 292 OFFCURVE",
"190 322 OFFCURVE",
"141 252 CURVE SMOOTH",
"138 248 OFFCURVE",
"136 244 OFFCURVE",
"133 239 CURVE",
"118 265 OFFCURVE",
"113 308 OFFCURVE",
"112 339 CURVE SMOOTH",
"108 434 OFFCURVE",
"145 510 OFFCURVE",
"188 545 CURVE SMOOTH",
"248 593 OFFCURVE",
"322 610 OFFCURVE",
"375 604 CURVE SMOOTH",
"428 599 OFFCURVE",
"489 570 OFFCURVE",
"475 502 CURVE SMOOTH",
"460 433 OFFCURVE",
"439 479 OFFCURVE",
"424 520 CURVE SMOOTH",
"408 561 OFFCURVE",
"341 563 OFFCURVE",
"320 515 CURVE SMOOTH",
"299 467 OFFCURVE",
"348 389 OFFCURVE",
"382 343 CURVE SMOOTH",
"417 298 OFFCURVE",
"473 228 OFFCURVE",
"516 264 CURVE SMOOTH",
"558 301 OFFCURVE",
"538 352 OFFCURVE",
"514 405 CURVE SMOOTH",
"490 459 OFFCURVE",
"548 449 OFFCURVE",
"562 438 CURVE SMOOTH",
"576 427 OFFCURVE",
"578 400 OFFCURVE",
"588 350 CURVE SMOOTH",
"599 300 OFFCURVE",
"577 238 OFFCURVE",
"531 169 CURVE SMOOTH"
);
},
{
closed = 1;
nodes = (
"359 38 OFFCURVE",
"283 73 OFFCURVE",
"248 97 CURVE",
"221 114 OFFCURVE",
"167 158 OFFCURVE",
"189 196 CURVE SMOOTH",
"214 237 OFFCURVE",
"265 260 OFFCURVE",
"309 217 CURVE SMOOTH",
"354 174 OFFCURVE",
"390 129 OFFCURVE",
"373 78 CURVE SMOOTH"
);
}
);
width = 697;
}
);
note = Ocircumflex;
unicode = 00D4;
},
{
glyphname = Odieresis;
lastChange = "2019-07-17 18:30:08 +0000";
layers = (
{
hints = (
{
horizontal = 1;
place = "{6.05, 54.07}";
type = Stem;
},
{
horizontal = 1;
place = "{240.07, 54.43}";
type = Stem;
},
{
horizontal = 1;
place = "{446.65, 19.92}";
type = Stem;
},
{
horizontal = 1;
place = "{604, 65.11}";
type = Stem;
},
{
horizontal = 1;
place = "{761, 83}";
type = Stem;
},
{
place = "{49.54, 62.46}";
type = Stem;
},
{
place = "{232.5, 85.25}";
type = Stem;
},
{
place = "{392, 87}";
type = Stem;
},
{
place = "{590.59, 47.41}";
type = Stem;
},
{
horizontal = 1;
place = "{762.03, 79.1}";
type = Stem;
},
{
place = "{376.96, 93.04}";
type = Stem;
},
{
place = "{315.23, 193.07}";
type = Stem;
}
);
layerId = "B4EEB2EB-BE69-455B-9E3C-B597DC09858D";
paths = (
{
closed = 1;
nodes = (
"461 761 OFFCURVE",
"479 781 OFFCURVE",
"479 797 CURVE SMOOTH",
"479 814 OFFCURVE",
"461 843 OFFCURVE",
"437 844 CURVE SMOOTH",
"415 845 OFFCURVE",
"392 822 OFFCURVE",
"392 805 CURVE SMOOTH",
"392 789 OFFCURVE",
"415 761 OFFCURVE",
"437 761 CURVE SMOOTH"
);
},
{
closed = 1;
nodes = (
"253 763 OFFCURVE",
"286 755 OFFCURVE",
"304 771 CURVE",
"319 787 OFFCURVE",
"323 821 OFFCURVE",
"312 832 CURVE SMOOTH",
"301 843 OFFCURVE",
"261 846 OFFCURVE",
"244 830 CURVE",
"228 813 OFFCURVE",
"230 785 OFFCURVE",
"242 774 CURVE"
);
},
{
closed = 1;
nodes = (
"635 391 OFFCURVE",
"625 461 OFFCURVE",
"599 520 CURVE",
"612 523 OFFCURVE",
"627 534 OFFCURVE",
"630 564 CURVE SMOOTH",
"632 580 OFFCURVE",
"634 601 OFFCURVE",
"624 612 CURVE",
"616 622 OFFCURVE",
"605 627 OFFCURVE",
"588 630 CURVE",
"573 632 OFFCURVE",
"551 625 OFFCURVE",
"535 613 CURVE",
"466 680 OFFCURVE",
"347 681 OFFCURVE",
"243 648 CURVE SMOOTH",
"135 614 OFFCURVE",
"73 547 OFFCURVE",
"53 382 CURVE SMOOTH",
"37 247 OFFCURVE",
"78 186 OFFCURVE",
"114 152 CURVE",
"115 116 OFFCURVE",
"129 81 OFFCURVE",
"166 63 CURVE SMOOTH",
"240 27 OFFCURVE",
"306 -16 OFFCURVE",
"392 19 CURVE SMOOTH",
"422 31 OFFCURVE",
"442 48 OFFCURVE",
"455 67 CURVE",
"493 72 OFFCURVE",
"535 88 OFFCURVE",
"560 114 CURVE SMOOTH",
"598 154 OFFCURVE",
"639 237 OFFCURVE",
"638 301 CURVE SMOOTH"
);
},
{
closed = 1;
nodes = (
"514 143 OFFCURVE",
"492 132 OFFCURVE",
"470 127 CURVE",
"468 147 OFFCURVE",
"460 166 OFFCURVE",
"446 182 CURVE SMOOTH",
"401 233 OFFCURVE",
"368 232 OFFCURVE",
"333 262 CURVE SMOOTH",
"298 292 OFFCURVE",
"190 322 OFFCURVE",
"141 252 CURVE SMOOTH",
"138 248 OFFCURVE",
"136 244 OFFCURVE",
"133 239 CURVE",
"118 265 OFFCURVE",
"113 308 OFFCURVE",
"112 339 CURVE SMOOTH",
"108 434 OFFCURVE",
"145 510 OFFCURVE",
"188 545 CURVE SMOOTH",
"248 593 OFFCURVE",
"322 610 OFFCURVE",
"375 604 CURVE SMOOTH",
"428 599 OFFCURVE",
"489 570 OFFCURVE",
"475 502 CURVE SMOOTH",
"460 433 OFFCURVE",
"439 479 OFFCURVE",
"424 520 CURVE SMOOTH",
"408 561 OFFCURVE",
"341 563 OFFCURVE",
"320 515 CURVE SMOOTH",
"299 467 OFFCURVE",
"348 389 OFFCURVE",
"382 343 CURVE SMOOTH",
"417 298 OFFCURVE",
"473 228 OFFCURVE",
"516 264 CURVE SMOOTH",
"558 301 OFFCURVE",
"538 352 OFFCURVE",
"514 405 CURVE SMOOTH",
"490 459 OFFCURVE",
"548 449 OFFCURVE",
"562 438 CURVE SMOOTH",
"576 427 OFFCURVE",
"578 400 OFFCURVE",
"588 350 CURVE SMOOTH",
"599 300 OFFCURVE",
"577 238 OFFCURVE",
"531 169 CURVE SMOOTH"
);
},
{
closed = 1;
nodes = (
"359 38 OFFCURVE",
"283 73 OFFCURVE",
"248 97 CURVE",
"221 114 OFFCURVE",
"167 158 OFFCURVE",
"189 196 CURVE SMOOTH",
"214 237 OFFCURVE",
"265 260 OFFCURVE",
"309 217 CURVE SMOOTH",
"354 174 OFFCURVE",
"390 129 OFFCURVE",
"373 78 CURVE SMOOTH"
);
}
);
width = 697;
}
);
note = Odieresis;
unicode = 00D6;
},
{
glyphname = Ograve;
lastChange = "2019-07-17 18:30:08 +0000";
layers = (
{
hints = (
{
horizontal = 1;
place = "{6.05, 54.07}";
type = Stem;
},
{
horizontal = 1;
place = "{240.07, 54.43}";
type = Stem;
},
{
horizontal = 1;
place = "{446.65, 19.92}";
type = Stem;
},
{
horizontal = 1;
place = "{604, 65.11}";
type = Stem;
},
{
horizontal = 1;
place = "{717, 58}";
type = Stem;
},
{
place = "{49.54, 62.46}";
type = Stem;
},
{
place = "{376.96, 93.04}";
type = Stem;
},
{
place = "{590.59, 47.41}";
type = Stem;
},
{
place = "{315.23, 193.07}";
type = Stem;
}
);
layerId = "B4EEB2EB-BE69-455B-9E3C-B597DC09858D";
paths = (
{
closed = 1;
nodes = (
"367 733 OFFCURVE",
"419 717 OFFCURVE",
"449 717 CURVE SMOOTH",
"476 717 OFFCURVE",
"447 732 OFFCURVE",
"447 743 CURVE SMOOTH",
"447 754 OFFCURVE",
"460 778 OFFCURVE",
"446 775 CURVE SMOOTH",
"392 763 OFFCURVE",
"336 822 OFFCURVE",
"306 854 CURVE SMOOTH",
"281 880 OFFCURVE",
"281 861 OFFCURVE",
"268 852 CURVE SMOOTH",
"258 845 OFFCURVE",
"235 847 OFFCURVE",
"249 831 CURVE SMOOTH",
"259 819 OFFCURVE",
"303 773 OFFCURVE",
"330 756 CURVE SMOOTH"
);
},
{
closed = 1;
nodes = (
"635 391 OFFCURVE",
"625 461 OFFCURVE",
"599 520 CURVE",
"612 523 OFFCURVE",
"627 534 OFFCURVE",
"630 564 CURVE SMOOTH",
"632 580 OFFCURVE",
"634 601 OFFCURVE",
"624 612 CURVE",
"616 622 OFFCURVE",
"605 627 OFFCURVE",
"588 630 CURVE",
"573 632 OFFCURVE",
"551 625 OFFCURVE",
"535 613 CURVE",
"466 680 OFFCURVE",
"347 681 OFFCURVE",
"243 648 CURVE SMOOTH",
"135 614 OFFCURVE",
"73 547 OFFCURVE",
"53 382 CURVE SMOOTH",
"37 247 OFFCURVE",
"78 186 OFFCURVE",
"114 152 CURVE",
"115 116 OFFCURVE",
"129 81 OFFCURVE",
"166 63 CURVE SMOOTH",
"240 27 OFFCURVE",
"306 -16 OFFCURVE",
"392 19 CURVE SMOOTH",
"422 31 OFFCURVE",
"442 48 OFFCURVE",
"455 67 CURVE",
"493 72 OFFCURVE",
"535 88 OFFCURVE",
"560 114 CURVE SMOOTH",
"598 154 OFFCURVE",
"639 237 OFFCURVE",
"638 301 CURVE SMOOTH"
);
},
{
closed = 1;
nodes = (
"514 143 OFFCURVE",
"492 132 OFFCURVE",
"470 127 CURVE",
"468 147 OFFCURVE",
"460 166 OFFCURVE",
"446 182 CURVE SMOOTH",
"401 233 OFFCURVE",
"368 232 OFFCURVE",
"333 262 CURVE SMOOTH",
"298 292 OFFCURVE",
"190 322 OFFCURVE",
"141 252 CURVE SMOOTH",
"138 248 OFFCURVE",
"136 244 OFFCURVE",
"133 239 CURVE",
"118 265 OFFCURVE",
"113 308 OFFCURVE",
"112 339 CURVE SMOOTH",
"108 434 OFFCURVE",
"145 510 OFFCURVE",
"188 545 CURVE SMOOTH",
"248 593 OFFCURVE",
"322 610 OFFCURVE",
"375 604 CURVE SMOOTH",
"428 599 OFFCURVE",
"489 570 OFFCURVE",
"475 502 CURVE SMOOTH",
"460 433 OFFCURVE",
"439 479 OFFCURVE",
"424 520 CURVE SMOOTH",
"408 561 OFFCURVE",
"341 563 OFFCURVE",
"320 515 CURVE SMOOTH",
"299 467 OFFCURVE",
"348 389 OFFCURVE",
"382 343 CURVE SMOOTH",
"417 298 OFFCURVE",
"473 228 OFFCURVE",
"516 264 CURVE SMOOTH",
"558 301 OFFCURVE",
"538 352 OFFCURVE",
"514 405 CURVE SMOOTH",
"490 459 OFFCURVE",
"548 449 OFFCURVE",
"562 438 CURVE SMOOTH",
"576 427 OFFCURVE",
"578 400 OFFCURVE",
"588 350 CURVE SMOOTH",
"599 300 OFFCURVE",
"577 238 OFFCURVE",
"531 169 CURVE SMOOTH"
);
},
{
closed = 1;
nodes = (
"359 38 OFFCURVE",
"283 73 OFFCURVE",
"248 97 CURVE",
"221 114 OFFCURVE",
"167 158 OFFCURVE",
"189 196 CURVE SMOOTH",
"214 237 OFFCURVE",
"265 260 OFFCURVE",
"309 217 CURVE SMOOTH",
"354 174 OFFCURVE",
"390 129 OFFCURVE",
"373 78 CURVE SMOOTH"
);
}
);
width = 697;
}
);
note = Ograve;
unicode = 00D2;
},
{
glyphname = Oslash;
lastChange = "2019-07-17 18:30:08 +0000";
layers = (
{
hints = (
{
horizontal = 1;
place = "{-3.95, 54.07}";
type = Stem;
},
{
horizontal = 1;
place = "{661, 36}";
type = Stem;
},
{
place = "{50.25, 62.75}";
type = Stem;
},
{
place = "{376.92, 9.33}";
type = Stem;
},
{
place = "{588, 49}";
type = Stem;
},
{
place = "{558.05, 48.32}";
type = Stem;
}
);
layerId = "B4EEB2EB-BE69-455B-9E3C-B597DC09858D";
paths = (
{
closed = 1;
nodes = (
"635 359 OFFCURVE",
"615 449 OFFCURVE",
"596 508 CURVE",
"609 520 OFFCURVE",
"608 544 OFFCURVE",
"604 574 CURVE SMOOTH",
"597 626 OFFCURVE",
"553 673 OFFCURVE",
"516 690 CURVE SMOOTH",
"486 704 OFFCURVE",
"444 696 OFFCURVE",
"391 686 CURVE SMOOTH",
"364 681 OFFCURVE",
"342 670 OFFCURVE",
"339 650 CURVE",
"303 651 OFFCURVE",
"256 640 OFFCURVE",
"243 636 CURVE SMOOTH",
"136 600 OFFCURVE",
"74 536 OFFCURVE",
"54 371 CURVE SMOOTH",
"37 236 OFFCURVE",
"79 175 OFFCURVE",
"115 142 CURVE",
"116 106 OFFCURVE",
"130 71 OFFCURVE",
"166 53 CURVE SMOOTH",
"241 17 OFFCURVE",
"306 -26 OFFCURVE",
"392 9 CURVE SMOOTH",
"421 21 OFFCURVE",
"438 37 OFFCURVE",
"447 56 CURVE",
"487 59 OFFCURVE",
"533 76 OFFCURVE",
"560 104 CURVE SMOOTH",
"598 144 OFFCURVE",
"639 226 OFFCURVE",
"637 290 CURVE SMOOTH"
);
},
{
closed = 1;
nodes = (
"495 668 OFFCURVE",
"526 641 OFFCURVE",
"544 607 CURVE SMOOTH",
"557 583 OFFCURVE",
"565 566 OFFCURVE",
"552 561 CURVE SMOOTH",
"525 551 OFFCURVE",
"519 602 OFFCURVE",
"471 622 CURVE SMOOTH",
"432 638 OFFCURVE",
"419 608 OFFCURVE",
"403 628 CURVE SMOOTH",
"393 640 OFFCURVE",
"415 655 OFFCURVE",
"453 661 CURVE SMOOTH"
);
},
{
closed = 1;
nodes = (
"222 561 OFFCURVE",
"296 599 OFFCURVE",
"353 598 CURVE",
"361 587 OFFCURVE",
"373 582 OFFCURVE",
"394 580 CURVE SMOOTH",
"430 577 OFFCURVE",
"424 519 OFFCURVE",
"344 385 CURVE SMOOTH",
"319 343 OFFCURVE",
"319 276 OFFCURVE",
"247 283 CURVE SMOOTH",
"208 287 OFFCURVE",
"167 277 OFFCURVE",
"142 241 CURVE",
"139 237 OFFCURVE",
"136 232 OFFCURVE",
"134 227 CURVE",
"119 253 OFFCURVE",
"114 296 OFFCURVE",
"113 328 CURVE SMOOTH",
"111 423 OFFCURVE",
"145 498 OFFCURVE",
"189 534 CURVE SMOOTH"
);
},
{
closed = 1;
nodes = (
"508 123 OFFCURVE",
"477 116 OFFCURVE",
"447 115 CURVE",
"440 134 OFFCURVE",
"429 152 OFFCURVE",
"415 169 CURVE",
"413 171 LINE",
"370 223 OFFCURVE",
"390 299 OFFCURVE",
"397 335 CURVE SMOOTH",
"404 371 OFFCURVE",
"434 410 OFFCURVE",
"454 459 CURVE SMOOTH",
"470 499 OFFCURVE",
"466 579 OFFCURVE",
"487 561 CURVE",
"504 543 OFFCURVE",
"519 509 OFFCURVE",
"544 501 CURVE",
"563 451 OFFCURVE",
"588 369 OFFCURVE",
"588 339 CURVE SMOOTH",
"588 282 OFFCURVE",
"576 227 OFFCURVE",
"531 158 CURVE SMOOTH"
);
},
{
closed = 1;
nodes = (
"359 28 OFFCURVE",
"283 63 OFFCURVE",
"248 87 CURVE SMOOTH",
"222 105 OFFCURVE",
"167 147 OFFCURVE",
"190 186 CURVE SMOOTH",
"214 226 OFFCURVE",
"265 249 OFFCURVE",
"309 206 CURVE SMOOTH",
"353 163 OFFCURVE",
"390 118 OFFCURVE",
"373 68 CURVE SMOOTH"
);
}
);
width = 697;
}
);
note = Oslash;
unicode = 00D8;
},
{
glyphname = Otilde;
lastChange = "2019-07-17 18:30:08 +0000";
layers = (
{
hints = (
{
horizontal = 1;
place = "{6.05, 54.07}";
type = Stem;
},
{
horizontal = 1;
place = "{240.07, 54.43}";
type = Stem;
},
{
horizontal = 1;
place = "{446.65, 19.92}";
type = Stem;
},
{
horizontal = 1;
place = "{604, 65.11}";
type = Stem;
},
{
horizontal = 1;
place = "{727.2, 56.87}";
type = Stem;
},
{
horizontal = 1;
place = "{856.66, 52.34}";
type = Stem;
},
{
place = "{49.54, 62.46}";
type = Stem;
},
{
place = "{260, 51}";
type = Stem;
},
{
place = "{460.1, 51.9}";
type = Stem;
},
{
place = "{590.59, 47.41}";
type = Stem;
},
{
place = "{376.96, 93.04}";
type = Stem;
},
{
place = "{315.23, 193.07}";
type = Stem;
}
);
layerId = "B4EEB2EB-BE69-455B-9E3C-B597DC09858D";
paths = (
{
closed = 1;
nodes = (
"249 754 OFFCURVE",
"257 738 OFFCURVE",
"266 753 CURVE SMOOTH",
"273 765 OFFCURVE",
"307 814 OFFCURVE",
"311 849 CURVE SMOOTH",
"312 858 OFFCURVE",
"329 867 OFFCURVE",
"339 829 CURVE SMOOTH",
"344 809 OFFCURVE",
"342 773 OFFCURVE",
"359 756 CURVE SMOOTH",
"389 726 OFFCURVE",
"429 714 OFFCURVE",
"459 746 CURVE SMOOTH",
"483 771 OFFCURVE",
"512 804 OFFCURVE",
"512 839 CURVE SMOOTH",
"512 876 OFFCURVE",
"511 884 OFFCURVE",
"500 902 CURVE SMOOTH",
"490 919 OFFCURVE",
"483 902 OFFCURVE",
"475 902 CURVE SMOOTH",
"464 902 OFFCURVE",
"444 918 OFFCURVE",
"446 899 CURVE SMOOTH",
"447 890 OFFCURVE",
"467 862 OFFCURVE",
"458 836 CURVE SMOOTH",
"442 789 OFFCURVE",
"400 761 OFFCURVE",
"390 809 CURVE SMOOTH",
"385 833 OFFCURVE",
"380 858 OFFCURVE",
"372 874 CURVE SMOOTH",
"355 908 OFFCURVE",
"328 914 OFFCURVE",
"300 909 CURVE SMOOTH",
"279 905 OFFCURVE",
"260 882 OFFCURVE",
"260 853 CURVE SMOOTH",
"260 820 OFFCURVE",
"236 790 OFFCURVE",
"229 783 CURVE SMOOTH",
"206 760 OFFCURVE",
"238 765 OFFCURVE",
"244 759 CURVE SMOOTH"
);
},
{
closed = 1;
nodes = (
"635 391 OFFCURVE",
"625 461 OFFCURVE",
"599 520 CURVE",
"612 523 OFFCURVE",
"627 534 OFFCURVE",
"630 564 CURVE SMOOTH",
"632 580 OFFCURVE",
"634 601 OFFCURVE",
"624 612 CURVE",
"616 622 OFFCURVE",
"605 627 OFFCURVE",
"588 630 CURVE",
"573 632 OFFCURVE",
"551 625 OFFCURVE",
"535 613 CURVE",
"466 680 OFFCURVE",
"347 681 OFFCURVE",
"243 648 CURVE SMOOTH",
"135 614 OFFCURVE",
"73 547 OFFCURVE",
"53 382 CURVE SMOOTH",
"37 247 OFFCURVE",
"78 186 OFFCURVE",
"114 152 CURVE",
"115 116 OFFCURVE",
"129 81 OFFCURVE",
"166 63 CURVE SMOOTH",
"240 27 OFFCURVE",
"306 -16 OFFCURVE",
"392 19 CURVE SMOOTH",
"422 31 OFFCURVE",
"442 48 OFFCURVE",
"455 67 CURVE",
"493 72 OFFCURVE",
"535 88 OFFCURVE",
"560 114 CURVE SMOOTH",
"598 154 OFFCURVE",
"639 237 OFFCURVE",
"638 301 CURVE SMOOTH"
);
},
{
closed = 1;
nodes = (
"514 143 OFFCURVE",
"492 132 OFFCURVE",
"470 127 CURVE",
"468 147 OFFCURVE",
"460 166 OFFCURVE",
"446 182 CURVE SMOOTH",
"401 233 OFFCURVE",
"368 232 OFFCURVE",
"333 262 CURVE SMOOTH",
"298 292 OFFCURVE",
"190 322 OFFCURVE",
"141 252 CURVE SMOOTH",
"138 248 OFFCURVE",
"136 244 OFFCURVE",
"133 239 CURVE",
"118 265 OFFCURVE",
"113 308 OFFCURVE",
"112 339 CURVE SMOOTH",
"108 434 OFFCURVE",
"145 510 OFFCURVE",
"188 545 CURVE SMOOTH",
"248 593 OFFCURVE",
"322 610 OFFCURVE",
"375 604 CURVE SMOOTH",
"428 599 OFFCURVE",
"489 570 OFFCURVE",
"475 502 CURVE SMOOTH",
"460 433 OFFCURVE",
"439 479 OFFCURVE",
"424 520 CURVE SMOOTH",
"408 561 OFFCURVE",
"341 563 OFFCURVE",
"320 515 CURVE SMOOTH",
"299 467 OFFCURVE",
"348 389 OFFCURVE",
"382 343 CURVE SMOOTH",
"417 298 OFFCURVE",
"473 228 OFFCURVE",
"516 264 CURVE SMOOTH",
"558 301 OFFCURVE",
"538 352 OFFCURVE",
"514 405 CURVE SMOOTH",
"490 459 OFFCURVE",
"548 449 OFFCURVE",
"562 438 CURVE SMOOTH",
"576 427 OFFCURVE",
"578 400 OFFCURVE",
"588 350 CURVE SMOOTH",
"599 300 OFFCURVE",
"577 238 OFFCURVE",
"531 169 CURVE SMOOTH"
);
},
{
closed = 1;
nodes = (
"359 38 OFFCURVE",
"283 73 OFFCURVE",
"248 97 CURVE",
"221 114 OFFCURVE",
"167 158 OFFCURVE",
"189 196 CURVE SMOOTH",
"214 237 OFFCURVE",
"265 260 OFFCURVE",
"309 217 CURVE SMOOTH",
"354 174 OFFCURVE",
"390 129 OFFCURVE",
"373 78 CURVE SMOOTH"
);
}
);
width = 697;
}
);
note = Otilde;
unicode = 00D5;
},
{
glyphname = OE;
lastChange = "2019-07-17 18:30:08 +0000";
layers = (
{
hints = (
{
horizontal = 1;
place = "{32.42, 52.46}";
type = Stem;
},
{
horizontal = 1;
place = "{233.25, 51.38}";
type = Stem;
},
{
horizontal = 1;
place = "{317.48, 46.51}";
type = Stem;
},
{
horizontal = 1;
place = "{451.86, 64.89}";
type = Stem;
},
{
horizontal = 1;
place = "{586.59, 45.66}";
type = Stem;
},
{
place = "{70.45, 59.55}";
type = Stem;
},
{
place = "{585.02, 45.98}";
type = Stem;
},
{
horizontal = 1;
place = "{593.77, 50.69}";
type = Stem;
},
{
horizontal = 1;
place = "{9.73, 51.53}";
type = Stem;
},
{
horizontal = 1;
place = "{579, 63.24}";
type = Stem;
},
{
horizontal = 1;
place = "{67, 58}";
type = Stem;
},
{
place = "{323.47, 184.32}";
type = Stem;
},
{
place = "{381.97, 89.03}";
type = Stem;
},
{
horizontal = 1;
place = "{429.49, 19.05}";
type = Stem;
}
);
layerId = "B4EEB2EB-BE69-455B-9E3C-B597DC09858D";
paths = (
{
closed = 1;
nodes = (
"855 595 OFFCURVE",
"853 587 OFFCURVE",
"825 614 CURVE SMOOTH",
"801 637 OFFCURVE",
"771 636 OFFCURVE",
"744 625 CURVE",
"648 666 OFFCURVE",
"474 628 OFFCURVE",
"433 637 CURVE SMOOTH",
"377 649 OFFCURVE",
"314 640 OFFCURVE",
"255 621 CURVE SMOOTH",
"152 588 OFFCURVE",
"93 525 OFFCURVE",
"74 368 CURVE SMOOTH",
"58 241 OFFCURVE",
"97 182 OFFCURVE",
"131 150 CURVE",
"132 115 OFFCURVE",
"146 81 OFFCURVE",
"181 64 CURVE SMOOTH",
"252 29 OFFCURVE",
"315 -11 OFFCURVE",
"397 22 CURVE SMOOTH",
"425 33 OFFCURVE",
"444 49 OFFCURVE",
"456 67 CURVE",
"517 64 OFFCURVE",
"565 8 OFFCURVE",
"766 45 CURVE SMOOTH",
"804 52 OFFCURVE",
"823 57 OFFCURVE",
"828 73 CURVE SMOOTH",
"833 88 OFFCURVE",
"810 97 OFFCURVE",
"808 104 CURVE SMOOTH",
"806 112 OFFCURVE",
"815 139 OFFCURVE",
"794 137 CURVE SMOOTH",
"768 135 OFFCURVE",
"770 116 OFFCURVE",
"755 101 CURVE SMOOTH",
"741 87 OFFCURVE",
"594 68 OFFCURVE",
"557 113 CURVE",
"593 151 OFFCURVE",
"633 230 OFFCURVE",
"631 291 CURVE",
"631 292 LINE",
"630 340 OFFCURVE",
"731 304 OFFCURVE",
"799 315 CURVE SMOOTH",
"843 322 OFFCURVE",
"857 326 OFFCURVE",
"861 342 CURVE SMOOTH",
"865 357 OFFCURVE",
"843 367 OFFCURVE",
"841 374 CURVE SMOOTH",
"839 381 OFFCURVE",
"848 409 OFFCURVE",
"827 407 CURVE SMOOTH",
"801 405 OFFCURVE",
"808 377 OFFCURVE",
"788 371 CURVE SMOOTH",
"733 355 OFFCURVE",
"624 366 OFFCURVE",
"615 399 CURVE SMOOTH",
"602 448 OFFCURVE",
"581 492 OFFCURVE",
"558 529 CURVE",
"557 530 OFFCURVE",
"557 531 OFFCURVE",
"556 531 CURVE",
"512 604 OFFCURVE",
"618 600 OFFCURVE",
"684 585 CURVE",
"682 584 OFFCURVE",
"680 582 OFFCURVE",
"678 580 CURVE",
"659 563 OFFCURVE",
"627 519 OFFCURVE",
"643 503 CURVE SMOOTH",
"664 482 OFFCURVE",
"733 500 OFFCURVE",
"756 493 CURVE SMOOTH",
"779 486 OFFCURVE",
"840 437 OFFCURVE",
"868 456 CURVE SMOOTH",
"897 475 OFFCURVE",
"920 520 OFFCURVE",
"888 557 CURVE SMOOTH"
);
},
{
closed = 1;
nodes = (
"826 513 OFFCURVE",
"800 511 OFFCURVE",
"768 529 CURVE SMOOTH",
"735 548 OFFCURVE",
"716 529 OFFCURVE",
"706 542 CURVE SMOOTH",
"695 556 OFFCURVE",
"742 604 OFFCURVE",
"786 581 CURVE SMOOTH",
"817 565 OFFCURVE",
"846 553 OFFCURVE",
"836 533 CURVE SMOOTH"
);
},
{
closed = 1;
nodes = (
"592 290 OFFCURVE",
"572 232 OFFCURVE",
"529 165 CURVE SMOOTH",
"513 140 OFFCURVE",
"492 129 OFFCURVE",
"471 125 CURVE",
"469 144 OFFCURVE",
"461 161 OFFCURVE",
"448 177 CURVE SMOOTH",
"406 226 OFFCURVE",
"374 225 OFFCURVE",
"340 254 CURVE SMOOTH",
"307 282 OFFCURVE",
"205 311 OFFCURVE",
"157 244 CURVE SMOOTH",
"154 240 OFFCURVE",
"152 236 OFFCURVE",
"150 232 CURVE",
"136 257 OFFCURVE",
"131 297 OFFCURVE",
"130 327 CURVE SMOOTH",
"126 417 OFFCURVE",
"161 490 OFFCURVE",
"202 523 CURVE SMOOTH",
"259 569 OFFCURVE",
"330 585 OFFCURVE",
"380 579 CURVE SMOOTH",
"431 573 OFFCURVE",
"489 547 OFFCURVE",
"476 482 CURVE SMOOTH",
"463 417 OFFCURVE",
"441 460 OFFCURVE",
"427 499 CURVE SMOOTH",
"413 538 OFFCURVE",
"348 540 OFFCURVE",
"328 495 CURVE SMOOTH",
"308 449 OFFCURVE",
"355 375 OFFCURVE",
"387 331 CURVE SMOOTH",
"419 287 OFFCURVE",
"474 221 OFFCURVE",
"515 256 CURVE SMOOTH",
"555 291 OFFCURVE",
"536 339 OFFCURVE",
"513 390 CURVE SMOOTH",
"490 441 OFFCURVE",
"545 432 OFFCURVE",
"558 421 CURVE SMOOTH",
"571 410 OFFCURVE",
"574 385 OFFCURVE",
"583 337 CURVE SMOOTH"
);
},
{
closed = 1;
nodes = (
"365 40 OFFCURVE",
"293 74 OFFCURVE",
"259 97 CURVE SMOOTH",
"234 114 OFFCURVE",
"182 155 OFFCURVE",
"203 191 CURVE SMOOTH",
"226 231 OFFCURVE",
"276 252 OFFCURVE",
"317 211 CURVE SMOOTH",
"359 169 OFFCURVE",
"395 127 OFFCURVE",
"378 78 CURVE SMOOTH"
);
}
);
width = 945;
}
);
note = OE;
unicode = 0152;
},
{
glyphname = P;
lastChange = "2019-07-17 18:30:08 +0000";
layers = (
{
hints = (
{
horizontal = 1;
place = "{252, 50.96}";
type = Stem;
},
{
horizontal = 1;
place = "{651.52, 68.77}";
type = Stem;
},
{
place = "{34.21, 118.74}";
type = Stem;
},
{
place = "{318.25, 24.52}";
type = Stem;
},
{
place = "{465, 23.97}";
type = Stem;
},
{
place = "{147.81, 76.56}";
type = Stem;
},
{
place = "{100, 74}";
type = Stem;
},
{
place = "{85.74, 69.36}";
type = Stem;
}
);
layerId = "B4EEB2EB-BE69-455B-9E3C-B597DC09858D";
paths = (
{
closed = 1;
nodes = (
"65 663 OFFCURVE",
"29 638 OFFCURVE",
"21 606 CURVE SMOOTH",
"13 574 OFFCURVE",
"46 544 OFFCURVE",
"30 508 CURVE SMOOTH",
"13 471 OFFCURVE",
"49 465 OFFCURVE",
"63 459 CURVE",
"67 396 OFFCURVE",
"95 391 OFFCURVE",
"83 340 CURVE SMOOTH",
"74 302 OFFCURVE",
"107 270 OFFCURVE",
"145 198 CURVE SMOOTH",
"162 167 OFFCURVE",
"97 72 OFFCURVE",
"100 6 CURVE SMOOTH",
"102 -35 OFFCURVE",
"132 -12 OFFCURVE",
"142 -12 CURVE SMOOTH",
"152 -12 OFFCURVE",
"174 -30 OFFCURVE",
"174 -6 CURVE SMOOTH",
"174 18 OFFCURVE",
"195 102 OFFCURVE",
"203 137 CURVE SMOOTH",
"211 172 OFFCURVE",
"234 195 OFFCURVE",
"220 233 CURVE SMOOTH",
"206 270 OFFCURVE",
"136 305 OFFCURVE",
"160 326 CURVE SMOOTH",
"177 341 OFFCURVE",
"192 270 OFFCURVE",
"278 316 CURVE",
"316 256 OFFCURVE",
"351 250 OFFCURVE",
"398 252 CURVE SMOOTH",
"438 254 OFFCURVE",
"505 291 OFFCURVE",
"512 326 CURVE SMOOTH",
"519 359 OFFCURVE",
"502 394 OFFCURVE",
"492 424 CURVE SMOOTH",
"478 465 OFFCURVE",
"515 500 OFFCURVE",
"522 570 CURVE SMOOTH",
"528 626 OFFCURVE",
"477 686 OFFCURVE",
"434 702 CURVE SMOOTH",
"391 718 OFFCURVE",
"268 729 OFFCURVE",
"221 711 CURVE SMOOTH",
"156 686 OFFCURVE",
"145 653 OFFCURVE",
"107 625 CURVE"
);
},
{
closed = 1;
nodes = (
"335 663 OFFCURVE",
"336 614 OFFCURVE",
"274 609 CURVE SMOOTH",
"234 606 OFFCURVE",
"164 536 OFFCURVE",
"260 519 CURVE SMOOTH",
"289 514 OFFCURVE",
"307 473 OFFCURVE",
"344 476 CURVE SMOOTH",
"399 480 OFFCURVE",
"378 540 OFFCURVE",
"352 564 CURVE SMOOTH",
"319 594 OFFCURVE",
"381 663 OFFCURVE",
"437 613 CURVE",
"462 596 OFFCURVE",
"469 570 OFFCURVE",
"465 532 CURVE SMOOTH",
"459 471 OFFCURVE",
"427 454 OFFCURVE",
"337 450 CURVE SMOOTH",
"316 449 OFFCURVE",
"267 447 OFFCURVE",
"277 406 CURVE SMOOTH",
"281 389 OFFCURVE",
"271 348 OFFCURVE",
"230 356 CURVE SMOOTH",
"189 364 OFFCURVE",
"193 375 OFFCURVE",
"163 486 CURVE SMOOTH",
"147 545 OFFCURVE",
"148 566 OFFCURVE",
"181 601 CURVE SMOOTH",
"208 630 OFFCURVE",
"231 644 OFFCURVE",
"259 649 CURVE SMOOTH"
);
},
{
closed = 1;
nodes = (
"355 383 OFFCURVE",
"333 402 OFFCURVE",
"357 406 CURVE SMOOTH",
"382 410 OFFCURVE",
"416 423 OFFCURVE",
"439 391 CURVE SMOOTH",
"463 358 OFFCURVE",
"451 327 OFFCURVE",
"432 311 CURVE SMOOTH",
"412 294 OFFCURVE",
"372 307 OFFCURVE",
"353 320 CURVE SMOOTH",
"335 333 OFFCURVE",
"331 340 OFFCURVE",
"341 358 CURVE SMOOTH"
);
}
);
width = 542;
}
);
note = P;
unicode = 0050;
},
{
glyphname = Thorn;
lastChange = "2019-07-17 18:30:08 +0000";
layers = (
{
hints = (
{
horizontal = 1;
place = "{99.07, 51.89}";
type = Stem;
},
{
horizontal = 1;
place = "{501.52, 68.77}";
type = Stem;
},
{
place = "{47, 64.49}";
type = Stem;
},
{
place = "{325.25, 24.52}";
type = Stem;
},
{
place = "{472, 23.97}";
type = Stem;
},
{
place = "{53, 78.46}";
type = Stem;
},
{
place = "{119, 74}";
type = Stem;
}
);
layerId = "B4EEB2EB-BE69-455B-9E3C-B597DC09858D";
paths = (
{
closed = 1;
nodes = (
"126 536 OFFCURVE",
"95 534 OFFCURVE",
"125 670 CURVE SMOOTH",
"131 697 OFFCURVE",
"100 683 OFFCURVE",
"87 687 CURVE SMOOTH",
"74 691 OFFCURVE",
"53 716 OFFCURVE",
"47 696 CURVE SMOOTH",
"4 554 OFFCURVE",
"55 544 OFFCURVE",
"53 500 CURVE SMOOTH",
"52 468 OFFCURVE",
"53 394 OFFCURVE",
"37 358 CURVE SMOOTH",
"20 321 OFFCURVE",
"56 315 OFFCURVE",
"70 309 CURVE",
"74 246 OFFCURVE",
"65 195 OFFCURVE",
"98 153 CURVE SMOOTH",
"119 127 OFFCURVE",
"118 71 OFFCURVE",
"119 12 CURVE SMOOTH",
"120 -30 OFFCURVE",
"151 -6 OFFCURVE",
"161 -6 CURVE SMOOTH",
"171 -6 OFFCURVE",
"193 -24 OFFCURVE",
"193 0 CURVE SMOOTH",
"193 25 OFFCURVE",
"188 122 OFFCURVE",
"158 166 CURVE SMOOTH",
"130 206 OFFCURVE",
"147 213 OFFCURVE",
"158 203 CURVE SMOOTH",
"191 173 OFFCURVE",
"199 120 OFFCURVE",
"285 166 CURVE",
"341 86 OFFCURVE",
"367 98 OFFCURVE",
"405 102 CURVE SMOOTH",
"442 106 OFFCURVE",
"512 141 OFFCURVE",
"519 176 CURVE SMOOTH",
"526 209 OFFCURVE",
"509 244 OFFCURVE",
"499 274 CURVE SMOOTH",
"485 315 OFFCURVE",
"522 350 OFFCURVE",
"529 420 CURVE SMOOTH",
"535 476 OFFCURVE",
"484 536 OFFCURVE",
"441 552 CURVE SMOOTH",
"398 568 OFFCURVE",
"275 579 OFFCURVE",
"228 561 CURVE SMOOTH",
"163 536 OFFCURVE",
"152 503 OFFCURVE",
"114 475 CURVE"
);
},
{
closed = 1;
nodes = (
"342 513 OFFCURVE",
"343 464 OFFCURVE",
"281 459 CURVE SMOOTH",
"241 456 OFFCURVE",
"171 386 OFFCURVE",
"267 369 CURVE SMOOTH",
"296 364 OFFCURVE",
"314 323 OFFCURVE",
"351 326 CURVE SMOOTH",
"406 330 OFFCURVE",
"385 390 OFFCURVE",
"359 414 CURVE SMOOTH",
"326 444 OFFCURVE",
"388 513 OFFCURVE",
"444 463 CURVE",
"469 446 OFFCURVE",
"476 420 OFFCURVE",
"472 382 CURVE SMOOTH",
"466 321 OFFCURVE",
"434 304 OFFCURVE",
"344 300 CURVE SMOOTH",
"323 299 OFFCURVE",
"274 297 OFFCURVE",
"284 256 CURVE SMOOTH",
"288 239 OFFCURVE",
"278 205 OFFCURVE",
"237 213 CURVE SMOOTH",
"196 221 OFFCURVE",
"168 277 OFFCURVE",
"140 336 CURVE SMOOTH",
"113 393 OFFCURVE",
"155 416 OFFCURVE",
"188 451 CURVE SMOOTH",
"215 480 OFFCURVE",
"238 494 OFFCURVE",
"266 499 CURVE SMOOTH"
);
},
{
closed = 1;
nodes = (
"358 231 OFFCURVE",
"336 250 OFFCURVE",
"360 254 CURVE SMOOTH",
"385 258 OFFCURVE",
"419 271 OFFCURVE",
"442 239 CURVE SMOOTH",
"466 206 OFFCURVE",
"454 175 OFFCURVE",
"435 159 CURVE SMOOTH",
"415 142 OFFCURVE",
"375 155 OFFCURVE",
"356 168 CURVE SMOOTH",
"338 181 OFFCURVE",
"334 188 OFFCURVE",
"344 206 CURVE SMOOTH"
);
}
);
width = 549;
}
);
note = Thorn;
unicode = 00DE;
},
{
glyphname = Q;
lastChange = "2019-07-17 18:30:08 +0000";
layers = (
{
hints = (
{
horizontal = 1;
place = "{-23, 36.15}";
type = Stem;
},
{
horizontal = 1;
place = "{242.13, 55.25}";
type = Stem;
},
{
horizontal = 1;
place = "{448.69, 20.33}";
type = Stem;
},
{
horizontal = 1;
place = "{607, 64.16}";
type = Stem;
},
{
place = "{40.25, 62.75}";
type = Stem;
},
{
place = "{467.17, 32.13}";
type = Stem;
},
{
place = "{581.71, 46.29}";
type = Stem;
},
{
horizontal = 1;
place = "{8.49, 53.89}";
type = Stem;
},
{
place = "{600.08, 59.71}";
type = Stem;
},
{
place = "{306.19, 224.44}";
type = Stem;
},
{
place = "{367.96, 137.19}";
type = Stem;
}
);
layerId = "B4EEB2EB-BE69-455B-9E3C-B597DC09858D";
paths = (
{
closed = 1;
nodes = (
"635 125 OFFCURVE",
"578 89 OFFCURVE",
"556 122 CURVE",
"592 163 OFFCURVE",
"630 242 OFFCURVE",
"628 303 CURVE SMOOTH",
"626 394 OFFCURVE",
"616 464 OFFCURVE",
"590 522 CURVE",
"602 526 OFFCURVE",
"617 538 OFFCURVE",
"621 567 CURVE SMOOTH",
"623 582 OFFCURVE",
"625 603 OFFCURVE",
"615 615 CURVE",
"606 624 OFFCURVE",
"595 629 OFFCURVE",
"578 632 CURVE SMOOTH",
"563 635 OFFCURVE",
"541 628 OFFCURVE",
"526 616 CURVE",
"456 682 OFFCURVE",
"338 683 OFFCURVE",
"234 650 CURVE SMOOTH",
"125 617 OFFCURVE",
"64 549 OFFCURVE",
"44 385 CURVE SMOOTH",
"27 249 OFFCURVE",
"69 188 OFFCURVE",
"105 155 CURVE",
"106 119 OFFCURVE",
"120 84 OFFCURVE",
"156 66 CURVE SMOOTH",
"231 29 OFFCURVE",
"296 -13 OFFCURVE",
"383 21 CURVE SMOOTH",
"424 38 OFFCURVE",
"448 63 OFFCURVE",
"457 91 CURVE",
"480 31 OFFCURVE",
"508 -21 OFFCURVE",
"570 -23 CURVE SMOOTH",
"636 -26 OFFCURVE",
"675 2 OFFCURVE",
"655 64 CURVE SMOOTH"
);
},
{
closed = 1;
nodes = (
"460 190 OFFCURVE",
"452 180 OFFCURVE",
"449 166 CURVE",
"445 172 OFFCURVE",
"441 178 OFFCURVE",
"436 184 CURVE SMOOTH",
"392 236 OFFCURVE",
"359 235 OFFCURVE",
"324 265 CURVE SMOOTH",
"288 295 OFFCURVE",
"180 325 OFFCURVE",
"132 254 CURVE",
"129 250 OFFCURVE",
"127 246 OFFCURVE",
"124 241 CURVE",
"109 266 OFFCURVE",
"104 309 OFFCURVE",
"103 341 CURVE SMOOTH",
"99 437 OFFCURVE",
"135 512 OFFCURVE",
"179 548 CURVE SMOOTH",
"239 596 OFFCURVE",
"313 612 OFFCURVE",
"365 607 CURVE SMOOTH",
"418 601 OFFCURVE",
"480 572 OFFCURVE",
"465 504 CURVE SMOOTH",
"451 436 OFFCURVE",
"430 481 OFFCURVE",
"415 522 CURVE SMOOTH",
"399 563 OFFCURVE",
"332 566 OFFCURVE",
"311 518 CURVE SMOOTH",
"290 469 OFFCURVE",
"338 391 OFFCURVE",
"373 346 CURVE SMOOTH",
"407 300 OFFCURVE",
"464 230 OFFCURVE",
"506 267 CURVE SMOOTH",
"549 303 OFFCURVE",
"528 354 OFFCURVE",
"505 408 CURVE SMOOTH",
"481 461 OFFCURVE",
"539 451 OFFCURVE",
"553 440 CURVE",
"566 429 OFFCURVE",
"568 402 OFFCURVE",
"579 352 CURVE SMOOTH",
"590 303 OFFCURVE",
"571 241 OFFCURVE",
"525 175 CURVE",
"510 194 OFFCURVE",
"493 207 OFFCURVE",
"475 198 CURVE SMOOTH"
);
},
{
closed = 1;
nodes = (
"350 40 OFFCURVE",
"274 76 OFFCURVE",
"238 99 CURVE",
"212 117 OFFCURVE",
"157 160 OFFCURVE",
"180 199 CURVE SMOOTH",
"205 239 OFFCURVE",
"255 262 OFFCURVE",
"300 219 CURVE SMOOTH",
"345 177 OFFCURVE",
"381 131 OFFCURVE",
"364 80 CURVE SMOOTH"
);
},
{
closed = 1;
nodes = (
"577 -3 OFFCURVE",
"535 35 OFFCURVE",
"521 67 CURVE SMOOTH",
"510 90 OFFCURVE",
"496 113 OFFCURVE",
"513 119 CURVE",
"529 126 OFFCURVE",
"536 97 OFFCURVE",
"551 70 CURVE SMOOTH",
"565 44 OFFCURVE",
"615 44 OFFCURVE",
"596 20 CURVE SMOOTH"
);
}
);
width = 700;
}
);
note = Q;
unicode = 0051;
},
{
glyphname = R;
lastChange = "2019-07-17 18:30:08 +0000";
layers = (
{
hints = (
{
horizontal = 1;
place = "{10.01, 48.49}";
type = Stem;
},
{
horizontal = 1;
place = "{144.88, 29.12}";
type = Stem;
},
{
horizontal = 1;
place = "{409.85, 55.15}";
type = Stem;
},
{
horizontal = 1;
place = "{630.66, 51.71}";
type = Stem;
},
{
place = "{55.45, 45.55}";
type = Stem;
},
{
place = "{181, 44.76}";
type = Stem;
},
{
place = "{273, 45}";
type = Stem;
},
{
place = "{374, 60.87}";
type = Stem;
},
{
horizontal = 1;
place = "{377.93, 42.07}";
type = Stem;
},
{
place = "{158, 50.71}";
type = Stem;
},
{
horizontal = 1;
place = "{375.38, 48.62}";
type = Stem;
},
{
horizontal = 1;
place = "{617.63, 62.72}";
type = Stem;
},
{
place = "{29.72, 59.04}";
type = Stem;
},
{
horizontal = 1;
place = "{485, 102.5}";
type = Stem;
}
);
layerId = "B4EEB2EB-BE69-455B-9E3C-B597DC09858D";
paths = (
{
closed = 1;
nodes = (
"39 -18 OFFCURVE",
"66 16 OFFCURVE",
"78 16 CURVE SMOOTH",
"90 16 OFFCURVE",
"113 -17 OFFCURVE",
"112 39 CURVE SMOOTH",
"111 65 OFFCURVE",
"79 117 OFFCURVE",
"101 193 CURVE SMOOTH",
"114 238 OFFCURVE",
"102 296 OFFCURVE",
"101 314 CURVE SMOOTH",
"98 399 OFFCURVE",
"158 384 OFFCURVE",
"158 358 CURVE SMOOTH",
"158 325 OFFCURVE",
"197 323 OFFCURVE",
"213 308 CURVE SMOOTH",
"246 278 OFFCURVE",
"273 233 OFFCURVE",
"282 181 CURVE SMOOTH",
"284 169 OFFCURVE",
"259 173 OFFCURVE",
"247 185 CURVE SMOOTH",
"235 197 OFFCURVE",
"176 208 OFFCURVE",
"181 128 CURVE SMOOTH",
"186 48 OFFCURVE",
"233 26 OFFCURVE",
"263 13 CURVE SMOOTH",
"293 0 OFFCURVE",
"316 28 OFFCURVE",
"318 74 CURVE SMOOTH",
"320 120 OFFCURVE",
"341 96 OFFCURVE",
"348 72 CURVE SMOOTH",
"355 48 OFFCURVE",
"371 13 OFFCURVE",
"377 -1 CURVE SMOOTH",
"383 -15 OFFCURVE",
"397 4 OFFCURVE",
"406 6 CURVE SMOOTH",
"415 8 OFFCURVE",
"436 -2 OFFCURVE",
"431 21 CURVE SMOOTH",
"421 65 OFFCURVE",
"372 183 OFFCURVE",
"348 219 CURVE SMOOTH",
"324 255 OFFCURVE",
"253 353 OFFCURVE",
"222 364 CURVE SMOOTH",
"191 375 OFFCURVE",
"216 438 OFFCURVE",
"263 395 CURVE SMOOTH",
"303 358 OFFCURVE",
"386 375 OFFCURVE",
"413 431 CURVE SMOOTH",
"440 487 OFFCURVE",
"463 607 OFFCURVE",
"353 666 CURVE SMOOTH",
"273 709 OFFCURVE",
"208 654 OFFCURVE",
"155 660 CURVE SMOOTH",
"102 666 OFFCURVE",
"41 711 OFFCURVE",
"32 645 CURVE SMOOTH",
"21 567 OFFCURVE",
"53 517 OFFCURVE",
"48 440 CURVE SMOOTH",
"41 333 OFFCURVE",
"68 276 OFFCURVE",
"48 210 CURVE SMOOTH",
"27 141 OFFCURVE",
"36 74 OFFCURVE",
"37 38 CURVE SMOOTH"
);
},
{
closed = 1;
nodes = (
"95 631 OFFCURVE",
"121 615 OFFCURVE",
"167 609 CURVE SMOOTH",
"207 604 OFFCURVE",
"272 648 OFFCURVE",
"321 623 CURVE SMOOTH",
"343 612 OFFCURVE",
"354 554 OFFCURVE",
"309 566 CURVE SMOOTH",
"264 578 OFFCURVE",
"207 618 OFFCURVE",
"185 546 CURVE SMOOTH",
"173 506 OFFCURVE",
"246 486 OFFCURVE",
"277 485 CURVE SMOOTH",
"308 484 OFFCURVE",
"326 503 OFFCURVE",
"337 523 CURVE SMOOTH",
"348 543 OFFCURVE",
"374 529 OFFCURVE",
"374 500 CURVE SMOOTH",
"374 471 OFFCURVE",
"369 429 OFFCURVE",
"320 424 CURVE SMOOTH",
"271 419 OFFCURVE",
"267 465 OFFCURVE",
"237 465 CURVE SMOOTH",
"207 465 OFFCURVE",
"172 419 OFFCURVE",
"145 420 CURVE SMOOTH",
"118 421 OFFCURVE",
"99 453 OFFCURVE",
"91 502 CURVE SMOOTH",
"86 533 OFFCURVE",
"90 564 OFFCURVE",
"92 594 CURVE SMOOTH"
);
},
{
closed = 1;
nodes = (
"213 154 OFFCURVE",
"245 149 OFFCURVE",
"256 131 CURVE SMOOTH",
"267 113 OFFCURVE",
"273 102 OFFCURVE",
"273 78 CURVE SMOOTH",
"273 54 OFFCURVE",
"244 51 OFFCURVE",
"246 75 CURVE SMOOTH",
"248 99 OFFCURVE",
"241 99 OFFCURVE",
"231 119 CURVE SMOOTH"
);
}
);
width = 465;
}
);
note = R;
unicode = 0052;
},
{
glyphname = S;
lastChange = "2019-07-17 18:30:08 +0000";
layers = (
{
hints = (
{
horizontal = 1;
place = "{-42.67, 152.63}";
type = Stem;
},
{
horizontal = 1;
place = "{226.7, 44}";
type = Stem;
},
{
horizontal = 1;
place = "{323.64, 36.31}";
type = Stem;
},
{
horizontal = 1;
place = "{636, 55.74}";
type = Stem;
},
{
place = "{78.63, 62.62}";
type = Stem;
},
{
place = "{187.64, 51.68}";
type = Stem;
},
{
place = "{281.24, 62.27}";
type = Stem;
},
{
place = "{472.25, 73.79}";
type = Stem;
},
{
place = "{296.18, 41.69}";
type = Stem;
},
{
place = "{367, 56}";
type = Stem;
}
);
layerId = "B4EEB2EB-BE69-455B-9E3C-B597DC09858D";
paths = (
{
closed = 1;
nodes = (
"407 653 OFFCURVE",
"360 709 OFFCURVE",
"245 687 CURVE SMOOTH",
"129 665 OFFCURVE",
"52 578 OFFCURVE",
"87 428 CURVE SMOOTH",
"122 278 OFFCURVE",
"261 307 OFFCURVE",
"299 317 CURVE SMOOTH",
"445 355 OFFCURVE",
"507 222 OFFCURVE",
"453 122 CURVE SMOOTH",
"433 85 OFFCURVE",
"384 55 OFFCURVE",
"361 50 CURVE SMOOTH",
"325 43 OFFCURVE",
"338 74 OFFCURVE",
"353 86 CURVE SMOOTH",
"398 124 OFFCURVE",
"429 132 OFFCURVE",
"423 189 CURVE SMOOTH",
"416 245 OFFCURVE",
"300 288 OFFCURVE",
"264 265 CURVE SMOOTH",
"210 230 OFFCURVE",
"165 150 OFFCURVE",
"200 105 CURVE SMOOTH",
"232 64 OFFCURVE",
"251 79 OFFCURVE",
"284 60 CURVE SMOOTH",
"314 43 OFFCURVE",
"285 15 OFFCURVE",
"245 24 CURVE SMOOTH",
"168 41 OFFCURVE",
"129 94 OFFCURVE",
"109 149 CURVE SMOOTH",
"89 204 OFFCURVE",
"88 190 OFFCURVE",
"64 181 CURVE SMOOTH",
"40 172 OFFCURVE",
"14 188 OFFCURVE",
"43 113 CURVE SMOOTH",
"72 38 OFFCURVE",
"155 -15 OFFCURVE",
"220 -35 CURVE SMOOTH",
"287 -56 OFFCURVE",
"378 -33 OFFCURVE",
"443 23 CURVE SMOOTH",
"505 77 OFFCURVE",
"569 147 OFFCURVE",
"538 253 CURVE SMOOTH",
"500 381 OFFCURVE",
"393 363 OFFCURVE",
"362 445 CURVE SMOOTH",
"331 527 OFFCURVE",
"339 600 OFFCURVE",
"385 561 CURVE SMOOTH",
"449 507 OFFCURVE",
"449 544 OFFCURVE",
"459 556 CURVE SMOOTH",
"469 568 OFFCURVE",
"507 572 OFFCURVE",
"485 590 CURVE SMOOTH"
);
},
{
closed = 1;
nodes = (
"249 649 OFFCURVE",
"340 653 OFFCURVE",
"301 587 CURVE SMOOTH",
"261 519 OFFCURVE",
"290 469 OFFCURVE",
"315 413 CURVE SMOOTH",
"338 361 OFFCURVE",
"249 339 OFFCURVE",
"182 385 CURVE SMOOTH",
"133 419 OFFCURVE",
"123 550 OFFCURVE",
"180 595 CURVE SMOOTH"
);
},
{
closed = 1;
nodes = (
"299 257 OFFCURVE",
"360 222 OFFCURVE",
"367 183 CURVE SMOOTH",
"372 156 OFFCURVE",
"336 132 OFFCURVE",
"314 119 CURVE SMOOTH",
"260 87 OFFCURVE",
"221 147 OFFCURVE",
"248 185 CURVE SMOOTH"
);
}
);
width = 574;
}
);
note = S;
unicode = 0053;
},
{
glyphname = T;
lastChange = "2019-07-17 18:30:08 +0000";
layers = (
{
hints = (
{
horizontal = 1;
place = "{647.01, 43.96}";
type = Stem;
},
{
place = "{225.81, 57.78}";
type = Stem;
},
{
place = "{490.58, 71.29}";
type = Stem;
},
{
horizontal = 1;
place = "{614, 60.38}";
type = Stem;
},
{
place = "{268.02, 47.81}";
type = Stem;
},
{
horizontal = 1;
place = "{526, 68.69}";
type = Stem;
},
{
horizontal = 1;
place = "{571, 42}";
type = Stem;
}
);
layerId = "B4EEB2EB-BE69-455B-9E3C-B597DC09858D";
paths = (
{
closed = 1;
nodes = (
"527 706 OFFCURVE",
"488 689 OFFCURVE",
"461 686 CURVE SMOOTH",
"435 683 OFFCURVE",
"425 700 OFFCURVE",
"376 694 CURVE SMOOTH",
"323 686 OFFCURVE",
"292 673 OFFCURVE",
"279 642 CURVE",
"274 649 OFFCURVE",
"268 656 OFFCURVE",
"260 662 CURVE SMOOTH",
"242 675 OFFCURVE",
"199 678 OFFCURVE",
"155 671 CURVE",
"148 679 OFFCURVE",
"139 688 OFFCURVE",
"129 695 CURVE SMOOTH",
"117 704 OFFCURVE",
"85 698 OFFCURVE",
"41 669 CURVE SMOOTH",
"-3 640 OFFCURVE",
"29 588 OFFCURVE",
"76 573 CURVE SMOOTH",
"120 559 OFFCURVE",
"164 587 OFFCURVE",
"172 613 CURVE",
"177 614 OFFCURVE",
"183 614 OFFCURVE",
"191 614 CURVE SMOOTH",
"231 615 OFFCURVE",
"232 625 OFFCURVE",
"246 563 CURVE SMOOTH",
"253 532 OFFCURVE",
"238 395 OFFCURVE",
"228 323 CURVE SMOOTH",
"218 251 OFFCURVE",
"243 197 OFFCURVE",
"265 142 CURVE SMOOTH",
"278 109 OFFCURVE",
"250 92 OFFCURVE",
"222 60 CURVE SMOOTH",
"183 16 OFFCURVE",
"250 -25 OFFCURVE",
"300 -3 CURVE SMOOTH",
"350 19 OFFCURVE",
"370 74 OFFCURVE",
"329 84 CURVE SMOOTH",
"296 92 OFFCURVE",
"344 133 OFFCURVE",
"292 223 CURVE SMOOTH",
"276 251 OFFCURVE",
"286 293 OFFCURVE",
"296 368 CURVE SMOOTH",
"305 440 OFFCURVE",
"308 480 OFFCURVE",
"314 526 CURVE",
"323 523 OFFCURVE",
"333 524 OFFCURVE",
"342 528 CURVE SMOOTH",
"374 541 OFFCURVE",
"389 566 OFFCURVE",
"422 571 CURVE SMOOTH",
"455 576 OFFCURVE",
"505 544 OFFCURVE",
"535 551 CURVE SMOOTH",
"564 558 OFFCURVE",
"571 604 OFFCURVE",
"549 655 CURVE SMOOTH"
);
},
{
closed = 1;
nodes = (
"442 615 OFFCURVE",
"412 619 OFFCURVE",
"365 600 CURVE SMOOTH",
"318 581 OFFCURVE",
"319 616 OFFCURVE",
"349 629 CURVE SMOOTH",
"389 646 OFFCURVE",
"440 650 OFFCURVE",
"473 645 CURVE SMOOTH",
"505 640 OFFCURVE",
"488 611 OFFCURVE",
"465 613 CURVE SMOOTH"
);
}
);
width = 582;
}
);
note = T;
unicode = 0054;
},
{
glyphname = U;
lastChange = "2019-07-17 18:30:08 +0000";
layers = (
{
hints = (
{
horizontal = 1;
place = "{14, 59.95}";
type = Stem;
},
{
horizontal = 1;
place = "{145.38, 89.31}";
type = Stem;
},
{
horizontal = 1;
place = "{597, 117.63}";
type = Stem;
},
{
place = "{20.18, 52.82}";
type = Stem;
},
{
place = "{343.3, 69.83}";
type = Stem;
},
{
horizontal = 1;
place = "{593.83, 76.76}";
type = Stem;
},
{
place = "{105, 58}";
type = Stem;
}
);
layerId = "B4EEB2EB-BE69-455B-9E3C-B597DC09858D";
paths = (
{
closed = 1;
nodes = (
"473 622 OFFCURVE",
"487 673 OFFCURVE",
"407 708 CURVE",
"353 734 OFFCURVE",
"299 684 OFFCURVE",
"291 646 CURVE SMOOTH",
"277 577 OFFCURVE",
"267 514 OFFCURVE",
"282 484 CURVE",
"282 483 OFFCURVE",
"282 483 OFFCURVE",
"283 482 CURVE",
"302 437 OFFCURVE",
"355 307 OFFCURVE",
"341 212 CURVE SMOOTH",
"330 136 OFFCURVE",
"262 57 OFFCURVE",
"217 77 CURVE SMOOTH",
"165 100 OFFCURVE",
"151 202 OFFCURVE",
"180 171 CURVE SMOOTH",
"210 140 OFFCURVE",
"259 128 OFFCURVE",
"268 188 CURVE SMOOTH",
"278 249 OFFCURVE",
"260 290 OFFCURVE",
"241 338 CURVE SMOOTH",
"222 388 OFFCURVE",
"185 382 OFFCURVE",
"173 308 CURVE SMOOTH",
"162 236 OFFCURVE",
"130 206 OFFCURVE",
"138 269 CURVE SMOOTH",
"144 315 OFFCURVE",
"142 351 OFFCURVE",
"140 398 CURVE SMOOTH",
"138 434 OFFCURVE",
"124 460 OFFCURVE",
"113 489 CURVE",
"153 507 OFFCURVE",
"159 534 OFFCURVE",
"163 584 CURVE SMOOTH",
"168 645 OFFCURVE",
"150 646 OFFCURVE",
"123 663 CURVE SMOOTH",
"96 680 OFFCURVE",
"50 670 OFFCURVE",
"37 626 CURVE SMOOTH",
"24 583 OFFCURVE",
"11 524 OFFCURVE",
"29 498 CURVE SMOOTH",
"43 479 OFFCURVE",
"51 472 OFFCURVE",
"66 474 CURVE",
"73 453 OFFCURVE",
"81 428 OFFCURVE",
"84 393 CURVE SMOOTH",
"93 301 OFFCURVE",
"76 256 OFFCURVE",
"96 171 CURVE SMOOTH",
"111 113 OFFCURVE",
"145 17 OFFCURVE",
"217 14 CURVE SMOOTH",
"313 10 OFFCURVE",
"391 116 OFFCURVE",
"410 208 CURVE SMOOTH",
"431 302 OFFCURVE",
"342 467 OFFCURVE",
"361 498 CURVE",
"373 516 OFFCURVE",
"388 538 OFFCURVE",
"413 563 CURVE SMOOTH"
);
},
{
closed = 1;
nodes = (
"343 663 OFFCURVE",
"392 632 OFFCURVE",
"370 598 CURVE SMOOTH",
"350 565 OFFCURVE",
"319 514 OFFCURVE",
"332 597 CURVE SMOOTH"
);
},
{
closed = 1;
nodes = (
"106 534 OFFCURVE",
"95 536 OFFCURVE",
"84 534 CURVE SMOOTH",
"73 532 OFFCURVE",
"73 555 OFFCURVE",
"73 567 CURVE SMOOTH",
"73 595 OFFCURVE",
"106 609 OFFCURVE",
"105 571 CURVE"
);
}
);
width = 483;
}
);
note = U;
unicode = 0055;
},
{
glyphname = Uacute;
lastChange = "2019-07-17 18:30:08 +0000";
layers = (
{
hints = (
{
horizontal = 1;
place = "{14, 59.95}";
type = Stem;
},
{
horizontal = 1;
place = "{145.38, 89.31}";
type = Stem;
},
{
horizontal = 1;
place = "{593.83, 76.76}";
type = Stem;
},
{
horizontal = 1;
place = "{730, 58}";
type = Stem;
},
{
place = "{20.18, 52.82}";
type = Stem;
},
{
place = "{343.3, 69.83}";
type = Stem;
},
{
horizontal = 1;
place = "{597, 117.63}";
type = Stem;
},
{
place = "{105, 58}";
type = Stem;
}
);
layerId = "B4EEB2EB-BE69-455B-9E3C-B597DC09858D";
paths = (
{
closed = 1;
nodes = (
"217 730 OFFCURVE",
"269 746 OFFCURVE",
"306 769 CURVE SMOOTH",
"333 786 OFFCURVE",
"377 832 OFFCURVE",
"387 844 CURVE SMOOTH",
"401 860 OFFCURVE",
"378 858 OFFCURVE",
"368 865 CURVE SMOOTH",
"355 874 OFFCURVE",
"355 893 OFFCURVE",
"330 867 CURVE SMOOTH",
"300 835 OFFCURVE",
"244 776 OFFCURVE",
"190 788 CURVE SMOOTH",
"176 791 OFFCURVE",
"189 767 OFFCURVE",
"189 756 CURVE SMOOTH",
"189 745 OFFCURVE",
"160 730 OFFCURVE",
"187 730 CURVE SMOOTH"
);
},
{
closed = 1;
nodes = (
"473 622 OFFCURVE",
"487 673 OFFCURVE",
"407 708 CURVE",
"353 734 OFFCURVE",
"299 684 OFFCURVE",
"291 646 CURVE SMOOTH",
"277 577 OFFCURVE",
"267 514 OFFCURVE",
"282 484 CURVE",
"282 483 OFFCURVE",
"282 483 OFFCURVE",
"283 482 CURVE",
"302 437 OFFCURVE",
"355 307 OFFCURVE",
"341 212 CURVE SMOOTH",
"330 136 OFFCURVE",
"262 57 OFFCURVE",
"217 77 CURVE SMOOTH",
"165 100 OFFCURVE",
"151 202 OFFCURVE",
"180 171 CURVE SMOOTH",
"210 140 OFFCURVE",
"259 128 OFFCURVE",
"268 188 CURVE SMOOTH",
"278 249 OFFCURVE",
"260 290 OFFCURVE",
"241 338 CURVE SMOOTH",
"222 388 OFFCURVE",
"185 382 OFFCURVE",
"173 308 CURVE SMOOTH",
"162 236 OFFCURVE",
"130 206 OFFCURVE",
"138 269 CURVE SMOOTH",
"144 315 OFFCURVE",
"142 351 OFFCURVE",
"140 398 CURVE SMOOTH",
"138 434 OFFCURVE",
"124 460 OFFCURVE",
"113 489 CURVE",
"153 507 OFFCURVE",
"159 534 OFFCURVE",
"163 584 CURVE SMOOTH",
"168 645 OFFCURVE",
"150 646 OFFCURVE",
"123 663 CURVE SMOOTH",
"96 680 OFFCURVE",
"50 670 OFFCURVE",
"37 626 CURVE SMOOTH",
"24 583 OFFCURVE",
"11 524 OFFCURVE",
"29 498 CURVE SMOOTH",
"43 479 OFFCURVE",
"51 472 OFFCURVE",
"66 474 CURVE",
"73 453 OFFCURVE",
"81 428 OFFCURVE",
"84 393 CURVE SMOOTH",
"93 301 OFFCURVE",
"76 256 OFFCURVE",
"96 171 CURVE SMOOTH",
"111 113 OFFCURVE",
"145 17 OFFCURVE",
"217 14 CURVE SMOOTH",
"313 10 OFFCURVE",
"391 116 OFFCURVE",
"410 208 CURVE SMOOTH",
"431 302 OFFCURVE",
"342 467 OFFCURVE",
"361 498 CURVE",
"373 516 OFFCURVE",
"388 538 OFFCURVE",
"413 563 CURVE SMOOTH"
);
},
{
closed = 1;
nodes = (
"343 663 OFFCURVE",
"392 632 OFFCURVE",
"370 598 CURVE SMOOTH",
"350 565 OFFCURVE",
"319 514 OFFCURVE",
"332 597 CURVE SMOOTH"
);
},
{
closed = 1;
nodes = (
"106 534 OFFCURVE",
"95 536 OFFCURVE",
"84 534 CURVE SMOOTH",
"73 532 OFFCURVE",
"73 555 OFFCURVE",
"73 567 CURVE SMOOTH",
"73 595 OFFCURVE",
"106 609 OFFCURVE",
"105 571 CURVE"
);
}
);
width = 483;
}
);
note = Uacute;
unicode = 00DA;
},
{
glyphname = Ucircumflex;
lastChange = "2019-07-17 18:30:08 +0000";
layers = (
{
hints = (
{
horizontal = 1;
place = "{14, 59.95}";
type = Stem;
},
{
horizontal = 1;
place = "{145.38, 89.31}";
type = Stem;
},
{
horizontal = 1;
place = "{593.83, 76.76}";
type = Stem;
},
{
horizontal = 1;
place = "{912, 53.63}";
type = Stem;
},
{
place = "{20.18, 52.82}";
type = Stem;
},
{
place = "{343.3, 69.83}";
type = Stem;
},
{
horizontal = 1;
place = "{597, 117.63}";
type = Stem;
},
{
place = "{105, 58}";
type = Stem;
}
);
layerId = "B4EEB2EB-BE69-455B-9E3C-B597DC09858D";
paths = (
{
closed = 1;
nodes = (
"142 777 OFFCURVE",
"187 808 OFFCURVE",
"216 841 CURVE SMOOTH",
"237 865 OFFCURVE",
"260 897 OFFCURVE",
"265 912 CURVE",
"269 897 OFFCURVE",
"279 859 OFFCURVE",
"297 833 CURVE SMOOTH",
"321 798 OFFCURVE",
"362 762 OFFCURVE",
"389 749 CURVE SMOOTH",
"414 737 OFFCURVE",
"400 763 OFFCURVE",
"405 773 CURVE SMOOTH",
"410 783 OFFCURVE",
"424 799 OFFCURVE",
"410 802 CURVE SMOOTH",
"356 814 OFFCURVE",
"329 891 OFFCURVE",
"315 933 CURVE SMOOTH",
"299 978 OFFCURVE",
"284 959 OFFCURVE",
"274 960 CURVE SMOOTH",
"264 961 OFFCURVE",
"254 981 OFFCURVE",
"221 939 CURVE SMOOTH",
"202 915 OFFCURVE",
"155 825 OFFCURVE",
"100 825 CURVE SMOOTH",
"86 825 OFFCURVE",
"105 805 OFFCURVE",
"108 794 CURVE SMOOTH",
"111 783 OFFCURVE",
"88 762 OFFCURVE",
"114 769 CURVE SMOOTH"
);
},
{
closed = 1;
nodes = (
"473 622 OFFCURVE",
"487 673 OFFCURVE",
"407 708 CURVE",
"353 734 OFFCURVE",
"299 684 OFFCURVE",
"291 646 CURVE SMOOTH",
"277 577 OFFCURVE",
"267 514 OFFCURVE",
"282 484 CURVE",
"282 483 OFFCURVE",
"282 483 OFFCURVE",
"283 482 CURVE",
"302 437 OFFCURVE",
"355 307 OFFCURVE",
"341 212 CURVE SMOOTH",
"330 136 OFFCURVE",
"262 57 OFFCURVE",
"217 77 CURVE SMOOTH",
"165 100 OFFCURVE",
"151 202 OFFCURVE",
"180 171 CURVE SMOOTH",
"210 140 OFFCURVE",
"259 128 OFFCURVE",
"268 188 CURVE SMOOTH",
"278 249 OFFCURVE",
"260 290 OFFCURVE",
"241 338 CURVE SMOOTH",
"222 388 OFFCURVE",
"185 382 OFFCURVE",
"173 308 CURVE SMOOTH",
"162 236 OFFCURVE",
"130 206 OFFCURVE",
"138 269 CURVE SMOOTH",
"144 315 OFFCURVE",
"142 351 OFFCURVE",
"140 398 CURVE SMOOTH",
"138 434 OFFCURVE",
"124 460 OFFCURVE",
"113 489 CURVE",
"153 507 OFFCURVE",
"159 534 OFFCURVE",
"163 584 CURVE SMOOTH",
"168 645 OFFCURVE",
"150 646 OFFCURVE",
"123 663 CURVE SMOOTH",
"96 680 OFFCURVE",
"50 670 OFFCURVE",
"37 626 CURVE SMOOTH",
"24 583 OFFCURVE",
"11 524 OFFCURVE",
"29 498 CURVE SMOOTH",
"43 479 OFFCURVE",
"51 472 OFFCURVE",
"66 474 CURVE",
"73 453 OFFCURVE",
"81 428 OFFCURVE",
"84 393 CURVE SMOOTH",
"93 301 OFFCURVE",
"76 256 OFFCURVE",
"96 171 CURVE SMOOTH",
"111 113 OFFCURVE",
"145 17 OFFCURVE",
"217 14 CURVE SMOOTH",
"313 10 OFFCURVE",
"391 116 OFFCURVE",
"410 208 CURVE SMOOTH",
"431 302 OFFCURVE",
"342 467 OFFCURVE",
"361 498 CURVE",
"373 516 OFFCURVE",
"388 538 OFFCURVE",
"413 563 CURVE SMOOTH"
);
},
{
closed = 1;
nodes = (
"343 663 OFFCURVE",
"392 632 OFFCURVE",
"370 598 CURVE SMOOTH",
"350 565 OFFCURVE",
"319 514 OFFCURVE",
"332 597 CURVE SMOOTH"
);
},
{
closed = 1;
nodes = (
"106 534 OFFCURVE",
"95 536 OFFCURVE",
"84 534 CURVE SMOOTH",
"73 532 OFFCURVE",
"73 555 OFFCURVE",
"73 567 CURVE SMOOTH",
"73 595 OFFCURVE",
"106 609 OFFCURVE",
"105 571 CURVE"
);
}
);
width = 483;
}
);
note = Ucircumflex;
unicode = 00DB;
},
{
glyphname = Udieresis;
lastChange = "2019-07-17 18:30:08 +0000";
layers = (
{
hints = (
{
horizontal = 1;
place = "{14, 59.95}";
type = Stem;
},
{
horizontal = 1;
place = "{145.38, 89.31}";
type = Stem;
},
{
horizontal = 1;
place = "{593.83, 76.76}";
type = Stem;
},
{
horizontal = 1;
place = "{755, 83}";
type = Stem;
},
{
place = "{20.18, 52.82}";
type = Stem;
},
{
place = "{118.5, 85.25}";
type = Stem;
},
{
place = "{278, 87}";
type = Stem;
},
{
horizontal = 1;
place = "{597, 117.63}";
type = Stem;
},
{
horizontal = 1;
place = "{756.03, 79.1}";
type = Stem;
},
{
place = "{343.3, 69.83}";
type = Stem;
},
{
place = "{105, 58}";
type = Stem;
}
);
layerId = "B4EEB2EB-BE69-455B-9E3C-B597DC09858D";
paths = (
{
closed = 1;
nodes = (
"347 755 OFFCURVE",
"365 775 OFFCURVE",
"365 791 CURVE SMOOTH",
"365 808 OFFCURVE",
"347 837 OFFCURVE",
"323 838 CURVE SMOOTH",
"301 839 OFFCURVE",
"278 816 OFFCURVE",
"278 799 CURVE SMOOTH",
"278 783 OFFCURVE",
"301 755 OFFCURVE",
"323 755 CURVE SMOOTH"
);
},
{
closed = 1;
nodes = (
"139 757 OFFCURVE",
"172 749 OFFCURVE",
"190 765 CURVE",
"205 781 OFFCURVE",
"209 815 OFFCURVE",
"198 826 CURVE SMOOTH",
"187 837 OFFCURVE",
"147 840 OFFCURVE",
"130 824 CURVE",
"114 807 OFFCURVE",
"116 779 OFFCURVE",
"128 768 CURVE"
);
},
{
closed = 1;
nodes = (
"473 622 OFFCURVE",
"487 673 OFFCURVE",
"407 708 CURVE",
"353 734 OFFCURVE",
"299 684 OFFCURVE",
"291 646 CURVE SMOOTH",
"277 577 OFFCURVE",
"267 514 OFFCURVE",
"282 484 CURVE",
"282 483 OFFCURVE",
"282 483 OFFCURVE",
"283 482 CURVE",
"302 437 OFFCURVE",
"355 307 OFFCURVE",
"341 212 CURVE SMOOTH",
"330 136 OFFCURVE",
"262 57 OFFCURVE",
"217 77 CURVE SMOOTH",
"165 100 OFFCURVE",
"151 202 OFFCURVE",
"180 171 CURVE SMOOTH",
"210 140 OFFCURVE",
"259 128 OFFCURVE",
"268 188 CURVE SMOOTH",
"278 249 OFFCURVE",
"260 290 OFFCURVE",
"241 338 CURVE SMOOTH",
"222 388 OFFCURVE",
"185 382 OFFCURVE",
"173 308 CURVE SMOOTH",
"162 236 OFFCURVE",
"130 206 OFFCURVE",
"138 269 CURVE SMOOTH",
"144 315 OFFCURVE",
"142 351 OFFCURVE",
"140 398 CURVE SMOOTH",
"138 434 OFFCURVE",
"124 460 OFFCURVE",
"113 489 CURVE",
"153 507 OFFCURVE",
"159 534 OFFCURVE",
"163 584 CURVE SMOOTH",
"168 645 OFFCURVE",
"150 646 OFFCURVE",
"123 663 CURVE SMOOTH",
"96 680 OFFCURVE",
"50 670 OFFCURVE",
"37 626 CURVE SMOOTH",
"24 583 OFFCURVE",
"11 524 OFFCURVE",
"29 498 CURVE SMOOTH",
"43 479 OFFCURVE",
"51 472 OFFCURVE",
"66 474 CURVE",
"73 453 OFFCURVE",
"81 428 OFFCURVE",
"84 393 CURVE SMOOTH",
"93 301 OFFCURVE",
"76 256 OFFCURVE",
"96 171 CURVE SMOOTH",
"111 113 OFFCURVE",
"145 17 OFFCURVE",
"217 14 CURVE SMOOTH",
"313 10 OFFCURVE",
"391 116 OFFCURVE",
"410 208 CURVE SMOOTH",
"431 302 OFFCURVE",
"342 467 OFFCURVE",
"361 498 CURVE",
"373 516 OFFCURVE",
"388 538 OFFCURVE",
"413 563 CURVE SMOOTH"
);
},
{
closed = 1;
nodes = (
"343 663 OFFCURVE",
"392 632 OFFCURVE",
"370 598 CURVE SMOOTH",
"350 565 OFFCURVE",
"319 514 OFFCURVE",
"332 597 CURVE SMOOTH"
);
},
{
closed = 1;
nodes = (
"106 534 OFFCURVE",
"95 536 OFFCURVE",
"84 534 CURVE SMOOTH",
"73 532 OFFCURVE",
"73 555 OFFCURVE",
"73 567 CURVE SMOOTH",
"73 595 OFFCURVE",
"106 609 OFFCURVE",
"105 571 CURVE"
);
}
);
width = 483;
}
);
note = Udieresis;
unicode = 00DC;
},
{
glyphname = Ugrave;
lastChange = "2019-07-17 18:30:08 +0000";
layers = (
{
hints = (
{
horizontal = 1;
place = "{14, 59.95}";
type = Stem;
},
{
horizontal = 1;
place = "{145.38, 89.31}";
type = Stem;
},
{
horizontal = 1;
place = "{593.83, 76.76}";
type = Stem;
},
{
horizontal = 1;
place = "{749, 58}";
type = Stem;
},
{
place = "{20.18, 52.82}";
type = Stem;
},
{
place = "{343.3, 69.83}";
type = Stem;
},
{
place = "{274.55, 56.67}";
type = Stem;
},
{
horizontal = 1;
place = "{597, 117.63}";
type = Stem;
},
{
place = "{105, 58}";
type = Stem;
}
);
layerId = "B4EEB2EB-BE69-455B-9E3C-B597DC09858D";
paths = (
{
closed = 1;
nodes = (
"238 765 OFFCURVE",
"290 749 OFFCURVE",
"320 749 CURVE SMOOTH",
"347 749 OFFCURVE",
"318 764 OFFCURVE",
"318 775 CURVE SMOOTH",
"318 786 OFFCURVE",
"331 810 OFFCURVE",
"317 807 CURVE SMOOTH",
"263 795 OFFCURVE",
"207 854 OFFCURVE",
"177 886 CURVE SMOOTH",
"152 912 OFFCURVE",
"152 893 OFFCURVE",
"139 884 CURVE SMOOTH",
"129 877 OFFCURVE",
"106 879 OFFCURVE",
"120 863 CURVE SMOOTH",
"130 851 OFFCURVE",
"174 805 OFFCURVE",
"201 788 CURVE SMOOTH"
);
},
{
closed = 1;
nodes = (
"473 622 OFFCURVE",
"487 673 OFFCURVE",
"407 708 CURVE",
"353 734 OFFCURVE",
"299 684 OFFCURVE",
"291 646 CURVE SMOOTH",
"277 577 OFFCURVE",
"267 514 OFFCURVE",
"282 484 CURVE",
"282 483 OFFCURVE",
"282 483 OFFCURVE",
"283 482 CURVE",
"302 437 OFFCURVE",
"355 307 OFFCURVE",
"341 212 CURVE SMOOTH",
"330 136 OFFCURVE",
"262 57 OFFCURVE",
"217 77 CURVE SMOOTH",
"165 100 OFFCURVE",
"151 202 OFFCURVE",
"180 171 CURVE SMOOTH",
"210 140 OFFCURVE",
"259 128 OFFCURVE",
"268 188 CURVE SMOOTH",
"278 249 OFFCURVE",
"260 290 OFFCURVE",
"241 338 CURVE SMOOTH",
"222 388 OFFCURVE",
"185 382 OFFCURVE",
"173 308 CURVE SMOOTH",
"162 236 OFFCURVE",
"130 206 OFFCURVE",
"138 269 CURVE SMOOTH",
"144 315 OFFCURVE",
"142 351 OFFCURVE",
"140 398 CURVE SMOOTH",
"138 434 OFFCURVE",
"124 460 OFFCURVE",
"113 489 CURVE",
"153 507 OFFCURVE",
"159 534 OFFCURVE",
"163 584 CURVE SMOOTH",
"168 645 OFFCURVE",
"150 646 OFFCURVE",
"123 663 CURVE SMOOTH",
"96 680 OFFCURVE",
"50 670 OFFCURVE",
"37 626 CURVE SMOOTH",
"24 583 OFFCURVE",
"11 524 OFFCURVE",
"29 498 CURVE SMOOTH",
"43 479 OFFCURVE",
"51 472 OFFCURVE",
"66 474 CURVE",
"73 453 OFFCURVE",
"81 428 OFFCURVE",
"84 393 CURVE SMOOTH",
"93 301 OFFCURVE",
"76 256 OFFCURVE",
"96 171 CURVE SMOOTH",
"111 113 OFFCURVE",
"145 17 OFFCURVE",
"217 14 CURVE SMOOTH",
"313 10 OFFCURVE",
"391 116 OFFCURVE",
"410 208 CURVE SMOOTH",
"431 302 OFFCURVE",
"342 467 OFFCURVE",
"361 498 CURVE",
"373 516 OFFCURVE",
"388 538 OFFCURVE",
"413 563 CURVE SMOOTH"
);
},
{
closed = 1;
nodes = (
"343 663 OFFCURVE",
"392 632 OFFCURVE",
"370 598 CURVE SMOOTH",
"350 565 OFFCURVE",
"319 514 OFFCURVE",
"332 597 CURVE SMOOTH"
);
},
{
closed = 1;
nodes = (
"106 534 OFFCURVE",
"95 536 OFFCURVE",
"84 534 CURVE SMOOTH",
"73 532 OFFCURVE",
"73 555 OFFCURVE",
"73 567 CURVE SMOOTH",
"73 595 OFFCURVE",
"106 609 OFFCURVE",
"105 571 CURVE"
);
}
);
width = 483;
}
);
note = Ugrave;
unicode = 00D9;
},
{
glyphname = V;
lastChange = "2019-07-17 18:30:08 +0000";
layers = (
{
hints = (
{
horizontal = 1;
place = "{-5.24, 84.49}";
type = Stem;
},
{
horizontal = 1;
place = "{246.75, 42.13}";
type = Stem;
},
{
place = "{9.95, 53.05}";
type = Stem;
},
{
place = "{269.75, 50.15}";
type = Stem;
},
{
place = "{390.89, 36.11}";
type = Stem;
},
{
horizontal = 1;
place = "{546, 140}";
type = Stem;
},
{
place = "{47.67, 67.89}";
type = Stem;
},
{
place = "{406.22, 139.28}";
type = Stem;
}
);
layerId = "B4EEB2EB-BE69-455B-9E3C-B597DC09858D";
paths = (
{
closed = 1;
nodes = (
"26 462 OFFCURVE",
"40 396 OFFCURVE",
"63 357 CURVE",
"32 318 OFFCURVE",
"45 253 OFFCURVE",
"121 150 CURVE SMOOTH",
"214 24 OFFCURVE",
"244 -35 OFFCURVE",
"298 9 CURVE SMOOTH",
"351 53 OFFCURVE",
"289 103 OFFCURVE",
"337 163 CURVE SMOOTH",
"376 212 OFFCURVE",
"428 266 OFFCURVE",
"427 311 CURVE",
"427 333 OFFCURVE",
"428 423 OFFCURVE",
"434 466 CURVE SMOOTH",
"438 493 OFFCURVE",
"447 524 OFFCURVE",
"461 546 CURVE",
"473 546 OFFCURVE",
"486 551 OFFCURVE",
"499 559 CURVE SMOOTH",
"543 587 OFFCURVE",
"559 675 OFFCURVE",
"534 686 CURVE SMOOTH",
"499 701 OFFCURVE",
"499 674 OFFCURVE",
"488 670 CURVE SMOOTH",
"478 666 OFFCURVE",
"474 682 OFFCURVE",
"450 686 CURVE SMOOTH",
"428 690 OFFCURVE",
"394 665 OFFCURVE",
"410 603 CURVE SMOOTH",
"412 594 OFFCURVE",
"415 586 OFFCURVE",
"418 580 CURVE",
"374 492 OFFCURVE",
"402 378 OFFCURVE",
"352 354 CURVE SMOOTH",
"333 345 OFFCURVE",
"313 329 OFFCURVE",
"294 316 CURVE SMOOTH",
"252 288 OFFCURVE",
"231 267 OFFCURVE",
"208 330 CURVE SMOOTH",
"200 352 OFFCURVE",
"161 397 OFFCURVE",
"114 388 CURVE",
"84 457 OFFCURVE",
"70 509 OFFCURVE",
"63 559 CURVE SMOOTH",
"58 599 OFFCURVE",
"74 642 OFFCURVE",
"85 668 CURVE SMOOTH",
"100 703 OFFCURVE",
"72 684 OFFCURVE",
"63 689 CURVE SMOOTH",
"52 695 OFFCURVE",
"46 724 OFFCURVE",
"34 687 CURVE SMOOTH",
"22 651 OFFCURVE",
"1 620 OFFCURVE",
"14 537 CURVE SMOOTH"
);
},
{
closed = 1;
nodes = (
"95 283 OFFCURVE",
"137 342 OFFCURVE",
"169 287 CURVE SMOOTH",
"200 233 OFFCURVE",
"227 242 OFFCURVE",
"288 262 CURVE SMOOTH",
"354 284 OFFCURVE",
"357 259 OFFCURVE",
"283 174 CURVE SMOOTH",
"262 150 OFFCURVE",
"272 140 OFFCURVE",
"273 111 CURVE SMOOTH",
"274 82 OFFCURVE",
"242 55 OFFCURVE",
"208 113 CURVE SMOOTH",
"175 170 OFFCURVE",
"155 207 OFFCURVE",
"127 242 CURVE SMOOTH"
);
}
);
width = 536;
}
);
note = V;
unicode = 0056;
},
{
glyphname = W;
lastChange = "2019-07-17 18:30:08 +0000";
layers = (
{
hints = (
{
horizontal = 1;
place = "{-1.81, 93.11}";
type = Stem;
},
{
horizontal = 1;
place = "{199, 44}";
type = Stem;
},
{
horizontal = 1;
place = "{336.32, 81.09}";
type = Stem;
},
{
horizontal = 1;
place = "{507.38, 164.81}";
type = Stem;
},
{
place = "{24.79, 79.6}";
type = Stem;
},
{
place = "{228.62, 67.47}";
type = Stem;
},
{
place = "{367.46, 70.54}";
type = Stem;
},
{
place = "{508.13, 53.94}";
type = Stem;
},
{
place = "{580.41, 66.59}";
type = Stem;
},
{
place = "{685, 85}";
type = Stem;
},
{
horizontal = 1;
place = "{598.38, 88.9}";
type = Stem;
},
{
place = "{431.54, 59.46}";
type = Stem;
},
{
place = "{764, 61.62}";
type = Stem;
}
);
layerId = "B4EEB2EB-BE69-455B-9E3C-B597DC09858D";
paths = (
{
closed = 1;
nodes = (
"781 555 OFFCURVE",
"775 556 OFFCURVE",
"770 558 CURVE",
"771 594 OFFCURVE",
"765 640 OFFCURVE",
"763 661 CURVE SMOOTH",
"761 689 OFFCURVE",
"735 657 OFFCURVE",
"724 657 CURVE SMOOTH",
"713 657 OFFCURVE",
"685 689 OFFCURVE",
"685 657 CURVE SMOOTH",
"685 626 OFFCURVE",
"687 589 OFFCURVE",
"687 542 CURVE",
"679 536 OFFCURVE",
"671 528 OFFCURVE",
"664 518 CURVE SMOOTH",
"636 478 OFFCURVE",
"621 425 OFFCURVE",
"609 402 CURVE SMOOTH",
"564 315 OFFCURVE",
"569 262 OFFCURVE",
"642 213 CURVE SMOOTH",
"652 206 OFFCURVE",
"663 202 OFFCURVE",
"672 199 CURVE",
"678 174 OFFCURVE",
"682 134 OFFCURVE",
"645 102 CURVE SMOOTH",
"585 50 OFFCURVE",
"574 195 OFFCURVE",
"540 308 CURVE SMOOTH",
"506 420 OFFCURVE",
"446 426 OFFCURVE",
"406 412 CURVE SMOOTH",
"366 398 OFFCURVE",
"354 308 OFFCURVE",
"385 265 CURVE SMOOTH",
"416 222 OFFCURVE",
"446 136 OFFCURVE",
"424 94 CURVE SMOOTH",
"390 29 OFFCURVE",
"350 124 OFFCURVE",
"270 249 CURVE",
"278 261 OFFCURVE",
"285 274 OFFCURVE",
"289 291 CURVE SMOOTH",
"311 386 OFFCURVE",
"278 513 OFFCURVE",
"248 579 CURVE SMOOTH",
"218 645 OFFCURVE",
"174 704 OFFCURVE",
"93 683 CURVE SMOOTH",
"36 668 OFFCURVE",
"-2 585 OFFCURVE",
"48 509 CURVE SMOOTH",
"97 434 OFFCURVE",
"119 372 OFFCURVE",
"133 279 CURVE SMOOTH",
"140 234 OFFCURVE",
"172 213 OFFCURVE",
"206 215 CURVE",
"303 15 OFFCURVE",
"343 -10 OFFCURVE",
"388 -1 CURVE SMOOTH",
"466 14 OFFCURVE",
"490 68 OFFCURVE",
"491 109 CURVE SMOOTH",
"492 150 OFFCURVE",
"445 261 OFFCURVE",
"438 300 CURVE SMOOTH",
"431 339 OFFCURVE",
"472 352 OFFCURVE",
"487 313 CURVE SMOOTH",
"526 212 OFFCURVE",
"495 208 OFFCURVE",
"527 113 CURVE SMOOTH",
"553 35 OFFCURVE",
"581 -52 OFFCURVE",
"675 33 CURVE SMOOTH",
"748 99 OFFCURVE",
"731 156 OFFCURVE",
"732 212 CURVE",
"759 230 OFFCURVE",
"777 260 OFFCURVE",
"784 278 CURVE SMOOTH",
"797 313 OFFCURVE",
"773 391 OFFCURVE",
"802 429 CURVE SMOOTH",
"831 467 OFFCURVE",
"841 536 OFFCURVE",
"787 553 CURVE SMOOTH"
);
},
{
closed = 1;
nodes = (
"153 624 OFFCURVE",
"201 549 OFFCURVE",
"216 477 CURVE SMOOTH",
"231 405 OFFCURVE",
"235 338 OFFCURVE",
"215 324 CURVE SMOOTH",
"195 310 OFFCURVE",
"188 368 OFFCURVE",
"172 419 CURVE SMOOTH",
"156 471 OFFCURVE",
"76 556 OFFCURVE",
"115 590 CURVE SMOOTH"
);
},
{
closed = 1;
nodes = (
"761 413 OFFCURVE",
"719 412 OFFCURVE",
"717 384 CURVE SMOOTH",
"715 357 OFFCURVE",
"734 338 OFFCURVE",
"716 285 CURVE SMOOTH",
"698 232 OFFCURVE",
"648 223 OFFCURVE",
"647 294 CURVE SMOOTH",
"646 366 OFFCURVE",
"658 412 OFFCURVE",
"694 469 CURVE SMOOTH",
"729 524 OFFCURVE",
"768 523 OFFCURVE",
"764 449 CURVE SMOOTH"
);
}
);
width = 856;
}
);
note = W;
unicode = 0057;
},
{
glyphname = Wacute;
lastChange = "2019-07-17 18:30:08 +0000";
layers = (
{
hints = (
{
horizontal = 1;
place = "{-1.81, 93.11}";
type = Stem;
},
{
horizontal = 1;
place = "{199, 44}";
type = Stem;
},
{
horizontal = 1;
place = "{336.32, 81.09}";
type = Stem;
},
{
horizontal = 1;
place = "{507.38, 164.81}";
type = Stem;
},
{
place = "{24.79, 79.6}";
type = Stem;
},
{
place = "{228.62, 67.47}";
type = Stem;
},
{
place = "{367.46, 70.54}";
type = Stem;
},
{
place = "{508.13, 53.94}";
type = Stem;
},
{
place = "{580.41, 66.59}";
type = Stem;
},
{
place = "{685, 85}";
type = Stem;
},
{
horizontal = 1;
place = "{491, 58}";
type = Stem;
},
{
horizontal = 1;
place = "{598.38, 88.9}";
type = Stem;
},
{
place = "{431.54, 59.46}";
type = Stem;
},
{
place = "{764, 61.62}";
type = Stem;
}
);
layerId = "B4EEB2EB-BE69-455B-9E3C-B597DC09858D";
paths = (
{
closed = 1;
nodes = (
"781 555 OFFCURVE",
"775 556 OFFCURVE",
"770 558 CURVE",
"771 594 OFFCURVE",
"765 640 OFFCURVE",
"763 661 CURVE SMOOTH",
"761 689 OFFCURVE",
"735 657 OFFCURVE",
"724 657 CURVE SMOOTH",
"713 657 OFFCURVE",
"685 689 OFFCURVE",
"685 657 CURVE SMOOTH",
"685 626 OFFCURVE",
"687 589 OFFCURVE",
"687 542 CURVE",
"679 536 OFFCURVE",
"671 528 OFFCURVE",
"664 518 CURVE SMOOTH",
"636 478 OFFCURVE",
"621 425 OFFCURVE",
"609 402 CURVE SMOOTH",
"564 315 OFFCURVE",
"569 262 OFFCURVE",
"642 213 CURVE SMOOTH",
"652 206 OFFCURVE",
"663 202 OFFCURVE",
"672 199 CURVE",
"678 174 OFFCURVE",
"682 134 OFFCURVE",
"645 102 CURVE SMOOTH",
"585 50 OFFCURVE",
"574 195 OFFCURVE",
"540 308 CURVE SMOOTH",
"506 420 OFFCURVE",
"446 426 OFFCURVE",
"406 412 CURVE SMOOTH",
"366 398 OFFCURVE",
"354 308 OFFCURVE",
"385 265 CURVE SMOOTH",
"416 222 OFFCURVE",
"446 136 OFFCURVE",
"424 94 CURVE SMOOTH",
"390 29 OFFCURVE",
"350 124 OFFCURVE",
"270 249 CURVE",
"278 261 OFFCURVE",
"285 274 OFFCURVE",
"289 291 CURVE SMOOTH",
"311 386 OFFCURVE",
"278 513 OFFCURVE",
"248 579 CURVE SMOOTH",
"218 645 OFFCURVE",
"174 704 OFFCURVE",
"93 683 CURVE SMOOTH",
"36 668 OFFCURVE",
"-2 585 OFFCURVE",
"48 509 CURVE SMOOTH",
"97 434 OFFCURVE",
"119 372 OFFCURVE",
"133 279 CURVE SMOOTH",
"140 234 OFFCURVE",
"172 213 OFFCURVE",
"206 215 CURVE",
"303 15 OFFCURVE",
"343 -10 OFFCURVE",
"388 -1 CURVE SMOOTH",
"466 14 OFFCURVE",
"490 68 OFFCURVE",
"491 109 CURVE SMOOTH",
"492 150 OFFCURVE",
"445 261 OFFCURVE",
"438 300 CURVE SMOOTH",
"431 339 OFFCURVE",
"472 352 OFFCURVE",
"487 313 CURVE SMOOTH",
"526 212 OFFCURVE",
"495 208 OFFCURVE",
"527 113 CURVE SMOOTH",
"553 35 OFFCURVE",
"581 -52 OFFCURVE",
"675 33 CURVE SMOOTH",
"748 99 OFFCURVE",
"731 156 OFFCURVE",
"732 212 CURVE",
"759 230 OFFCURVE",
"777 260 OFFCURVE",
"784 278 CURVE SMOOTH",
"797 313 OFFCURVE",
"773 391 OFFCURVE",
"802 429 CURVE SMOOTH",
"831 467 OFFCURVE",
"841 536 OFFCURVE",
"787 553 CURVE SMOOTH"
);
},
{
closed = 1;
nodes = (
"402 491 OFFCURVE",
"454 507 OFFCURVE",
"491 530 CURVE SMOOTH",
"518 547 OFFCURVE",
"562 593 OFFCURVE",
"572 605 CURVE SMOOTH",
"586 621 OFFCURVE",
"563 619 OFFCURVE",
"553 626 CURVE SMOOTH",
"540 635 OFFCURVE",
"540 654 OFFCURVE",
"515 628 CURVE SMOOTH",
"485 596 OFFCURVE",
"429 537 OFFCURVE",
"375 549 CURVE SMOOTH",
"361 552 OFFCURVE",
"374 528 OFFCURVE",
"374 517 CURVE SMOOTH",
"374 506 OFFCURVE",
"345 491 OFFCURVE",
"372 491 CURVE SMOOTH"
);
},
{
closed = 1;
nodes = (
"153 624 OFFCURVE",
"201 549 OFFCURVE",
"216 477 CURVE SMOOTH",
"231 405 OFFCURVE",
"235 338 OFFCURVE",
"215 324 CURVE SMOOTH",
"195 310 OFFCURVE",
"188 368 OFFCURVE",
"172 419 CURVE SMOOTH",
"156 471 OFFCURVE",
"76 556 OFFCURVE",
"115 590 CURVE SMOOTH"
);
},
{
closed = 1;
nodes = (
"761 413 OFFCURVE",
"719 412 OFFCURVE",
"717 384 CURVE SMOOTH",
"715 357 OFFCURVE",
"734 338 OFFCURVE",
"716 285 CURVE SMOOTH",
"698 232 OFFCURVE",
"648 223 OFFCURVE",
"647 294 CURVE SMOOTH",
"646 366 OFFCURVE",
"658 412 OFFCURVE",
"694 469 CURVE SMOOTH",
"729 524 OFFCURVE",
"768 523 OFFCURVE",
"764 449 CURVE SMOOTH"
);
}
);
width = 856;
}
);
note = Wacute;
unicode = 1E82;
},
{
glyphname = Wcircumflex;
lastChange = "2019-07-17 18:30:08 +0000";
layers = (
{
hints = (
{
horizontal = 1;
place = "{-1.81, 93.11}";
type = Stem;
},
{
horizontal = 1;
place = "{199, 44}";
type = Stem;
},
{
horizontal = 1;
place = "{336.32, 81.09}";
type = Stem;
},
{
horizontal = 1;
place = "{598.38, 88.9}";
type = Stem;
},
{
place = "{24.79, 79.6}";
type = Stem;
},
{
place = "{228.62, 67.47}";
type = Stem;
},
{
place = "{367.46, 70.54}";
type = Stem;
},
{
place = "{508.13, 53.94}";
type = Stem;
},
{
place = "{685, 85}";
type = Stem;
},
{
horizontal = 1;
place = "{694, 53.63}";
type = Stem;
},
{
horizontal = 1;
place = "{507.38, 164.81}";
type = Stem;
},
{
place = "{580.41, 66.59}";
type = Stem;
},
{
place = "{431.54, 59.46}";
type = Stem;
},
{
place = "{764, 61.62}";
type = Stem;
}
);
layerId = "B4EEB2EB-BE69-455B-9E3C-B597DC09858D";
paths = (
{
closed = 1;
nodes = (
"357 559 OFFCURVE",
"402 590 OFFCURVE",
"431 623 CURVE SMOOTH",
"452 647 OFFCURVE",
"475 679 OFFCURVE",
"480 694 CURVE",
"484 679 OFFCURVE",
"494 641 OFFCURVE",
"512 615 CURVE SMOOTH",
"536 580 OFFCURVE",
"577 544 OFFCURVE",
"604 531 CURVE SMOOTH",
"629 519 OFFCURVE",
"615 545 OFFCURVE",
"620 555 CURVE SMOOTH",
"625 565 OFFCURVE",
"639 581 OFFCURVE",
"625 584 CURVE SMOOTH",
"571 596 OFFCURVE",
"544 673 OFFCURVE",
"530 715 CURVE SMOOTH",
"514 760 OFFCURVE",
"499 741 OFFCURVE",
"489 742 CURVE SMOOTH",
"479 743 OFFCURVE",
"469 763 OFFCURVE",
"436 721 CURVE SMOOTH",
"417 697 OFFCURVE",
"370 607 OFFCURVE",
"315 607 CURVE SMOOTH",
"301 607 OFFCURVE",
"320 587 OFFCURVE",
"323 576 CURVE SMOOTH",
"326 565 OFFCURVE",
"303 544 OFFCURVE",
"329 551 CURVE SMOOTH"
);
},
{
closed = 1;
nodes = (
"781 555 OFFCURVE",
"775 556 OFFCURVE",
"770 558 CURVE",
"771 594 OFFCURVE",
"765 640 OFFCURVE",
"763 661 CURVE SMOOTH",
"761 689 OFFCURVE",
"735 657 OFFCURVE",
"724 657 CURVE SMOOTH",
"713 657 OFFCURVE",
"685 689 OFFCURVE",
"685 657 CURVE SMOOTH",
"685 626 OFFCURVE",
"687 589 OFFCURVE",
"687 542 CURVE",
"679 536 OFFCURVE",
"671 528 OFFCURVE",
"664 518 CURVE SMOOTH",
"636 478 OFFCURVE",
"621 425 OFFCURVE",
"609 402 CURVE SMOOTH",
"564 315 OFFCURVE",
"569 262 OFFCURVE",
"642 213 CURVE SMOOTH",
"652 206 OFFCURVE",
"663 202 OFFCURVE",
"672 199 CURVE",
"678 174 OFFCURVE",
"682 134 OFFCURVE",
"645 102 CURVE SMOOTH",
"585 50 OFFCURVE",
"574 195 OFFCURVE",
"540 308 CURVE SMOOTH",
"506 420 OFFCURVE",
"446 426 OFFCURVE",
"406 412 CURVE SMOOTH",
"366 398 OFFCURVE",
"354 308 OFFCURVE",
"385 265 CURVE SMOOTH",
"416 222 OFFCURVE",
"446 136 OFFCURVE",
"424 94 CURVE SMOOTH",
"390 29 OFFCURVE",
"350 124 OFFCURVE",
"270 249 CURVE",
"278 261 OFFCURVE",
"285 274 OFFCURVE",
"289 291 CURVE SMOOTH",
"311 386 OFFCURVE",
"278 513 OFFCURVE",
"248 579 CURVE SMOOTH",
"218 645 OFFCURVE",
"174 704 OFFCURVE",
"93 683 CURVE SMOOTH",
"36 668 OFFCURVE",
"-2 585 OFFCURVE",
"48 509 CURVE SMOOTH",
"97 434 OFFCURVE",
"119 372 OFFCURVE",
"133 279 CURVE SMOOTH",
"140 234 OFFCURVE",
"172 213 OFFCURVE",
"206 215 CURVE",
"303 15 OFFCURVE",
"343 -10 OFFCURVE",
"388 -1 CURVE SMOOTH",
"466 14 OFFCURVE",
"490 68 OFFCURVE",
"491 109 CURVE SMOOTH",
"492 150 OFFCURVE",
"445 261 OFFCURVE",
"438 300 CURVE SMOOTH",
"431 339 OFFCURVE",
"472 352 OFFCURVE",
"487 313 CURVE SMOOTH",
"526 212 OFFCURVE",
"495 208 OFFCURVE",
"527 113 CURVE SMOOTH",
"553 35 OFFCURVE",
"581 -52 OFFCURVE",
"675 33 CURVE SMOOTH",
"748 99 OFFCURVE",
"731 156 OFFCURVE",
"732 212 CURVE",
"759 230 OFFCURVE",
"777 260 OFFCURVE",
"784 278 CURVE SMOOTH",
"797 313 OFFCURVE",
"773 391 OFFCURVE",
"802 429 CURVE SMOOTH",
"831 467 OFFCURVE",
"841 536 OFFCURVE",
"787 553 CURVE SMOOTH"
);
},
{
closed = 1;
nodes = (
"153 624 OFFCURVE",
"201 549 OFFCURVE",
"216 477 CURVE SMOOTH",
"231 405 OFFCURVE",
"235 338 OFFCURVE",
"215 324 CURVE SMOOTH",
"195 310 OFFCURVE",
"188 368 OFFCURVE",
"172 419 CURVE SMOOTH",
"156 471 OFFCURVE",
"76 556 OFFCURVE",
"115 590 CURVE SMOOTH"
);
},
{
closed = 1;
nodes = (
"761 413 OFFCURVE",
"719 412 OFFCURVE",
"717 384 CURVE SMOOTH",
"715 357 OFFCURVE",
"734 338 OFFCURVE",
"716 285 CURVE SMOOTH",
"698 232 OFFCURVE",
"648 223 OFFCURVE",
"647 294 CURVE SMOOTH",
"646 366 OFFCURVE",
"658 412 OFFCURVE",
"694 469 CURVE SMOOTH",
"729 524 OFFCURVE",
"768 523 OFFCURVE",
"764 449 CURVE SMOOTH"
);
}
);
width = 856;
}
);
note = Wcircumflex;
unicode = 0174;
},
{
glyphname = Wdieresis;
lastChange = "2019-07-17 18:30:08 +0000";
layers = (
{
hints = (
{
horizontal = 1;
place = "{-1.81, 93.11}";
type = Stem;
},
{
horizontal = 1;
place = "{199, 44}";
type = Stem;
},
{
horizontal = 1;
place = "{336.32, 81.09}";
type = Stem;
},
{
horizontal = 1;
place = "{507.38, 164.81}";
type = Stem;
},
{
place = "{24.79, 79.6}";
type = Stem;
},
{
place = "{228.62, 67.47}";
type = Stem;
},
{
place = "{345.5, 85.25}";
type = Stem;
},
{
place = "{508.13, 53.94}";
type = Stem;
},
{
place = "{580.41, 66.59}";
type = Stem;
},
{
place = "{685, 85}";
type = Stem;
},
{
horizontal = 1;
place = "{582.03, 79.1}";
type = Stem;
},
{
place = "{367.46, 70.54}";
type = Stem;
},
{
horizontal = 1;
place = "{598.38, 88.9}";
type = Stem;
},
{
place = "{431.54, 59.46}";
type = Stem;
},
{
place = "{764, 61.62}";
type = Stem;
},
{
horizontal = 1;
place = "{581, 83}";
type = Stem;
},
{
place = "{505, 87}";
type = Stem;
}
);
layerId = "B4EEB2EB-BE69-455B-9E3C-B597DC09858D";
paths = (
{
closed = 1;
nodes = (
"781 555 OFFCURVE",
"775 556 OFFCURVE",
"770 558 CURVE",
"771 594 OFFCURVE",
"765 640 OFFCURVE",
"763 661 CURVE SMOOTH",
"761 689 OFFCURVE",
"735 657 OFFCURVE",
"724 657 CURVE SMOOTH",
"713 657 OFFCURVE",
"685 689 OFFCURVE",
"685 657 CURVE SMOOTH",
"685 626 OFFCURVE",
"687 589 OFFCURVE",
"687 542 CURVE",
"679 536 OFFCURVE",
"671 528 OFFCURVE",
"664 518 CURVE SMOOTH",
"636 478 OFFCURVE",
"621 425 OFFCURVE",
"609 402 CURVE SMOOTH",
"564 315 OFFCURVE",
"569 262 OFFCURVE",
"642 213 CURVE SMOOTH",
"652 206 OFFCURVE",
"663 202 OFFCURVE",
"672 199 CURVE",
"678 174 OFFCURVE",
"682 134 OFFCURVE",
"645 102 CURVE SMOOTH",
"585 50 OFFCURVE",
"574 195 OFFCURVE",
"540 308 CURVE SMOOTH",
"506 420 OFFCURVE",
"446 426 OFFCURVE",
"406 412 CURVE SMOOTH",
"366 398 OFFCURVE",
"354 308 OFFCURVE",
"385 265 CURVE SMOOTH",
"416 222 OFFCURVE",
"446 136 OFFCURVE",
"424 94 CURVE SMOOTH",
"390 29 OFFCURVE",
"350 124 OFFCURVE",
"270 249 CURVE",
"278 261 OFFCURVE",
"285 274 OFFCURVE",
"289 291 CURVE SMOOTH",
"311 386 OFFCURVE",
"278 513 OFFCURVE",
"248 579 CURVE SMOOTH",
"218 645 OFFCURVE",
"174 704 OFFCURVE",
"93 683 CURVE SMOOTH",
"36 668 OFFCURVE",
"-2 585 OFFCURVE",
"48 509 CURVE SMOOTH",
"97 434 OFFCURVE",
"119 372 OFFCURVE",
"133 279 CURVE SMOOTH",
"140 234 OFFCURVE",
"172 213 OFFCURVE",
"206 215 CURVE",
"303 15 OFFCURVE",
"343 -10 OFFCURVE",
"388 -1 CURVE SMOOTH",
"466 14 OFFCURVE",
"490 68 OFFCURVE",
"491 109 CURVE SMOOTH",
"492 150 OFFCURVE",
"445 261 OFFCURVE",
"438 300 CURVE SMOOTH",
"431 339 OFFCURVE",
"472 352 OFFCURVE",
"487 313 CURVE SMOOTH",
"526 212 OFFCURVE",
"495 208 OFFCURVE",
"527 113 CURVE SMOOTH",
"553 35 OFFCURVE",
"581 -52 OFFCURVE",
"675 33 CURVE SMOOTH",
"748 99 OFFCURVE",
"731 156 OFFCURVE",
"732 212 CURVE",
"759 230 OFFCURVE",
"777 260 OFFCURVE",
"784 278 CURVE SMOOTH",
"797 313 OFFCURVE",
"773 391 OFFCURVE",
"802 429 CURVE SMOOTH",
"831 467 OFFCURVE",
"841 536 OFFCURVE",
"787 553 CURVE SMOOTH"
);
},
{
closed = 1;
nodes = (
"574 581 OFFCURVE",
"592 601 OFFCURVE",
"592 617 CURVE SMOOTH",
"592 634 OFFCURVE",
"574 663 OFFCURVE",
"550 664 CURVE SMOOTH",
"528 665 OFFCURVE",
"505 642 OFFCURVE",
"505 625 CURVE SMOOTH",
"505 609 OFFCURVE",
"528 581 OFFCURVE",
"550 581 CURVE SMOOTH"
);
},
{
closed = 1;
nodes = (
"366 583 OFFCURVE",
"399 575 OFFCURVE",
"417 591 CURVE",
"432 607 OFFCURVE",
"436 641 OFFCURVE",
"425 652 CURVE SMOOTH",
"414 663 OFFCURVE",
"374 666 OFFCURVE",
"357 650 CURVE",
"341 633 OFFCURVE",
"343 605 OFFCURVE",
"355 594 CURVE"
);
},
{
closed = 1;
nodes = (
"153 624 OFFCURVE",
"201 549 OFFCURVE",
"216 477 CURVE SMOOTH",
"231 405 OFFCURVE",
"235 338 OFFCURVE",
"215 324 CURVE SMOOTH",
"195 310 OFFCURVE",
"188 368 OFFCURVE",
"172 419 CURVE SMOOTH",
"156 471 OFFCURVE",
"76 556 OFFCURVE",
"115 590 CURVE SMOOTH"
);
},
{
closed = 1;
nodes = (
"761 413 OFFCURVE",
"719 412 OFFCURVE",
"717 384 CURVE SMOOTH",
"715 357 OFFCURVE",
"734 338 OFFCURVE",
"716 285 CURVE SMOOTH",
"698 232 OFFCURVE",
"648 223 OFFCURVE",
"647 294 CURVE SMOOTH",
"646 366 OFFCURVE",
"658 412 OFFCURVE",
"694 469 CURVE SMOOTH",
"729 524 OFFCURVE",
"768 523 OFFCURVE",
"764 449 CURVE SMOOTH"
);
}
);
width = 856;
}
);
note = Wdieresis;
unicode = 1E84;
},
